<?xml version="1.0" encoding="utf-8"?>
<!-- Generator: Adobe Illustrator 26.4.1, SVG Export Plug-In . SVG Version: 6.00 Build 0)  -->
<svg version="1.1" id="Capa_1" xmlns="http://www.w3.org/2000/svg" xmlns:xlink="http://www.w3.org/1999/xlink" x="0px" y="0px"
	 viewBox="0 0 615.5 230.2" style="enable-background:new 0 0 615.5 230.2;" xml:space="preserve">
<style type="text/css">
	.st0{fill:#FF7400;}
	.st1{fill:#234EDB;}
	.st2{fill:#F3750D;}
	.st3{fill:#F6F4F1;}
</style>
<path class="st0" d="M130.9,155.8L40.2,167L40.1,39.3l151.1,11.2c0.1-3.3-0.2-6.4-0.7-9.2L30.7,26.5c-2.2-0.2-4.1,1.8-4.1,4.5v161.4
	c0,2.7,1.9,4.6,4.1,4.2L88,187C102.2,179.5,116.9,168.9,130.9,155.8z"/>
<path class="st1" d="M219.9,47.4c0-1.9-1.9-3.7-4.1-3.9l-5.1-0.4c-1-10.4-4.7-19.1-11.3-25.4C181,0.2,144.4,5.6,107.6,30
	c-2.1,1.4,4.9-2.1,14.2-6c27.9-11.8,52.1-14.3,65.5-1.6c23,21.8,4.5,78.6-41.2,126.7c-45.8,48.2-101.5,69.6-124.5,47.8
	C9.7,185.6,8.4,162,16.7,138c3.5-9.9,5.1-15,4.3-13.6c-18.7,35.1-20.7,68.5-3.5,84.9c17.7,16.8,51.5,11.8,87.1-9.4l-6.7,16.5
	c-2.2,5.4-0.1,8.5,4.9,6.9l56-16.9c4.6-1.3,6-4.6,3.2-7.4l-11.2-12.6l-36.3,7.3c6.2-4.2,12.5-8.9,18.6-14l83.6-14.1
	c2.2-0.4,4.1-2.2,4.1-4.2L219.9,47.4z M180.1,163.9c-1.8,0.3-3.2-0.8-3.2-2.4c0-1.6,1.4-3.1,3.2-3.4s3.2,0.8,3.2,2.4
	S181.8,163.6,180.1,163.9z M190.3,162.3c-1.8,0.3-3.2-0.8-3.2-2.4c0-1.6,1.4-3.1,3.2-3.3c1.8-0.3,3.2,0.8,3.2,2.4
	C193.5,160.5,192,162.1,190.3,162.3z M200.5,160.8c-1.8,0.3-3.2-0.8-3.2-2.4s1.4-3,3.2-3.3c1.8-0.3,3.2,0.8,3.2,2.4
	C203.7,159,202.3,160.5,200.5,160.8z M210.4,146l-48.7,6c30.5-34.2,48.2-71.8,49.2-100.1l1.2,0.1l0.7,93.7L210.4,146z"/>
<path id="text" class="st1" d="M238,75.5h13.9v69H238V75.5z M265.3,93.9c2.3-0.8,5.2-1.4,8.7-2.1s7.4-0.9,11.3-0.9
	c4,0,7.4,0.6,10,1.8c2.6,1.2,4.7,2.8,6.3,4.9c1.5,2.2,2.6,4.6,3.3,7.6c0.7,3,1,6.2,1,9.8v29.6h-13.3v-27.8c0-4.7-0.6-8.2-1.7-10.1
	c-1.2-2.1-3.2-3-6.3-3c-0.9,0-2,0-3,0.1c-1,0.1-2.1,0.3-2.9,0.4v40.4h-13.3L265.3,93.9L265.3,93.9z M398.4,145.8
	c-3-6.7-6.1-14.4-9.2-23.4c-3.1-8.9-6.1-18.6-8.9-29.1h14.2c0.6,2.6,1.3,5.4,2.1,8.5c0.8,3.1,1.6,6,2.5,9.1c0.9,3.1,1.7,6,2.6,9
	c0.9,3,1.7,5.5,2.5,8c0.8-2.4,1.6-5,2.5-8c0.9-3,1.7-5.9,2.6-9s1.7-6.2,2.5-9.1c0.8-3.1,1.5-5.8,2.1-8.5h13.8
	c-2.8,10.5-5.8,20.1-8.9,29.1c-3.1,8.9-6.2,16.7-9.2,23.4H398.4z M451.8,135.4c1.3,0,2.5,0,3.8-0.1c1.2-0.1,2.2-0.1,2.9-0.3v-11.2
	c-0.6-0.1-1.4-0.3-2.4-0.4c-1-0.1-2.1-0.3-3-0.3c-1.3,0-2.4,0.1-3.6,0.3s-2.1,0.5-2.9,0.9c-0.8,0.5-1.5,1.2-2,1.9
	c-0.5,0.8-0.7,1.8-0.7,3c0,2.3,0.7,4,2.1,4.9C447.4,135,449.4,135.4,451.8,135.4z M450.7,92c3.9,0,7.3,0.5,9.8,1.5
	c2.5,1,4.7,2.4,6.3,4.2c1.6,1.8,2.6,4.1,3.3,6.8c0.7,2.7,1,5.6,1,8.9v30.9c-2,0.5-4.6,1-7.9,1.7c-3.5,0.6-7.5,0.9-12.3,0.9
	c-3,0-5.8-0.3-8.3-0.9c-2.4-0.6-4.6-1.5-6.4-3c-1.8-1.4-3.1-3.1-4.1-5.4c-1-2.3-1.4-4.9-1.4-8.1c0-3.1,0.6-5.6,1.6-7.8
	c1.2-2.2,2.5-3.8,4.4-5.1s3.9-2.2,6.3-2.7s4.8-0.9,7.4-0.9c1.7,0,3.2,0.1,4.6,0.3c1.4,0.1,2.4,0.4,3.2,0.6v-1.4c0-2.6-0.7-4.5-2.1-6
	s-3.8-2.3-7.1-2.3c-2.3,0-4.5,0.1-6.7,0.5c-2.2,0.4-4.1,0.9-5.8,1.5l-1.7-11.9c0.8-0.3,1.7-0.5,2.9-0.9c1.2-0.3,2.4-0.5,3.8-0.8
	s2.8-0.4,4.4-0.6C447.6,92,449.2,92,450.7,92z M482.8,80.3l13.3-2.4v15.4h16v12.3h-16v18.5c0,3.1,0.5,5.6,1.5,7.4c1,1.8,3,2.8,6,2.8
	c1.4,0,2.9-0.1,4.4-0.4c1.5-0.3,2.9-0.8,4.1-1.3l1.8,11.5c-1.6,0.8-3.5,1.4-5.4,1.9c-2,0.5-4.4,0.8-7.3,0.8c-3.7,0-6.7-0.5-9-1.7
	c-2.4-1.2-4.3-2.6-5.8-4.6c-1.4-1.9-2.4-4.4-3-7.2c-0.6-2.8-0.8-5.9-0.8-9.2L482.8,80.3L482.8,80.3z M519,120c0-4.6,0.7-8.7,2-12.2
	s3-6.4,5.1-8.7c2.1-2.3,4.5-4.1,7.2-5.3c2.8-1.2,5.5-1.8,8.4-1.8c6.7,0,12,2.3,15.8,6.8s5.8,11.3,5.8,20c0,0.9,0,1.8-0.1,2.8
	c-0.1,1-0.1,1.9-0.2,2.7h-30.3c0.3,3.1,1.6,5.5,3.8,7.3c2.3,1.8,5.3,2.7,9.1,2.7c2.4,0,4.8-0.3,7.2-0.8c2.3-0.5,4.3-1.2,5.8-1.8
	l1.8,12.1c-0.7,0.4-1.6,0.8-2.9,1.2c-1.2,0.4-2.5,0.8-4,1c-1.5,0.3-3,0.5-4.7,0.8c-1.6,0.3-3.3,0.3-4.9,0.3c-4.3,0-7.9-0.6-11-2.1
	c-3.1-1.4-5.8-3.3-7.8-5.8c-2.1-2.4-3.6-5.3-4.6-8.6C519.4,127.4,519,123.8,519,120z M550.2,114.3c-0.1-1.3-0.2-2.4-0.6-3.7
	c-0.3-1.3-0.8-2.3-1.5-3.2c-0.7-0.9-1.5-1.7-2.6-2.3c-1-0.6-2.3-0.9-3.9-0.9c-1.5,0-2.8,0.3-3.8,0.9c-1,0.6-2,1.3-2.6,2.2
	c-0.7,0.9-1.3,2.1-1.6,3.2c-0.3,1.3-0.7,2.4-0.8,3.7L550.2,114.3L550.2,114.3z M571.1,119.6c0-3.8,0.6-7.3,1.6-10.7
	c1.2-3.3,2.6-6.3,4.8-8.7c2.1-2.4,4.6-4.5,7.6-5.9c3-1.4,6.3-2.2,10.2-2.2c2.5,0,4.8,0.3,6.9,0.8s4.1,1.2,6.1,2.2l-2.8,11.8
	c-1.3-0.5-2.6-1-4.1-1.4c-1.5-0.4-3.1-0.6-4.9-0.6c-3.9,0-6.9,1.4-8.7,4.1c-1.8,2.7-2.9,6.3-2.9,10.8c0,4.7,0.9,8.3,2.8,10.9
	c1.8,2.6,4.9,3.8,9.6,3.8c1.6,0,3.3-0.1,5.2-0.5s3.6-0.9,5.1-1.5l1.8,12.2c-1.5,0.8-3.5,1.4-5.8,1.9c-2.3,0.5-4.8,0.8-7.7,0.8
	c-4.3,0-7.9-0.8-11-2.2c-3.1-1.4-5.6-3.3-7.6-5.8s-3.5-5.4-4.4-8.7C571.6,127.2,571.1,123.4,571.1,119.6z"/>
<path class="st2" d="M317.2,134.2c-1.5-2.1-2.4-4.1-3.5-6c-0.5-0.8-0.5-1.7,0.2-2.4c0.1-0.1,0.2-0.4,0.3-0.5c4-2.7,4-6.8,3.1-11.3
	c-0.2-1.3-0.7-2.2-1.7-2.7c-1.4-0.8-2.8-1.7-4.3-2.4c-1-0.5-1.2-1.3-1-2.3c0.1-0.6,0.2-1.3,0.3-1.9c0.9-4.5,0.9-4.6,4.9-4.7
	c2.3,0,3.9-0.6,4.5-3.3c0-0.1,0-0.1,0.1-0.3c3.2-3.6,1.8-7.2-0.1-10.7c-0.8-1.5-0.3-2.1,0.6-2.8c0.2-0.1,0.5-0.4,0.6-0.5
	c4.1-3.6,4.1-3.6,8.3,0c1,0.9,2,1,2.9,0.8c1.8-0.6,3.7-1.5,5.5-2.3c0.7-0.3,0.7-1,0.9-1.7c0.6-1.8,1.2-3.7,1.6-5.6
	c0.2-1,0.9-1,1.5-1c1.5,0,3,0,4.5,0c0.8,0,1.3,0.4,1.6,1.3c0.6,1.8,0.8,3.6,1.2,5.4c0.2,1.2,0.9,1.9,2,2.2c1.6,0.5,3.2,1,4.7,1.7
	c2.1,0.8,3.8-0.9,5.2-2.2c2.1-1.9,2.1-2.2,4.6,0.3c3.1,3,3.2,3.1,1.4,7.1c-1.3,2.8-0.6,4.9,0.6,7.4c1.5,3.5,3.6,4.5,6.6,4.4
	c1.8-0.1,3.2,0.5,3.2,3.2c0,0.9,0.1,1.8,0.5,2.8c0.5,1.2-0.2,2.2-1,2.8c-0.3,0.3-0.8,0.6-1.2,0.8c-4.3,1.4-4.6,5.4-5.1,9.4
	c-0.1,1.3,0,2.2,0.9,3.2c4.4,5.1,4.3,4.1,0,11.9c-1.7-1.5-4.1-1-6-2.6c-0.6-0.5-0.9,0.3-1.4,0.6c-1.5,1.5-2.9,3.1-4.5,4.4
	c-0.9,0.6-0.9,1.8-0.8,2.8c0.1,1.5,0.1,3,0.2,4.5c0.2,1.7-0.5,2.6-1.8,3.1c-4.9,1.9-4.9,2.1-7.9-3.1c-0.9-1.7-2-2.2-3.6-1.9
	c-0.7,0.1-1.4,0.3-2,0.1c-2.8-0.9-4.4,0.5-5.8,3.2c-0.6,1.3-1.3,3.1-2.6,3.1c-2.1-0.1-4-1-5.9-2.3c-0.5-0.4-0.5-1-0.3-1.7
	c1.5-5.3-0.7-8.7-4.4-11.4c-1.2-0.9-2.1-1.8-3.6-0.6C320.4,133.2,318.5,132.7,317.2,134.2z M323.9,110.2
	c-0.3,13.5,10,24.1,20.7,23.7c12.5-0.5,20-10.1,20.3-22.7c0.2-13.6-8.4-24-22.3-23.4c-5.1,0.3-9.3,3.1-12.8,7.1
	C326.2,99.3,324,104.3,323.9,110.2z"/>
<path class="st3" d="M323.9,110.2c0.1-5.9,2.4-10.9,5.9-15.1c3.3-4.1,7.6-6.8,12.8-7.1c13.9-0.6,22.6,9.6,22.3,23.4
	c-0.2,12.6-7.7,22.2-20.3,22.7C333.9,134.5,323.5,123.7,323.9,110.2z M361.1,111.8c0-5.9-1.4-9.9-4.1-13.2c-1.5-1.9-3.5-2.3-4.8-1
	s-1.5,3.5,0.1,5.3c2,2.2,2.3,5.3,2.6,7.8c0.7,5.3-4.3,11.5-9.1,12.1c-4.5,0.5-8.9-1.9-10.7-6.5c-1.8-4.5-1.5-9,1.4-13
	c0.5-0.6,1-1.4,1.3-2.2c0.6-1.5,0-2.8-1-3.7c-1-0.9-2.3-1-3.5,0.1c-3.3,3.2-5.3,7.4-5.4,12.3c-0.2,7.7,2.6,14,8.7,17.6
	c5.5,3.3,11,3.2,16.6-0.6C358.6,122.9,361,117.5,361.1,111.8z M347.5,102.1L347.5,102.1c0-2.1,0-4.1,0-6.3c0-2.3-1.3-3.7-2.9-3.7
	c-1.7-0.1-3,1.3-3.1,3.6c-0.1,2.4-0.1,4.9-0.1,7.3c0,2.1,0,4.1,0.2,6.3c0.1,1.7,2.1,3.6,3.2,3.2c1.5-0.4,2.4-1.8,2.6-3.5
	c0.1-0.4,0-0.9,0-1.3C347.5,105.9,347.5,104.1,347.5,102.1z"/>
<path class="st2" d="M361.1,111.8c-0.1,5.6-2.5,11.2-7.9,15c-5.5,4-11,4-16.6,0.6c-6.1-3.6-9-9.9-8.7-17.6c0.1-4.9,2.1-9.1,5.4-12.3
	c1.2-1,2.4-1,3.5-0.1s1.6,2.2,1,3.7c-0.3,0.8-0.8,1.5-1.3,2.2c-2.9,4-3.2,8.5-1.4,13s6.2,7.1,10.7,6.5c4.8-0.5,9.8-6.8,9.1-12.1
	c-0.3-2.7-0.7-5.6-2.6-7.8c-1.6-1.8-1.5-4-0.1-5.3s3.3-0.9,4.8,1C359.7,101.9,361.1,105.9,361.1,111.8z"/>
<path class="st2" d="M347.5,102.1c0,1.8,0,3.7,0,5.5c0,0.4,0,0.9,0,1.3c-0.3,1.7-1.3,3-2.6,3.5c-1.2,0.4-3-1.5-3.2-3.2
	c-0.2-2.1-0.1-4.1-0.2-6.3c0-2.4-0.1-4.9,0.1-7.3c0.1-2.3,1.4-3.6,3.1-3.6c1.7,0.1,2.9,1.5,2.9,3.7
	C347.6,98,347.5,100.1,347.5,102.1L347.5,102.1z"/>
</svg>
