<?xml version="1.0" encoding="utf-8"?>
<!-- Generator: Adobe Illustrator 26.4.1, SVG Export Plug-In . SVG Version: 6.00 Build 0)  -->
<svg version="1.1" id="Capa_1" xmlns="http://www.w3.org/2000/svg" xmlns:xlink="http://www.w3.org/1999/xlink" x="0px" y="0px"
	 viewBox="0 0 224.4 226.6" style="enable-background:new 0 0 224.4 226.6;" xml:space="preserve">
<style type="text/css">
	.st0{fill:#FF7400;}
	.st1{fill:#234EDB;}
</style>
<path class="st0" d="M130.4,150.9l-90.7,11.2L39.6,34.4l151.1,11.2c0.1-3.3-0.2-6.4-0.7-9.2L30.2,21.6c-2.2-0.2-4.1,1.8-4.1,4.5
	v161.4c0,2.7,1.9,4.6,4.1,4.2l57.3-9.6C101.7,174.6,116.4,164,130.4,150.9z"/>
<path class="st1" d="M219.4,42.5c0-1.9-1.9-3.7-4.1-3.9l-5.1-0.4c-1-10.4-4.7-19.1-11.3-25.4c-18.4-17.5-55-12.1-91.8,12.3
	c-2.1,1.4,4.9-2.1,14.2-6c27.9-11.8,52.1-14.3,65.5-1.6c23,21.8,4.5,78.6-41.2,126.7C99.8,192.4,44.1,213.8,21.1,192
	c-11.9-11.3-13.2-34.9-4.9-58.9c3.5-9.9,5.1-15,4.3-13.6C1.8,154.6-0.2,188,17,204.4c17.7,16.8,51.5,11.8,87.1-9.4l-6.7,16.5
	c-2.2,5.4-0.1,8.5,4.9,6.9l56-16.9c4.6-1.3,6-4.6,3.2-7.4l-11.2-12.6l-36.3,7.3c6.2-4.2,12.5-8.9,18.6-14l83.6-14.1
	c2.2-0.4,4.1-2.2,4.1-4.2L219.4,42.5z M179.6,159c-1.8,0.3-3.2-0.8-3.2-2.4c0-1.6,1.4-3.1,3.2-3.4s3.2,0.8,3.2,2.4
	S181.3,158.7,179.6,159z M189.8,157.4c-1.8,0.3-3.2-0.8-3.2-2.4c0-1.6,1.4-3.1,3.2-3.3c1.8-0.3,3.2,0.8,3.2,2.4
	C193,155.6,191.5,157.2,189.8,157.4z M200,155.9c-1.8,0.3-3.2-0.8-3.2-2.4s1.4-3,3.2-3.3c1.8-0.3,3.2,0.8,3.2,2.4
	C203.2,154.1,201.8,155.6,200,155.9z M209.9,141.1l-48.7,6c30.5-34.2,48.2-71.8,49.2-100.1l1.2,0.1l0.7,93.7L209.9,141.1z"/>
</svg>
