<svg class="animated" id="freepik_stories-my-password" xmlns="http://www.w3.org/2000/svg" viewBox="0 0 500 500" version="1.1" xmlns:xlink="http://www.w3.org/1999/xlink" xmlns:svgjs="http://svgjs.com/svgjs"><style>svg#freepik_stories-my-password:not(.animated) .animable {opacity: 0;}svg#freepik_stories-my-password.animated #freepik--background-complete--inject-5 {animation: 6s Infinite  linear shake;animation-delay: 0s;}svg#freepik_stories-my-password.animated #freepik--Plant--inject-5 {animation: 6s Infinite  linear shake;animation-delay: 0s;}svg#freepik_stories-my-password.animated #freepik--Device--inject-5 {animation: 1.5s Infinite  linear floating;animation-delay: 0s;}svg#freepik_stories-my-password.animated #freepik--Shield--inject-5 {animation: 1.5s Infinite  linear heartbeat;animation-delay: 0s;}            @keyframes shake {                10%, 90% {                    transform: translate3d(-1px, 0, 0);                  }                  20%, 80% {                    transform: translate3d(2px, 0, 0);                  }                  30%, 50%, 70% {                    transform: translate3d(-4px, 0, 0);                  }                  40%, 60% {                    transform: translate3d(4px, 0, 0);                  }            }                    @keyframes floating {                0% {                    opacity: 1;                    transform: translateY(0px);                }                50% {                    transform: translateY(-10px);                }                100% {                    opacity: 1;                    transform: translateY(0px);                }            }                    @keyframes heartbeat {                0% {                    transform: scale(1);                }                10% {                    transform: scale(1.1);                }                30% {                    transform: scale(1);                }                40% {                    transform: scale(1);                }                50% {                    transform: scale(1.1);                }                60% {                    transform: scale(1);                }                100% {                    transform: scale(1);                }            }        .animator-hidden { display: none; }</style><g id="freepik--background-complete--inject-5" class="animable animator-active" style="transform-origin: 249.975px 215.205px;"><path d="M410.91,275.5l13.35-.28,6.58-.11c2.19-.05,4.36,0,6.55-.06l-.45.45-.05-11.19.5.5-13.24-.07c-4.42,0-8.83-.11-13.24-.16l.27-.27c0,1.83-.09,3.67-.13,5.53Zm0,0-.15-5.54c0-1.87-.11-3.75-.13-5.65V264h.28c4.41,0,8.82-.15,13.24-.16l13.24-.06h.5v.5l-.06,11.19V276h-.44c-2.24,0-4.47,0-6.7-.05l-6.66-.11Z" style="fill: rgb(235, 235, 235); transform-origin: 424.26px 269.89px;" id="elfq50uv2472h" class="animable"></path><path d="M425.68,289.61l13.35-.28,6.58-.11c2.19-.05,4.37,0,6.55-.06l-.45.45,0-11.19.5.5-13.24-.07c-4.42,0-8.83-.11-13.24-.16l.27-.27c0,1.83-.09,3.67-.13,5.53Zm0,0-.14-5.54c-.05-1.87-.12-3.75-.14-5.65v-.27h.28c4.41-.05,8.82-.15,13.24-.16l13.24-.06h.5v.5l-.06,11.19v.45h-.44c-2.23,0-4.47,0-6.7-.05l-6.66-.11Z" style="fill: rgb(235, 235, 235); transform-origin: 439.03px 284px;" id="elf5ainsdxnnk" class="animable"></path><g id="elvoswbmcek6"><rect x="396.08" y="278.42" width="26.48" height="11.19" style="fill: rgb(235, 235, 235); transform-origin: 409.32px 284.015px; transform: rotate(-180deg);" class="animable"></rect></g><path d="M47.84,366.85l13.36-.28,6.58-.11c2.18,0,4.36,0,6.54-.06l-.44.45-.06-11.19.5.5-13.24-.07c-4.41,0-8.82-.11-13.24-.16l.27-.27c0,1.83-.08,3.67-.13,5.53Zm0,0-.14-5.54c-.05-1.87-.11-3.75-.13-5.65v-.27h.27c4.42-.05,8.83-.15,13.24-.16l13.24-.06h.5v.5l0,11.19v.45h-.45c-2.23,0-4.47,0-6.69-.05L61,367.13Z" style="fill: rgb(235, 235, 235); transform-origin: 61.195px 361.24px;" id="elkx3vnuntof" class="animable"></path><g id="elnr1zty0ia1"><rect x="62.61" y="369.77" width="26.48" height="11.19" style="fill: rgb(235, 235, 235); transform-origin: 75.85px 375.365px; transform: rotate(-180deg);" class="animable"></rect></g><path d="M116.45,157.86l13.36-.28,6.58-.11c2.18-.05,4.36,0,6.54-.05l-.44.44-.06-11.19.5.5-13.24-.06c-4.41,0-8.83-.11-13.24-.17l.27-.27c0,1.83-.08,3.68-.13,5.54Zm0,0-.14-5.53c0-1.87-.11-3.76-.13-5.66v-.27h.27c4.41-.05,8.83-.16,13.24-.16l13.24-.07h.5v.5l-.05,11.19v.45h-.44c-2.23,0-4.47,0-6.69-.06l-6.66-.11Z" style="fill: rgb(235, 235, 235); transform-origin: 129.805px 152.24px;" id="ele8mnlep8ane" class="animable"></path><g id="elyhy68j5ajl"><rect x="62.49" y="49.95" width="26.48" height="11.19" style="fill: rgb(235, 235, 235); transform-origin: 75.73px 55.545px; transform: rotate(-180deg);" class="animable"></rect></g><path d="M47.72,75.25,61.07,75l6.58-.11c2.19,0,4.36,0,6.55,0l-.45.44,0-11.19.5.5L61,64.5c-4.42,0-8.83-.11-13.24-.17l.27-.27c0,1.83-.09,3.67-.13,5.54Zm0,0-.15-5.53c0-1.87-.11-3.76-.13-5.66v-.27h.28c4.41,0,8.82-.16,13.24-.17l13.24-.06h.5v.5l-.06,11.19v.45H74.2c-2.24,0-4.47,0-6.7-.06l-6.66-.11Z" style="fill: rgb(235, 235, 235); transform-origin: 61.07px 69.63px;" id="el8i8xziud41u" class="animable"></path><path d="M410.91,61.14l13.35-.28,6.58-.11c2.19,0,4.36,0,6.55,0l-.45.44L436.89,50l.5.5-13.24-.06c-4.42,0-8.83-.11-13.24-.17l.27-.27c0,1.83-.09,3.67-.13,5.54Zm0,0-.15-5.53c0-1.87-.11-3.76-.13-5.66v-.27h.28c4.41,0,8.82-.16,13.24-.17l13.24-.06h.5V50l-.06,11.19v.45h-.44c-2.24,0-4.47,0-6.7-.06L424,61.42Z" style="fill: rgb(235, 235, 235); transform-origin: 424.26px 55.545px;" id="eldj4d65qfer" class="animable"></path><g id="elw2xgc4plvo8"><rect x="369.05" y="189.88" width="26.48" height="11.19" style="fill: rgb(235, 235, 235); transform-origin: 382.29px 195.475px; transform: rotate(-180deg);" class="animable"></rect></g><path d="M87.23,119.4a3.16,3.16,0,0,1,3.3,0l.85.49c.29.15.58.3.88.44a3.16,3.16,0,0,1,1.84,2.73l.12,4.06,13.24-.41-.13-4.06a3.17,3.17,0,0,1,1.66-2.86,18,18,0,0,0,1.68-1,3.15,3.15,0,0,1,3.29-.21l3.57,1.91,6.26-11.67-3.57-1.92a3.14,3.14,0,0,1-1.65-2.85,16.15,16.15,0,0,0-.06-2,3.13,3.13,0,0,1,1.46-3L123.42,97l-7-11.25L113,87.86a3.14,3.14,0,0,1-3.29,0c-.27-.17-.56-.33-.84-.48s-.58-.31-.88-.44a3.16,3.16,0,0,1-1.84-2.74L106,80.11l-13.24.41.13,4a3.13,3.13,0,0,1-1.66,2.86,18.07,18.07,0,0,0-1.68,1,3.13,3.13,0,0,1-3.29.21l-3.57-1.91L76.43,98.44,80,100.36a3.12,3.12,0,0,1,1.64,2.85,18.53,18.53,0,0,0,.07,2,3.14,3.14,0,0,1-1.46,3l-3.45,2.14,7,11.25Zm3.31-20.9A10.85,10.85,0,1,1,95,113.18,10.86,10.86,0,0,1,90.54,98.5Z" style="fill: rgb(235, 235, 235); transform-origin: 100.11px 103.615px;" id="el4abk3gj0xi6" class="animable"></path><path d="M434,255.54a2.2,2.2,0,0,1,2.05-1.08h1.37a2.19,2.19,0,0,1,2,1.07l1.42,2.47,8-4.64-1.42-2.46a2.19,2.19,0,0,1,.08-2.31q.38-.59.69-1.2a2.21,2.21,0,0,1,2-1.22h2.84v-9.28h-2.84a2.2,2.2,0,0,1-2-1.21,11.7,11.7,0,0,0-.69-1.2,2.19,2.19,0,0,1-.08-2.31l1.42-2.47-8-4.63-1.43,2.47a2.19,2.19,0,0,1-2,1.08c-.23,0-.46,0-.69,0s-.45,0-.68,0a2.23,2.23,0,0,1-2.05-1.08l-1.42-2.47-8,4.63,1.42,2.46a2.19,2.19,0,0,1-.08,2.31q-.37.59-.69,1.2a2.2,2.2,0,0,1-2,1.22h-2.84v9.28h2.84a2.21,2.21,0,0,1,2,1.22,11.7,11.7,0,0,0,.69,1.2,2.19,2.19,0,0,1,.08,2.31l-1.42,2.46,8,4.64Zm-4.87-14a7.6,7.6,0,1,1,7.6,7.59A7.61,7.61,0,0,1,429.14,241.54Z" style="fill: rgb(235, 235, 235); transform-origin: 436.705px 241.535px;" id="elio6znwv99k" class="animable"></path><path d="M49.38,137.67a2.19,2.19,0,0,1,1.08,2.05c0,.22,0,.45,0,.68s0,.46,0,.69a2.19,2.19,0,0,1-1.07,2l-2.47,1.42,4.64,8L54,151.16a2.21,2.21,0,0,1,2.31.08c.39.25.79.49,1.2.7a2.19,2.19,0,0,1,1.22,1.95v2.84H68v-2.84a2.18,2.18,0,0,1,1.21-1.95,11.77,11.77,0,0,0,1.2-.7,2.21,2.21,0,0,1,2.31-.08l2.47,1.42,4.63-8-2.47-1.43a2.22,2.22,0,0,1-1.08-2c0-.23,0-.45,0-.68s0-.46,0-.68a2.22,2.22,0,0,1,1.08-2.05l2.47-1.42-4.63-8-2.46,1.42a2.19,2.19,0,0,1-2.31-.08q-.58-.37-1.2-.69a2.2,2.2,0,0,1-1.22-2v-2.84H58.75v2.84a2.21,2.21,0,0,1-1.22,2,11.7,11.7,0,0,0-1.2.69,2.21,2.21,0,0,1-2.32.08l-2.45-1.42-4.64,8Zm14-4.87a7.6,7.6,0,1,1-7.59,7.6A7.61,7.61,0,0,1,63.38,132.8Z" style="fill: rgb(235, 235, 235); transform-origin: 63.37px 140.43px;" id="elehn6wevtfi6" class="animable"></path></g><g id="freepik--Shadow--inject-5" class="animable" style="transform-origin: 131.96px 462.58px;"><ellipse cx="131.96" cy="462.58" rx="72.6" ry="10.39" style="fill: rgb(235, 235, 235); transform-origin: 131.96px 462.58px;" id="elwyzguvgubh" class="animable"></ellipse></g><g id="freepik--Plant--inject-5" class="animable" style="transform-origin: 400.451px 354.469px;"><path d="M396.16,351.23c-7.4-15.21-20.35-23-35-18.71s-16.86,24.67-6,29.81,21.79-9.86,27.55-12.95S396.16,351.23,396.16,351.23Z" style="fill: rgb(255, 199, 39); transform-origin: 372.253px 347.372px;" id="elt8tm6xuu9e" class="animable"></path><path d="M403.33,391.73c0-1.83-.11-3.67-.18-5.5-.13-3.66-.25-7.32-.38-11-.25-6.69-1-13.27-3.75-19.44a30.11,30.11,0,0,0-11.74-13.53,24.74,24.74,0,0,0-6.17-2.67,14.4,14.4,0,0,0-7.21-4,29.46,29.46,0,0,0-10.26-.26c-.13,0-.12.21,0,.19a24.91,24.91,0,0,1,9.72.69,21.15,21.15,0,0,1,3.91,1.53,18.76,18.76,0,0,1,2.26,1.43,21,21,0,0,0-8.92.09,19.62,19.62,0,0,0-3.09,1,9.63,9.63,0,0,0-2.44-.21,15.34,15.34,0,0,0-3.16.45,23.75,23.75,0,0,0-6,2.63c-.11.06,0,.22.1.16a22.68,22.68,0,0,1,5.86-2.21,20.22,20.22,0,0,1,3-.44,15.69,15.69,0,0,1,1.68,0,19.37,19.37,0,0,0-9.44,9.41c-.05.11.12.21.17.09a17.78,17.78,0,0,1,12-9.64c.32-.08.65-.12,1-.19-.11.47-.09,1-.15,1.47-.1.74-.22,1.48-.37,2.21a38.06,38.06,0,0,1-1.19,4.46,35.14,35.14,0,0,1-1.77,4.31,20.1,20.1,0,0,1-2.47,4.17.1.1,0,1,0,.16.11c.87-1.37,1.89-2.64,2.69-4.06a29.77,29.77,0,0,0,2-4.25,27.89,27.89,0,0,0,1.3-4.56c.17-.82.29-1.65.39-2.48a5.88,5.88,0,0,0,.09-1.51,20,20,0,0,1,5.18-.1c-.64,3.63-1.34,7.41-3.37,10.56-.07.11.11.21.17.09a42,42,0,0,0,2.5-5.19,19.66,19.66,0,0,0,1.26-5.4,23.93,23.93,0,0,1,8.57,2.87,28.36,28.36,0,0,1,11.41,12.48,47,47,0,0,1,4.23,17.9c.48,7.77.58,15.6,1.36,23.35.05.51.85.68,1,.1A28.21,28.21,0,0,0,403.33,391.73Z" style="fill: rgb(38, 50, 56); transform-origin: 379.648px 366.103px;" id="elns5r6l7zs2k" class="animable"></path><path d="M386.22,341.05a8.6,8.6,0,0,0-1.68-1.56c-.61-.5-1.23-1-1.88-1.42a14.26,14.26,0,0,0-4.2-2c-.12,0-.17.17,0,.19a11.26,11.26,0,0,1,4.15,2c.62.46,1.21.94,1.79,1.45a10.54,10.54,0,0,0,1.7,1.44C386.16,341.29,386.3,341.16,386.22,341.05Z" style="fill: rgb(38, 50, 56); transform-origin: 382.297px 338.64px;" id="el98yfq0lui1" class="animable"></path><path d="M362.6,346.56a46,46,0,0,0-3.4,4.49,27.65,27.65,0,0,0-2.52,5c0,.05.06.08.09,0a60.21,60.21,0,0,1,6-9.4C362.82,346.6,362.68,346.47,362.6,346.56Z" style="fill: rgb(38, 50, 56); transform-origin: 359.73px 351.314px;" id="eletwdptnnfco" class="animable"></path><path d="M378.52,345.06a11,11,0,0,1-.83,2.75,19.08,19.08,0,0,1-1.41,2.44c0,.05,0,.1.08.06a9.87,9.87,0,0,0,2.35-5.21C378.73,345,378.54,344.93,378.52,345.06Z" style="fill: rgb(38, 50, 56); transform-origin: 377.496px 347.657px;" id="elx4knyzglq28" class="animable"></path><path d="M402.3,351.61s10.48-13.18,30.7-8.51c19.23,4.44,28.1,39.7,8.68,43.91s-16-28.4-23.09-33.94C413.4,349,405.93,349.88,402.3,351.61Z" style="fill: rgb(255, 199, 39); transform-origin: 427.428px 364.741px;" id="elsjhydp04kg" class="animable"></path><path d="M448.63,362.36a40.43,40.43,0,0,0-4.17-3.2,18.45,18.45,0,0,0-4.44-2.22,27.78,27.78,0,0,0-2.64-3.39,26.62,26.62,0,0,0-6.11-4.87l.6,0a31.25,31.25,0,0,1,3.21,0,18,18,0,0,1,6.25,1.55c.11,0,.19-.13.08-.17a28.33,28.33,0,0,0-6.23-1.88,17.67,17.67,0,0,0-3.16-.27,16,16,0,0,0-1.7.1l-.33,0a27.15,27.15,0,0,0-5.83-2.14l.57-.16a30,30,0,0,1,3-.49,23.65,23.65,0,0,1,6.06.09.1.1,0,0,0,0-.19,39.07,39.07,0,0,0-6.12-.24,25.36,25.36,0,0,0-5.09.66,26.57,26.57,0,0,0-3.68-.42c-7.06-.3-14.75,2.33-19.09,8.13s-5.19,13.54-6,20.54a155.45,155.45,0,0,0-.77,29.41c0,.57.86.47.87-.08.27-8.31.56-16.63,1.36-24.91.37-3.84.77-7.69,1.41-11.49a34.24,34.24,0,0,1,2.79-9.46,17.28,17.28,0,0,1,6.83-7.34,23,23,0,0,1,9.67-3,25.85,25.85,0,0,1,9.07.85,6,6,0,0,0-.05,1.79,10.45,10.45,0,0,0,.45,2.21,11.23,11.23,0,0,0,.84,2c.38.69.85,1.31,1.27,2,.06.1.23,0,.15-.11a9.24,9.24,0,0,1-1.57-4,17.8,17.8,0,0,1-.24-2.06c0-.52,0-1.05,0-1.57a26.88,26.88,0,0,1,8.83,4.66c.49.4,1,.81,1.43,1.24a10.07,10.07,0,0,0-1.72,2.11,21,21,0,0,0-1.8,3.2,27.63,27.63,0,0,0-1.87,7c0,.12.18.16.19,0a20.38,20.38,0,0,1,2.31-6.66,27.21,27.21,0,0,1,1.79-3c.34-.48.69-1,1.06-1.43.2-.25.42-.51.6-.78a27.92,27.92,0,0,1,5.74,8.08l0,0A13.52,13.52,0,0,0,440.1,366a31.09,31.09,0,0,0-1.89,4,68.89,68.89,0,0,0-2.42,8.24c0,.12.17.16.19,0a35.11,35.11,0,0,1,2.87-8.13c.61-1.26,1.25-2.51,1.92-3.74a36.47,36.47,0,0,0,1.9-3.54,26.08,26.08,0,0,1,2.31,9.37c0,.12.2.11.19,0a32.7,32.7,0,0,0-4.54-14.38c1.24.53,2.48,1,3.67,1.68a20.54,20.54,0,0,1,4.2,3C448.59,362.59,448.72,362.44,448.63,362.36Z" style="fill: rgb(38, 50, 56); transform-origin: 420.667px 374.216px;" id="elo69p7eobrao" class="animable"></path><path d="M433.79,363.1c-.6,2-1.37,3.94-1.92,6A23,23,0,0,0,431,375c0,.06.09.06.1,0A58.09,58.09,0,0,1,434,363.16.1.1,0,1,0,433.79,363.1Z" style="fill: rgb(38, 50, 56); transform-origin: 432.502px 369.033px;" id="els98cg6htxj" class="animable"></path><path d="M446.61,358.15a11.19,11.19,0,0,0-2.68-1.91,19,19,0,0,0-3.1-1.1c-.12,0-.16.16,0,.19a11.64,11.64,0,0,1,3,1.23,22.3,22.3,0,0,1,2.75,1.69A.06.06,0,0,0,446.61,358.15Z" style="fill: rgb(38, 50, 56); transform-origin: 443.676px 356.695px;" id="eli7n5qzac2x" class="animable"></path><path d="M412.26,334s1.93-23.66,19.52-31.33c14.69-6.4,23.1,10.1,12.72,20.21C436.1,331.06,422.63,327.37,412.26,334Z" style="fill: rgb(255, 199, 39); transform-origin: 430.685px 317.618px;" id="elh9eukrh4fhj" class="animable"></path><path d="M441.25,307.26a74.69,74.69,0,0,0-7.83,3.71,58.59,58.59,0,0,0-6.07,4c.29-.6.54-1.22.84-1.81.46-.91.95-1.81,1.49-2.67a24.9,24.9,0,0,1,3.88-4.91c.09-.08-.06-.22-.14-.13a37.6,37.6,0,0,0-4.08,4.75,28.37,28.37,0,0,0-1.67,2.67,11,11,0,0,0-1.19,2.73l-.19.14a57.77,57.77,0,0,0-8.4,8.22c.05-.23.09-.46.16-.68.33-1.15.68-2.3,1.06-3.44a29.78,29.78,0,0,1,3.18-6.9c.07-.1-.1-.2-.17-.09a55.54,55.54,0,0,0-3.68,6.73,25.44,25.44,0,0,0-1.22,3.5,15.07,15.07,0,0,0-.57,2.38c-.77,1-1.52,1.95-2.23,3-7.55,10.75-11.34,23.75-12.25,36.77a113.18,113.18,0,0,0-.2,11.65,72.78,72.78,0,0,0,1,11.7c.05.25.43.17.43-.07-.09-3.42-.44-6.82-.51-10.24a100.77,100.77,0,0,1,.33-10.28,95.19,95.19,0,0,1,3.84-20.13A72.14,72.14,0,0,1,416,328.92c.74-.15,1.48-.35,2.21-.54s1.76-.45,2.63-.69a26.38,26.38,0,0,0,4.9-1.8.09.09,0,1,0-.1-.16,15.85,15.85,0,0,1-5,1.71c-1.38.28-2.81.45-4.19.77,1.28-1.86,2.64-3.66,4.09-5.38a30.66,30.66,0,0,0,10-.74,41.06,41.06,0,0,0,5.12-1.6c1.77-.68,3.43-1.55,5.17-2.28a.09.09,0,1,0-.08-.17,29.37,29.37,0,0,1-10.14,3.32,61.67,61.67,0,0,1-9.49.78c1.25-1.43,2.54-2.83,3.92-4.14,4.62-4.4,10.11-8.44,16.19-10.55C441.42,307.41,441.36,307.22,441.25,307.26Z" style="fill: rgb(38, 50, 56); transform-origin: 421.628px 347.077px;" id="elxyej12y71vn" class="animable"></path><path d="M426.93,307.34a26.19,26.19,0,0,0-2.16,3.15,17.42,17.42,0,0,0-1.55,3.67s0,.07.07,0c.59-1.16,1.08-2.37,1.68-3.52a17.49,17.49,0,0,1,2.1-3.2C427.15,307.37,427,307.24,426.93,307.34Z" style="fill: rgb(38, 50, 56); transform-origin: 425.156px 310.747px;" id="el4juq8rjtszh" class="animable"></path><path d="M443.29,315.21a17.56,17.56,0,0,1-3.61,1.51,33.71,33.71,0,0,1-3.67,1c-.06,0-.05.11,0,.1a17.75,17.75,0,0,0,3.81-.83,33.37,33.37,0,0,0,3.56-1.6C443.5,315.32,443.4,315.15,443.29,315.21Z" style="fill: rgb(38, 50, 56); transform-origin: 439.702px 316.509px;" id="el4i0oez2mpnx" class="animable"></path><path d="M398.58,329.76c-.11,1-2.66-8.6-17.54-17.13-13.5-7.75-29.63-27.91-16.38-40.65C375.35,261.7,403.52,284.11,398.58,329.76Z" style="fill: rgb(255, 199, 39); transform-origin: 379.438px 299.675px;" id="elf9pjt7gimtu" class="animable"></path><path d="M408.82,384.87A262.79,262.79,0,0,0,406.46,355a134.44,134.44,0,0,0-6.29-26.77c-1.1-3.13-2.37-6.2-3.74-9.23a21.93,21.93,0,0,0-.06-3.54c-.07-1.52-.21-3-.35-4.54s-.29-3-.47-4.53-.5-3-.56-4.51a.1.1,0,1,0-.19,0,32.06,32.06,0,0,1,.53,4.79q.18,2.19.24,4.38c.05,1.47,0,2.93,0,4.4,0,.52,0,1.08-.05,1.65-1.39-3-2.89-5.87-4.52-8.7,1-6.17-.3-12.62-1.56-18.65,0-.12-.21-.06-.18.06a52.81,52.81,0,0,1,1,9.56c.06,2.53-.06,5.06-.07,7.59-.36-.6-.71-1.21-1.08-1.81-1.93-3.15-4-6.24-6.18-9.23a14.36,14.36,0,0,0-.14-4.39,34.46,34.46,0,0,0-1.08-4.81c-.48-1.57-1-3.12-1.65-4.64s-1.5-3.05-2.12-4.61c-.06-.14-.25,0-.18.07a22.2,22.2,0,0,1,1.86,4.67,40.94,40.94,0,0,1,1.22,4.63c.32,1.56.57,3.13.79,4.72.15,1,.24,2.13.42,3.18a114.66,114.66,0,0,0-10.41-12.12c-.09-.09-.22.05-.14.14a137.25,137.25,0,0,1,15.13,20.58l.47.82c-.82-.51-1.76-.92-2.53-1.35l-4.33-2.38-4.22-2.3c-.72-.4-1.43-.82-2.17-1.2a17.15,17.15,0,0,1-2.52-1.39.09.09,0,1,0-.11.15c1.43.79,2.7,2,4.08,2.84s2.8,1.74,4.25,2.55c2.64,1.47,5.51,2.53,8.12,4.06q2.7,4.74,5,9.71c-1.58-1-3.19-2-4.83-2.9-1.05-.59-2.11-1.17-3.18-1.73a16.06,16.06,0,0,1-3-1.81.1.1,0,0,0-.13.14,28,28,0,0,0,5.72,4c1.91,1.12,3.84,2.2,5.83,3.17q2.38,5.24,4.3,10.65c6.26,17.73,8.56,36.55,9.66,55.24.33,5.57.5,11.14.57,16.72s-.23,11.14-.22,16.71c0,.16.27.2.3,0,.67-4.94.78-10,1-14.94S408.93,389.94,408.82,384.87Z" style="fill: rgb(38, 50, 56); transform-origin: 390.033px 346.293px;" id="el55k7bkn783e" class="animable"></path><path d="M381.79,304.61a72,72,0,0,1-7.9-4.08,86.49,86.49,0,0,1-7.51-4.77s-.08,0-.05.07a64.2,64.2,0,0,0,7.21,5,72.7,72.7,0,0,0,8.16,3.91C381.82,304.83,381.91,304.66,381.79,304.61Z" style="fill: rgb(38, 50, 56); transform-origin: 374.085px 300.263px;" id="elit1ytwgs8q7" class="animable"></path><path d="M386.1,284.57c-.22-.86-.49-1.71-.78-2.55a.1.1,0,0,0,0-.1c-.19-.48-.39-1-.58-1.43l-.07-.18c0-.09-.08-.18-.11-.27s-.06,0-.05,0,.09.33.14.49a2.76,2.76,0,0,0,.08.27,69.69,69.69,0,0,1,2.21,10.1c0,.11.18.11.17,0A34.22,34.22,0,0,0,386.1,284.57Z" style="fill: rgb(38, 50, 56); transform-origin: 385.809px 285.491px;" id="el2uj50jkose1" class="animable"></path><polygon points="424.54 388.47 423.48 401.05 420.23 439.42 385.42 439.42 382.17 401.05 381.11 388.47 424.54 388.47" style="fill: rgb(55, 71, 79); transform-origin: 402.825px 413.945px;" id="elntqw1caij7r" class="animable"></polygon><polygon points="424.54 388.47 423.48 401.05 382.17 401.05 381.11 388.47 424.54 388.47" style="fill: rgb(38, 50, 56); transform-origin: 402.825px 394.76px;" id="eln925rugbgzn" class="animable"></polygon><rect x="377.69" y="383.42" width="50.26" height="12.07" style="fill: rgb(55, 71, 79); transform-origin: 402.82px 389.455px;" id="elbecfaalgkm" class="animable"></rect></g><g id="freepik--Floor--inject-5" class="animable animator-hidden" style="transform-origin: 250px 439.42px;"><polygon points="47.44 439.42 98.08 439.18 148.72 439.09 250 438.92 351.28 439.08 401.92 439.17 452.56 439.42 401.92 439.66 351.28 439.75 250 439.92 148.72 439.75 98.08 439.66 47.44 439.42" style="fill: rgb(38, 50, 56); transform-origin: 250px 439.42px;" id="el3dgab3jhbne" class="animable"></polygon></g><g id="freepik--Device--inject-5" class="animable" style="transform-origin: 250px 247.995px;"><path d="M334.51,56.57h-169A17.26,17.26,0,0,0,148.36,74V422a17.27,17.27,0,0,0,17.11,17.42h169A17.29,17.29,0,0,0,351.64,422V74A17.28,17.28,0,0,0,334.51,56.57Zm6.43,354.67c0,9.16-6.86,16.57-15.32,16.57H174.39c-8.48,0-15.34-7.41-15.34-16.57V87.18c0-18.66,6.86-19.57,15.34-19.57h30.29c1.76,0,3.2,2,3.2,4.48v1.07C207.88,79,211.06,79,215,79H285c3.93,0,7.09,0,7.09-5.83V72.09c0-2.48,1.41-4.48,3.2-4.48h30.3c8.46,0,15.32,2.48,15.32,19.57Z" style="fill: rgb(38, 50, 56); transform-origin: 250px 247.995px;" id="elrh0akd7ajgr" class="animable"></path><path d="M259.55,71.73H240.44a1.18,1.18,0,0,1-1.18-1.18h0a1.18,1.18,0,0,1,1.18-1.18h19.11a1.18,1.18,0,0,1,1.18,1.18h0A1.18,1.18,0,0,1,259.55,71.73Z" style="fill: rgb(255, 255, 255); transform-origin: 249.995px 70.55px;" id="el63737fdbnvj" class="animable"></path><path d="M341,87.18V411.24c0,9.16-6.86,16.57-15.32,16.57H174.39c-8.48,0-15.34-7.41-15.34-16.57V87.18c0-18.66,6.86-19.57,15.34-19.57h30.29c1.76,0,3.2,2,3.2,4.48v1.07C207.88,79,211.06,79,215,79H285c3.94,0,7.09,0,7.09-5.83V72.09c0-2.48,1.42-4.48,3.21-4.48h30.3C334.09,67.61,341,70.09,341,87.18Z" style="fill: rgb(255, 255, 255); transform-origin: 250.025px 247.71px;" id="elacjz3lvkwgr" class="animable"></path><polygon points="177.46 99.55 172.08 94.52 177.46 89.48 178.29 90.37 173.87 94.52 178.29 98.67 177.46 99.55" style="fill: rgb(199, 199, 199); transform-origin: 175.185px 94.515px;" id="eli5j49gp6vf" class="animable"></polygon><path d="M326.86,91.38a1.06,1.06,0,1,1-1.06-1.06A1.05,1.05,0,0,1,326.86,91.38Z" style="fill: rgb(199, 199, 199); transform-origin: 325.8px 91.38px;" id="elx82nd30imrl" class="animable"></path><path d="M326.86,95.14a1.06,1.06,0,1,1-1.06-1.06A1.05,1.05,0,0,1,326.86,95.14Z" style="fill: rgb(199, 199, 199); transform-origin: 325.8px 95.14px;" id="elncd1jdidkcq" class="animable"></path><path d="M326.86,98.9a1.06,1.06,0,1,1-1.06-1.06A1.05,1.05,0,0,1,326.86,98.9Z" style="fill: rgb(199, 199, 199); transform-origin: 325.8px 98.9px;" id="ello4rpgh576a" class="animable"></path><g id="freepik--u5Zjqx--inject-5" class="animable" style="transform-origin: 196.175px 75.785px;"><path d="M199.45,74.89l-.29.29-.17.16a4,4,0,0,0-5.64,0l-.16-.17-.29-.29h0l0,0,.37-.33a5.16,5.16,0,0,1,.86-.54,4.14,4.14,0,0,1,1.14-.38,5,5,0,0,1,.56-.08h.5l.38,0a4.72,4.72,0,0,1,1.05.25,4.94,4.94,0,0,1,.7.33,4.48,4.48,0,0,1,.67.47l.31.28Z" style="fill: rgb(199, 199, 199); transform-origin: 196.175px 74.445px;" id="el5zkiirmpvto" class="animable"></path><path d="M194.28,76.26l-.47-.46a3.35,3.35,0,0,1,4.72,0l-.47.46a2.68,2.68,0,0,0-3.78,0Z" style="fill: rgb(199, 199, 199); transform-origin: 196.17px 75.5438px;" id="eldwo9m3mummf" class="animable"></path><path d="M197.6,76.73l-.46.45a1.4,1.4,0,0,0-1-.4,1.36,1.36,0,0,0-1,.41c-.15-.16-.31-.31-.46-.46A2,2,0,0,1,197.6,76.73Z" style="fill: rgb(199, 199, 199); transform-origin: 196.14px 76.6434px;" id="el6lhpmn4q887" class="animable"></path><path d="M196.59,77.6a.42.42,0,0,1-.42.42.41.41,0,0,1-.41-.42.41.41,0,0,1,.41-.41A.41.41,0,0,1,196.59,77.6Z" style="fill: rgb(199, 199, 199); transform-origin: 196.175px 77.6049px;" id="elb8ro2c08wx5" class="animable"></path></g><path d="M170.91,75.77a1.21,1.21,0,1,1,1.2,1.21A1.2,1.2,0,0,1,170.91,75.77Z" style="fill: rgb(199, 199, 199); transform-origin: 172.12px 75.77px;" id="elhlfuc7n3s3s" class="animable"></path><path d="M174.7,75.77A1.21,1.21,0,1,1,175.91,77,1.21,1.21,0,0,1,174.7,75.77Z" style="fill: rgb(199, 199, 199); transform-origin: 175.91px 75.79px;" id="elggqb9n55uxg" class="animable"></path><path d="M178.5,75.77A1.21,1.21,0,1,1,179.71,77,1.21,1.21,0,0,1,178.5,75.77Z" style="fill: rgb(199, 199, 199); transform-origin: 179.71px 75.79px;" id="ely75qtf316ob" class="animable"></path><path d="M182.3,75.77A1.21,1.21,0,1,1,183.5,77,1.2,1.2,0,0,1,182.3,75.77Z" style="fill: rgb(199, 199, 199); transform-origin: 183.51px 75.79px;" id="elhxert50yf5" class="animable"></path><path d="M186.1,75.77A1.21,1.21,0,1,1,187.3,77,1.2,1.2,0,0,1,186.1,75.77Z" style="fill: rgb(199, 199, 199); transform-origin: 187.31px 75.79px;" id="elymba9mki9c" class="animable"></path><path d="M327.31,78.41h-9.83V73.85h9.83ZM318,77.9h8.8V74.36H318Z" style="fill: rgb(199, 199, 199); transform-origin: 322.395px 76.13px;" id="elw82ezk5tfb" class="animable"></path><rect x="318.3" y="74.63" width="6.33" height="3" style="fill: rgb(199, 199, 199); transform-origin: 321.465px 76.13px;" id="eloi272xk3uk" class="animable"></rect><rect x="327.31" y="74.91" width="0.87" height="2.43" style="fill: rgb(199, 199, 199); transform-origin: 327.745px 76.125px;" id="elxuai5p8s4gf" class="animable"></rect><polygon points="186.69 408 185.3 408 185.3 414.35 182.72 414.35 182.72 411.11 178.14 411.11 178.14 414.35 175.56 414.35 175.56 408 174.18 408 180.43 401.53 186.69 408" style="fill: rgb(235, 235, 235); transform-origin: 180.435px 407.94px;" id="eliy8rmgffxzd" class="animable"></polygon><rect x="310.75" y="401.53" width="15.08" height="2.15" style="fill: rgb(235, 235, 235); transform-origin: 318.29px 402.605px;" id="el5zw31ooeofe" class="animable"></rect><rect x="310.75" y="406.86" width="15.08" height="2.15" style="fill: rgb(235, 235, 235); transform-origin: 318.29px 407.935px;" id="elbj8gcxnpxqo" class="animable"></rect><rect x="310.75" y="412.19" width="15.08" height="2.15" style="fill: rgb(235, 235, 235); transform-origin: 318.29px 413.265px;" id="elar5ytzlpy1" class="animable"></rect><polygon points="254.29 407.08 250 411.66 245.71 407.08 246.47 406.38 250 410.14 253.53 406.38 254.29 407.08" style="fill: rgb(235, 235, 235); transform-origin: 250px 409.02px;" id="elxain1sjfo8n" class="animable"></polygon><path d="M250,416.39a7.79,7.79,0,1,1,7.79-7.79A7.81,7.81,0,0,1,250,416.39Zm0-14.55a6.76,6.76,0,1,0,6.76,6.76A6.76,6.76,0,0,0,250,401.84Z" style="fill: rgb(235, 235, 235); transform-origin: 250px 408.6px;" id="elbo43a4j8w7u" class="animable"></path><path d="M238.37,380.61a2.6,2.6,0,1,1-2.6-2.6A2.59,2.59,0,0,1,238.37,380.61Z" style="fill: rgb(219, 219, 219); transform-origin: 235.77px 380.61px;" id="el02fspophv0ai" class="animable"></path><path d="M254.22,380.61a3.94,3.94,0,1,1-3.94-3.94A3.94,3.94,0,0,1,254.22,380.61Z" style="fill: rgb(255, 199, 39); transform-origin: 250.28px 380.61px;" id="elg4hqy4y55vn" class="animable"></path><path d="M267.39,380.61a2.6,2.6,0,1,1-2.6-2.6A2.59,2.59,0,0,1,267.39,380.61Z" style="fill: rgb(219, 219, 219); transform-origin: 264.79px 380.61px;" id="elzgx0f11m8ob" class="animable"></path><rect x="214.35" y="308.17" width="70.18" height="22.32" style="fill: rgb(255, 199, 39); transform-origin: 249.44px 319.33px;" id="eljp25usgf29" class="animable"></rect><path d="M234,322.46v-6a.55.55,0,0,1,.56-.56.56.56,0,0,1,.57.56v5.47h2.78a.57.57,0,0,1,0,1.14h-3.35A.56.56,0,0,1,234,322.46Z" style="fill: rgb(255, 255, 255); transform-origin: 236.239px 319.485px;" id="eljdhbx92v2br" class="animable"></path><path d="M245,316.74a3.75,3.75,0,0,1,0,5.18,3.32,3.32,0,0,1-2.44,1.1,3.43,3.43,0,0,1-2.51-1.1,3.8,3.8,0,0,1,0-5.18,3.39,3.39,0,0,1,2.51-1.1A3.29,3.29,0,0,1,245,316.74Zm-.13,2.59a2.64,2.64,0,0,0-.7-1.79,2.2,2.2,0,0,0-1.61-.73,2.23,2.23,0,0,0-1.66.73,2.6,2.6,0,0,0-.7,1.79,2.55,2.55,0,0,0,.7,1.78,2.24,2.24,0,0,0,1.66.74,2.21,2.21,0,0,0,1.61-.74A2.6,2.6,0,0,0,244.83,319.33Z" style="fill: rgb(255, 255, 255); transform-origin: 242.534px 319.33px;" id="elbf6i3mlfa3" class="animable"></path><path d="M247.7,319.34a3.79,3.79,0,0,1,6.12-2.9.58.58,0,1,1-.72.92,2.63,2.63,0,0,0-1.61-.55,2.56,2.56,0,0,0-1.85.75,2.42,2.42,0,0,0,0,3.54,2.56,2.56,0,0,0,1.85.75,2.78,2.78,0,0,0,1.4-.39v-1.4h-1.47a.6.6,0,0,1-.58-.59.58.58,0,0,1,.58-.57h2a.58.58,0,0,1,.6.57v2.27a.86.86,0,0,1,0,.17l0,0h0a.48.48,0,0,1-.2.25,3.78,3.78,0,0,1-6.11-2.88Z" style="fill: rgb(255, 255, 255); transform-origin: 250.873px 319.301px;" id="elf196pgifdms" class="animable"></path><path d="M256.44,316.41a.55.55,0,0,1,.56-.56.57.57,0,0,1,.58.56v6a.58.58,0,0,1-.58.56.55.55,0,0,1-.56-.56Z" style="fill: rgb(255, 255, 255); transform-origin: 257.01px 319.41px;" id="el6zeaa5jra6" class="animable"></path><path d="M260.62,322.46a.56.56,0,1,1-1.12,0v-6h0a.57.57,0,0,1,.23-.47.58.58,0,0,1,.78.12l3.31,4.58V316.5a.55.55,0,0,1,.55-.55.56.56,0,0,1,.56.55v6a.57.57,0,0,1-.56.56.54.54,0,0,1-.42-.21l-.05-.06-3.28-4.55Z" style="fill: rgb(255, 255, 255); transform-origin: 262.215px 319.475px;" id="elgf6g6hw7s9" class="animable"></path><path d="M267,135.39v7.31h-5.17v-7.31c0-7-5.29-12.61-11.79-12.61s-11.79,5.65-11.79,12.61v18.3H233v-18.3c0-10,7.61-18.07,17-18.07S267,125.43,267,135.39Z" style="fill: rgb(199, 199, 199); transform-origin: 250px 135.505px;" id="eld3vt6nebc8u" class="animable"></path><polygon points="233.04 142.72 238.21 142.93 238.21 153.69 233.04 153.69 233.04 142.72" style="fill: rgb(166, 166, 166); transform-origin: 235.625px 148.205px;" id="elyhi3b8ef92" class="animable"></polygon><rect x="226.41" y="147.56" width="47.18" height="42.8" style="fill: rgb(255, 199, 39); transform-origin: 250px 168.96px;" id="elgpy4gi6pyas" class="animable"></rect><g id="elp4dzepyj9ah"><rect x="250" y="147.56" width="23.59" height="42.8" style="opacity: 0.1; transform-origin: 261.795px 168.96px;" class="animable"></rect></g><path d="M252,170.53l2,9.36h-8.38l2-9.36a4.2,4.2,0,1,1,4.43,0Z" style="fill: rgb(38, 50, 56); transform-origin: 249.827px 171.326px;" id="eltkx2n0d4mlk" class="animable"></path><rect x="189.25" y="237.59" width="121.51" height="20.8" style="fill: rgb(255, 255, 255); transform-origin: 250.005px 247.99px;" id="elnl0ds14im2" class="animable"></rect><path d="M311.25,258.89H188.75v-21.8h122.5Zm-121.5-1h120.5v-19.8H189.75Z" style="fill: rgb(235, 235, 235); transform-origin: 250px 247.99px;" id="elidfv8mz4x2p" class="animable"></path><rect x="200.86" y="243.33" width="1" height="8.89" style="fill: rgb(55, 71, 79); transform-origin: 201.36px 247.775px;" id="elcaprtifbp2s" class="animable"></rect><rect x="196.92" y="247.27" width="8.89" height="1" style="fill: rgb(55, 71, 79); transform-origin: 201.365px 247.77px;" id="elmkep0fmarw" class="animable"></rect><g id="eljb1uoaw93v"><rect x="196.92" y="247.27" width="8.89" height="1" style="fill: rgb(55, 71, 79); transform-origin: 201.365px 247.77px; transform: rotate(-44.98deg);" class="animable"></rect></g><g id="elemklyg59xao"><rect x="200.86" y="243.33" width="1" height="8.89" style="fill: rgb(55, 71, 79); transform-origin: 201.36px 247.775px; transform: rotate(-45deg);" class="animable"></rect></g><rect x="215.94" y="243.33" width="1" height="8.89" style="fill: rgb(55, 71, 79); transform-origin: 216.44px 247.775px;" id="elim8arv5yxo" class="animable"></rect><rect x="212" y="247.27" width="8.89" height="1" style="fill: rgb(55, 71, 79); transform-origin: 216.445px 247.77px;" id="elw47f9ke1h9n" class="animable"></rect><g id="elyuui5xcyyj"><rect x="212" y="247.27" width="8.89" height="1" style="fill: rgb(55, 71, 79); transform-origin: 216.445px 247.77px; transform: rotate(-44.98deg);" class="animable"></rect></g><g id="elrtfll9zwxps"><rect x="215.94" y="243.33" width="1" height="8.89" style="fill: rgb(55, 71, 79); transform-origin: 216.44px 247.775px; transform: rotate(-45deg);" class="animable"></rect></g><rect x="231.02" y="243.33" width="1" height="8.89" style="fill: rgb(55, 71, 79); transform-origin: 231.52px 247.775px;" id="el0ugeyiww26c" class="animable"></rect><rect x="227.08" y="247.27" width="8.89" height="1" style="fill: rgb(55, 71, 79); transform-origin: 231.525px 247.77px;" id="elx6w4n8q2w6" class="animable"></rect><g id="elczrha9y3sx"><rect x="227.08" y="247.27" width="8.89" height="1" style="fill: rgb(55, 71, 79); transform-origin: 231.525px 247.77px; transform: rotate(-44.98deg);" class="animable"></rect></g><g id="eldm7kbez31gs"><rect x="231.02" y="243.33" width="1" height="8.89" style="fill: rgb(55, 71, 79); transform-origin: 231.52px 247.775px; transform: rotate(-45deg);" class="animable"></rect></g><rect x="246.11" y="243.33" width="1" height="8.89" style="fill: rgb(55, 71, 79); transform-origin: 246.61px 247.775px;" id="elx2qqidxv06r" class="animable"></rect><rect x="242.16" y="247.27" width="8.89" height="1" style="fill: rgb(55, 71, 79); transform-origin: 246.605px 247.77px;" id="elklpym4nltno" class="animable"></rect><g id="elfki54es5ahe"><rect x="242.16" y="247.27" width="8.89" height="1" style="fill: rgb(55, 71, 79); transform-origin: 246.605px 247.77px; transform: rotate(-44.98deg);" class="animable"></rect></g><g id="el61q989676ak"><rect x="246.11" y="243.33" width="1" height="8.89" style="fill: rgb(55, 71, 79); transform-origin: 246.61px 247.775px; transform: rotate(-45deg);" class="animable"></rect></g><rect x="261.19" y="243.33" width="1" height="8.89" style="fill: rgb(55, 71, 79); transform-origin: 261.69px 247.775px;" id="el9zdqpyh05f5" class="animable"></rect><rect x="257.24" y="247.27" width="8.89" height="1" style="fill: rgb(55, 71, 79); transform-origin: 261.685px 247.77px;" id="elikslz8rkq2" class="animable"></rect><g id="el86bstkur21x"><rect x="257.24" y="247.27" width="8.89" height="1" style="fill: rgb(55, 71, 79); transform-origin: 261.685px 247.77px; transform: rotate(-44.98deg);" class="animable"></rect></g><g id="elbu9895161a9"><rect x="261.19" y="243.33" width="1" height="8.89" style="fill: rgb(55, 71, 79); transform-origin: 261.69px 247.775px; transform: rotate(-45deg);" class="animable"></rect></g><rect x="276.27" y="243.33" width="1" height="8.89" style="fill: rgb(55, 71, 79); transform-origin: 276.77px 247.775px;" id="el09al9tokok5i" class="animable"></rect><rect x="272.33" y="247.27" width="8.89" height="1" style="fill: rgb(55, 71, 79); transform-origin: 276.775px 247.77px;" id="elx6ieedi70u" class="animable"></rect><g id="elw51dvy6ahgk"><rect x="272.33" y="247.27" width="8.89" height="1" style="fill: rgb(55, 71, 79); transform-origin: 276.775px 247.77px; transform: rotate(-44.98deg);" class="animable"></rect></g><g id="elp0mq86lybkc"><rect x="276.27" y="243.33" width="1" height="8.89" style="fill: rgb(55, 71, 79); transform-origin: 276.77px 247.775px; transform: rotate(-45deg);" class="animable"></rect></g><path d="M300.38,251.2a7.43,7.43,0,0,1-5.53-3l-.22-.3.22-.29a6.62,6.62,0,0,1,11,0l.21.29-.21.3A7.42,7.42,0,0,1,300.38,251.2Zm-4.48-3.26a5.56,5.56,0,0,0,9,0,5.56,5.56,0,0,0-9,0Z" style="fill: rgb(235, 235, 235); transform-origin: 300.345px 247.937px;" id="elljd8qivfin" class="animable"></path><circle cx="300.37" cy="247.94" r="2.25" style="fill: rgb(235, 235, 235); transform-origin: 300.37px 247.94px;" id="ellu440xchit" class="animable"></circle><g id="elbomxiqrlr5p"><rect x="294.79" y="247.27" width="11.3" height="1" style="fill: rgb(235, 235, 235); transform-origin: 300.44px 247.77px; transform: rotate(-45deg);" class="animable"></rect></g><path d="M217.33,215.93h-1.6v2.81a.72.72,0,0,1-1.44,0v-7.65a.71.71,0,0,1,.72-.71h2.32a2.78,2.78,0,1,1,0,5.55Zm-1.6-1.44h1.6a1.34,1.34,0,1,0,0-2.67h-1.6Z" style="fill: rgb(255, 199, 39); transform-origin: 217.283px 214.917px;" id="el2ks3e1jzl4r" class="animable"></path><path d="M225.58,217.31h-3.15l-.64,1.69a.74.74,0,0,1-.67.45.69.69,0,0,1-.25,0,.73.73,0,0,1-.43-.93l2.87-7.64a.74.74,0,0,1,.69-.45.71.71,0,0,1,.68.45l2.87,7.64a.73.73,0,0,1-.43.93.6.6,0,0,1-.25,0,.71.71,0,0,1-.66-.45Zm-.53-1.42L224,213.1,223,215.89Z" style="fill: rgb(255, 199, 39); transform-origin: 223.995px 214.946px;" id="elcyd5bll5r2i" class="animable"></path><path d="M228.82,217.2a.67.67,0,0,1,1-.09,4.23,4.23,0,0,0,2.48,1,2.78,2.78,0,0,0,1.62-.48,1.16,1.16,0,0,0,.56-.93.71.71,0,0,0-.12-.41,1.3,1.3,0,0,0-.39-.39,5.07,5.07,0,0,0-1.78-.61h0a7,7,0,0,1-1.68-.51,2.76,2.76,0,0,1-1.2-1,1.93,1.93,0,0,1-.3-1.06,2.41,2.41,0,0,1,1-1.9,3.83,3.83,0,0,1,2.24-.68,5.13,5.13,0,0,1,2.83,1,.66.66,0,0,1,.18.92.65.65,0,0,1-.92.2,3.77,3.77,0,0,0-2.09-.83,2.47,2.47,0,0,0-1.45.44,1,1,0,0,0-.49.82.59.59,0,0,0,.09.36,1.26,1.26,0,0,0,.35.34,4.48,4.48,0,0,0,1.62.57h0a8,8,0,0,1,1.79.54,3.07,3.07,0,0,1,1.3,1.08,2.14,2.14,0,0,1,.31,1.1,2.51,2.51,0,0,1-1.12,2,4,4,0,0,1-2.39.74,5.54,5.54,0,0,1-3.32-1.3A.68.68,0,0,1,228.82,217.2Z" style="fill: rgb(255, 199, 39); transform-origin: 232.231px 214.78px;" id="elt8awhcvv4c" class="animable"></path><path d="M237.35,217.2a.66.66,0,0,1,.94-.09,4.23,4.23,0,0,0,2.48,1,2.76,2.76,0,0,0,1.62-.48,1.16,1.16,0,0,0,.56-.93.71.71,0,0,0-.12-.41,1.2,1.2,0,0,0-.39-.39,5,5,0,0,0-1.77-.61h0a6.8,6.8,0,0,1-1.67-.51,2.84,2.84,0,0,1-1.21-1,2,2,0,0,1-.3-1.06,2.41,2.41,0,0,1,1-1.9,3.83,3.83,0,0,1,2.24-.68,5.13,5.13,0,0,1,2.83,1,.66.66,0,0,1,.18.92.65.65,0,0,1-.92.2,3.77,3.77,0,0,0-2.09-.83,2.47,2.47,0,0,0-1.45.44,1,1,0,0,0-.49.82.59.59,0,0,0,.09.36,1.26,1.26,0,0,0,.35.34,4.56,4.56,0,0,0,1.62.57h0a8,8,0,0,1,1.79.54,3,3,0,0,1,1.29,1.08,2,2,0,0,1,.31,1.1,2.5,2.5,0,0,1-1.11,2,4,4,0,0,1-2.4.74,5.54,5.54,0,0,1-3.32-1.3A.69.69,0,0,1,237.35,217.2Z" style="fill: rgb(255, 199, 39); transform-origin: 240.721px 214.78px;" id="elhyjv9nc9z9l" class="animable"></path><path d="M257.92,211.45,254.74,219a.29.29,0,0,1-.07.12h0s0,.05-.06.08,0,0,0,0l-.09.06h0s-.06.07-.12.08h0l-.11,0h-.31l-.09,0h0a.19.19,0,0,1-.11-.08h0l-.09-.06s0,0,0,0,0-.05-.05-.08h0a.43.43,0,0,1,0-.12l-1.7-4-1.7,4s0,.09-.05.12h0l-.08.08s0,0,0,0a.24.24,0,0,0-.08.06h0l-.1.08h0a.24.24,0,0,0-.1,0h-.32l-.1,0h0a.32.32,0,0,1-.12-.08h0s-.05,0-.09-.06l0,0-.06-.08h0s0-.08-.07-.12l-3.19-7.56a.71.71,0,0,1,1.31-.54l2.54,6,1.68-4a.72.72,0,0,1,.67-.44.76.76,0,0,1,.68.44l1.67,4,2.53-6a.72.72,0,0,1,.94-.38A.71.71,0,0,1,257.92,211.45Z" style="fill: rgb(255, 199, 39); transform-origin: 251.963px 214.902px;" id="elydmoby6fiqq" class="animable"></path><path d="M267,211.5a4.77,4.77,0,0,1,0,6.57,4.25,4.25,0,0,1-3.1,1.38,4.41,4.41,0,0,1-3.18-1.38,4.86,4.86,0,0,1,0-6.57,4.37,4.37,0,0,1,3.18-1.38A4.21,4.21,0,0,1,267,211.5Zm-.17,3.28a3.34,3.34,0,0,0-.88-2.26,2.76,2.76,0,0,0-2.05-.92,2.81,2.81,0,0,0-2.1.92,3.3,3.3,0,0,0-.88,2.26,3.26,3.26,0,0,0,.88,2.26,2.85,2.85,0,0,0,2.1.93,2.81,2.81,0,0,0,2.05-.93A3.31,3.31,0,0,0,266.79,214.78Z" style="fill: rgb(255, 199, 39); transform-origin: 263.877px 214.785px;" id="elpey1uo3ybi" class="animable"></path><path d="M276.83,218.38a.7.7,0,0,1-.45.9.9.9,0,0,1-.29,0h0a.89.89,0,0,1-.5-.14,1.21,1.21,0,0,1-.42-.45,3.55,3.55,0,0,1-.27-1.56,1.09,1.09,0,0,0-.16-.56,1.07,1.07,0,0,0-.39-.37,2.37,2.37,0,0,0-.72-.31h-1.53v2.81a.72.72,0,0,1-.73.71.71.71,0,0,1-.71-.71v-7.65a.7.7,0,0,1,.71-.71h2.32a2.77,2.77,0,0,1,1.77,4.91,2.3,2.3,0,0,1,.45.48,2.47,2.47,0,0,1,.43,1.4,2.8,2.8,0,0,0,.05.77A.66.66,0,0,1,276.83,218.38ZM275,213.16a1.33,1.33,0,0,0-1.34-1.34h-1.59v2.67h1.59A1.34,1.34,0,0,0,275,213.16Z" style="fill: rgb(255, 199, 39); transform-origin: 273.765px 214.875px;" id="elab8c8wl86i9" class="animable"></path><path d="M278.94,218.74v-7.65a.7.7,0,0,1,.71-.71h1.53a4.54,4.54,0,0,1,0,9.07h-1.53A.71.71,0,0,1,278.94,218.74Zm1.44-.73h.8a3.1,3.1,0,0,0,0-6.19h-.8Z" style="fill: rgb(255, 199, 39); transform-origin: 282.223px 214.915px;" id="el1m4qd53cy0y" class="animable"></path></g><g id="freepik--Shield--inject-5" class="animable" style="transform-origin: 381.88px 131.96px;"><path d="M434.06,100.28s-7.63,61.06-20.17,74.8c-15,16.48-26,14.07-32,22.57h0c-6.08-8.51-17-6.09-32-22.58-12.54-13.74-20.15-74.8-20.15-74.8,33-16,52.2-34,52.2-34v0C382.44,66.84,401.54,84.5,434.06,100.28Z" style="fill: rgb(55, 71, 79); transform-origin: 381.9px 131.96px;" id="elwv2a1ui3a5" class="animable"></path><path d="M381.85,66.29V197.65h0c-6.08-8.51-17-6.09-32-22.58-12.54-13.74-20.15-74.8-20.15-74.8,33-16,52.2-34,52.2-34Z" style="fill: rgb(69, 90, 100); transform-origin: 355.8px 131.96px;" id="elnp27lodod99" class="animable"></path><path d="M426,105.2s-6.44,51.58-17,63.19c-12.73,13.94-22,11.89-27.09,19.07-5.13-7.18-14.36-5.13-27.09-19.07-10.58-11.61-17-63.19-17-63.19,27.9-13.55,44.1-28.73,44.1-28.73S398.05,91.65,426,105.2Z" style="fill: rgb(69, 90, 100); transform-origin: 381.91px 131.965px;" id="elsuocz0jwjth" class="animable"></path><path d="M337.75,105.2s6.44,51.57,17,63.19c12.71,13.93,21.93,11.9,27.07,19.06v-111C381.36,77,365.22,91.86,337.75,105.2Z" style="fill: rgb(55, 71, 79); transform-origin: 359.785px 131.95px;" id="el6snivtrifmo" class="animable"></path><g id="el4507s4nwqva"><circle cx="381.85" cy="131.97" r="20.45" style="fill: rgb(255, 199, 39); transform-origin: 381.85px 131.97px; transform: rotate(-45deg);" class="animable"></circle></g><polygon points="379.52 145.25 370.41 135.78 373.79 132.53 378.81 137.75 389.63 121.15 393.56 123.71 379.52 145.25" style="fill: rgb(255, 255, 255); transform-origin: 381.985px 133.2px;" id="eloqewugfhcn" class="animable"></polygon></g><g id="freepik--Character--inject-5" class="animable" style="transform-origin: 134.866px 282.614px;"><g id="elfainvr2zt56"><rect x="80.36" y="232.55" width="70.16" height="14.53" style="fill: rgb(199, 199, 199); transform-origin: 115.44px 239.815px; transform: rotate(-180deg);" class="animable"></rect></g><polygon points="131.7 246.96 133.66 265.53 157.92 439.37 164.85 439.37 145.71 265.53 144.16 246.96 131.7 246.96" style="fill: rgb(199, 199, 199); transform-origin: 148.275px 343.165px;" id="elckleho04xcj" class="animable"></polygon><polygon points="66.03 439.37 72.97 439.37 97.23 265.53 99.19 246.96 86.73 246.96 85.18 265.53 66.03 439.37" style="fill: rgb(199, 199, 199); transform-origin: 82.61px 343.165px;" id="el9s27pf1didg" class="animable"></polygon><g id="eltvxw39jkyv8"><rect x="77.74" y="378.22" width="77.39" height="4.36" style="fill: rgb(199, 199, 199); transform-origin: 116.435px 380.4px; transform: rotate(-180deg);" class="animable"></rect></g><polygon points="145.71 264.88 133.66 264.88 131.7 246.96 144.16 246.96 145.71 264.88" style="fill: rgb(166, 166, 166); transform-origin: 138.705px 255.92px;" id="elp8y1wdnocg" class="animable"></polygon><polygon points="85.18 264.88 97.23 264.88 99.19 246.96 86.73 246.96 85.18 264.88" style="fill: rgb(166, 166, 166); transform-origin: 92.185px 255.92px;" id="eldm8hkp869qh" class="animable"></polygon><path d="M89.73,162.72c3,1.54,3.52,6.85,12.86,6.56,1.33,0,2.42-.57,3.64-.12,1.79.65,3.2,2.08,4.79,3.12a10.26,10.26,0,0,0,4.26,1.64,12.7,12.7,0,0,0,8.36-1.93c1.53-.94,2.81-2.24,4.29-3.26s10.41-3.18,11.92-8.2c1-3.19.81-6.82-3-11.48a5.83,5.83,0,0,1-1.71-3.1,6.94,6.94,0,0,1,.69-3,5.89,5.89,0,0,0,.55-3.43,7.57,7.57,0,0,0-2-2.93c-1.4-1.69-1.14-4.13,0-7.13a8.83,8.83,0,0,0-.9-7.74,18.45,18.45,0,0,0-3.22-3.5c-1.71-1.62-2-3.12-2.77-5.41-1.45-4.4-3.72-6.37-6.39-7.73-2.41-1.21-2.33-.75-4.91-.36a13.55,13.55,0,0,0-8.73-1.88c-2.82.36-5.15,2.25-7.28,4.06-1.9,1.62-3.64,3.36-3.74,6.09-.06,1.57.32,3.13.25,4.7-.1,2-1.21,3.27-2.54,4.53a11.77,11.77,0,0,0-3.89,6.53c-.35,2.13,1.75,5.44-.71,8.59-2.16,2.78-6,6-7,9.48C79.5,157.69,86.9,161.24,89.73,162.72Z" style="fill: rgb(38, 50, 56); transform-origin: 111.096px 138.372px;" id="elkt5a3kxrep" class="animable"></path><path d="M125.9,168.58c4.29-.65,10.88.16,13.16-4.62a7.34,7.34,0,0,0,2.69-6.13,10.76,10.76,0,0,0-3.25-6.51,16.5,16.5,0,0,1-2.72-3.33,21.76,21.76,0,0,1-.53-2.9,14.82,14.82,0,0,1,1-3.64s0,0,0,0c-.94,2-1.81,4.16-.94,6.36a7,7,0,0,0,.45.91,17.76,17.76,0,0,0,1.28,3.35c1.41,2.8,2.7,5.33,2.51,8.6a7.8,7.8,0,0,1-.77,3.15,11.84,11.84,0,0,1-6.63,2.88c-.06,0-.06.11,0,.1a13.47,13.47,0,0,0,6.2-2.25c-2.49,3.57-8.28,3.08-12.47,3.91C125.77,168.46,125.81,168.59,125.9,168.58Zm13.49-5.43,0-.09a12,12,0,0,0-.54-8c-.68-1.67-1.7-3.17-2.37-4.85-.11-.29-.22-.58-.32-.88,1,1.31,2.26,2.4,3.2,3.68,2,2.78,2.64,6.09.73,9.1A8.28,8.28,0,0,1,139.39,163.15Z" style="fill: rgb(38, 50, 56); transform-origin: 133.788px 155.015px;" id="elb4en8e207u4" class="animable"></path><path d="M80.49,157.52a.08.08,0,1,0,.13-.09c-1.81-3.14-1.29-6.37.16-9.26-.7,4.31.15,9.14,4.09,11.46.07,0,.12-.07.06-.11-4.08-2.44-4.7-8-3.59-12.37A24.88,24.88,0,0,1,84.49,143c1.88-2,4.21-4,5.59-6.49a5.88,5.88,0,0,1-2.31,3.63c-.07.06,0,.18.07.13a6.32,6.32,0,0,0,2.6-3.73,4.61,4.61,0,0,0,.1-1,9,9,0,0,0,.69-2.54,0,0,0,0,0-.06,0,8.68,8.68,0,0,1-.63,2.27,18.52,18.52,0,0,0-.92-4c-1-3.74.88-5.94,3.2-7.95l.57-.36a8,8,0,0,0,3.08-2.85c.17-.17.32-.34.47-.51,0,0,0,0,0,0s-.25.25-.38.37a4.61,4.61,0,0,0,.39-1.08s0,0,0,0a5.78,5.78,0,0,1-1,1.71c-.92.77-1.94,1.47-2.92,2.22-1.82,1.11-3.66,2.18-4.37,4.4s-.15,4.4,0,6.56c.26,3.33-1,6.12-4,7.44-.05,0-.05.08,0,.06.22-.08.47-.14.68-.24a11.64,11.64,0,0,0-4.1,5.38C79.12,149.76,78.23,154,80.49,157.52Zm7.77-18.76c-.34.27-.68.54-1,.79a5.9,5.9,0,0,0,1.11-1.92c.84-2.36.15-4.93.09-7.36a6.36,6.36,0,0,1,2.28-5.39,7.14,7.14,0,0,0-1.52,2.69c-.54,1.8,0,3.46.54,5.19a8.7,8.7,0,0,1,.4,3.37A15.25,15.25,0,0,1,88.26,138.76ZM82,145.32a15.1,15.1,0,0,1,4.28-4.86c.13-.09.24-.19.36-.29.48-.39,1-.78,1.43-1.18C86.1,141.19,83.66,143.14,82,145.32Z" style="fill: rgb(38, 50, 56); transform-origin: 88.0582px 139.26px;" id="elrjte6v03a7r" class="animable"></path><path d="M86.58,160.27s0,0,0,0S86.55,160.27,86.58,160.27Z" style="fill: rgb(38, 50, 56); transform-origin: 86.5733px 160.27px;" id="elcwlfhaelbr" class="animable"></path><path d="M129.7,117.57a59.6,59.6,0,0,1,4.57,4.42,5.93,5.93,0,0,1,1.7,3.8,6.34,6.34,0,0,1-1.29,4c-.32.48-.65,1-.94,1.47a6.07,6.07,0,0,0,.43,2.73c.7,1.65,2.25,2.67,3,4.34,1.16,2.7-.13,4.92-1.27,7.33,0,0,0,0,0,0,.83-2,2-3.93,1.34-6.17-.52-1.83-1.86-2.82-2.87-4.31a6.22,6.22,0,0,1-1-3.17c-.9,1.82-1.21,3.74.38,5.65.07.09,0,.21-.12.13-2-2-1.48-4.51-.25-6.66a11.82,11.82,0,0,1,.83-3.7c0-.12.23,0,.21.09-.18.94-.42,1.88-.55,2.81l.21-.31c1.6-2.29,2.23-5,.39-7.4-1.38-1.83-3.26-3.27-4.8-5C129.6,117.6,129.66,117.53,129.7,117.57Z" style="fill: rgb(38, 50, 56); transform-origin: 133.632px 131.609px;" id="el9s1erbey1s" class="animable"></path><path d="M141.73,306.39s-17.91,39.78-17.93,39.81c-3.46,7.59-6.37,14.3-7.54,17.92a.08.08,0,0,0,0,.06,5.76,5.76,0,0,0-.51,2.6s0,.05,0,.06c1.56,2.57,61.4,32,63.84,32.35s3.55-6.58,2.14-9.58-19.29-24.52-19.29-24.52L180,325.15Z" style="fill: rgb(235, 148, 129); transform-origin: 149.048px 352.796px;" id="elm9hqv55x66p" class="animable"></path><path d="M127.48,338s-3.66,8.14-3.68,8.17c-3.46,7.59-6.37,14.3-7.54,17.92a.08.08,0,0,0,0,.06,10.91,10.91,0,0,0-.51,2.6s0,.05,0,.06c1.56,2.57,61.4,32,63.84,32.35s3.55-6.58,2.14-9.58-19.29-24.52-19.29-24.52l3.85-8.24Z" style="fill: rgb(235, 235, 235); transform-origin: 149.05px 368.586px;" id="elfi212hdch3q" class="animable"></path><path d="M179.57,399.11c-2.44-.32-62.3-29.72-63.87-32.29-.61-1,3.16-9.94,8-20.65l.15-.34,38.84,18.54-.34.65s17.89,21.51,19.31,24.51S182,399.44,179.57,399.11Z" style="fill: rgb(38, 50, 56); transform-origin: 148.965px 372.476px;" id="elpuegnf6gnjb" class="animable"></path><path d="M181.54,397.41c.87.94-1.13,4.43-2,4.34s-66-32.44-67-33.24,1.37-4.57,2.76-4.14S181.54,397.41,181.54,397.41Z" style="fill: rgb(255, 199, 39); transform-origin: 147.028px 383.044px;" id="elc1fnvgtel9v" class="animable"></path><path d="M165.58,366.73c-3.61-2.69-8.76-4.47-13.19-3.13-.17,0-.09.3.06.32a61.79,61.79,0,0,1,12.87,3.31A.29.29,0,0,0,165.58,366.73Z" style="fill: rgb(255, 255, 255); transform-origin: 158.987px 365.191px;" id="elpqtv8muk0t" class="animable"></path><path d="M167.6,369.87c-3.61-2.7-8.76-4.47-13.19-3.13-.17.05-.09.29.06.32a61.76,61.76,0,0,1,12.87,3.3A.28.28,0,0,0,167.6,369.87Z" style="fill: rgb(255, 255, 255); transform-origin: 161.015px 368.33px;" id="els2uptl7mwjp" class="animable"></path><path d="M169.62,373c-3.61-2.69-8.77-4.47-13.19-3.13-.17.06-.1.3,0,.32a61.72,61.72,0,0,1,12.88,3.31A.29.29,0,0,0,169.62,373Z" style="fill: rgb(255, 255, 255); transform-origin: 163.042px 371.478px;" id="el1gda1meunfh" class="animable"></path><path d="M130.49,357.39c-3.28-4.3-10,.78-6.69,5.09S133.77,361.7,130.49,357.39Z" style="fill: rgb(255, 255, 255); transform-origin: 127.141px 359.937px;" id="elljxauvr18f8" class="animable"></path><path d="M152.29,271.81c-.4,11.57-22.7,61.54-22.7,61.54l39.11,18s31.57-55.57,28.64-81.17c-2.5-21.72-57.15-61.89-65.92-73.21-1.3-1.68-.86-8.44-.86-8.44H95.08V197c13.55,28.76,54.08,63.26,57.08,73.39a4.51,4.51,0,0,1,.13,1.42Z" style="fill: rgb(55, 71, 79); transform-origin: 146.306px 269.94px;" id="elvavkg5aj4i9" class="animable"></path><path d="M168.48,343c-6.44-3.09-4.55-2.3-11-5.31-3.17-1.47-19.07-8.92-22.27-9.75a.07.07,0,0,0-.06.13c2.74,1.86,18.81,8.93,22,10.34,6.53,2.88,4.69,2,11.25,4.78C168.51,343.25,168.6,343.05,168.48,343Z" style="fill: rgb(38, 50, 56); transform-origin: 151.823px 335.567px;" id="el737nqrv2ekh" class="animable"></path><path d="M104,203.05a373.28,373.28,0,0,0,35.81,46.23c3.22,3.51,6.53,6.92,9.84,10.34,2.8,2.89,5.66,6.1,6.35,10.21.78,4.58-1,9.14-2.43,13.41-1.57,4.7-3.15,9.39-4.82,14.06-1.8,5-9.16,23.19-10.37,25.64-.61,1.22,9.74-25,11.42-29.84s3.38-9.65,4.81-14.55a20.45,20.45,0,0,0,1-7.75,14,14,0,0,0-2.92-6.92c-2.88-3.84-6.62-7.1-9.89-10.6q-10.17-10.89-19.39-22.62a323.53,323.53,0,0,1-19.56-27.54A.07.07,0,1,1,104,203.05Z" style="fill: rgb(38, 50, 56); transform-origin: 130.016px 262.992px;" id="eljfy8f2a86ip" class="animable"></path><path d="M83,393.12s-1.74,43.61-1.75,43.64c.2,8.34.52,15.65,1,19.41a.2.2,0,0,0,0,.07A5.76,5.76,0,0,0,83,458.8l0,.05c2.52,1.62,69.22,2,71.55,1.23s.32-7.48-2.25-9.56-28.07-13.64-28.07-13.64l1.33-43.58Z" style="fill: rgb(235, 148, 129); transform-origin: 118.414px 426.792px;" id="elnhps8cctc2" class="animable"></path><path d="M81.57,428.13s-.34,8.6-.35,8.63c.2,8.34.52,15.65,1,19.41a.2.2,0,0,0,0,.07A11.54,11.54,0,0,0,83,458.8l0,.05c2.52,1.62,69.22,2,71.55,1.23s.32-7.48-2.25-9.56-28.07-13.64-28.07-13.64l.27-8.82Z" style="fill: rgb(235, 235, 235); transform-origin: 118.399px 444.262px;" id="elfhpb9h2094n" class="animable"></path><path d="M154.5,460c-2.33.77-69,.46-71.56-1.16-1-.6-1.49-10.32-1.78-22.09v-.37l43-.28,0,.73s25.48,11.54,28.08,13.62S156.84,459.24,154.5,460Z" style="fill: rgb(38, 50, 56); transform-origin: 118.348px 448.251px;" id="elo2knz0csjhl" class="animable"></path><path d="M155.53,457.62c1.19.47.92,4.48.05,4.79s-73.58-.34-74.82-.62-.76-4.72.68-4.94S155.53,457.62,155.53,457.62Z" style="fill: rgb(255, 199, 39); transform-origin: 118.189px 459.655px;" id="eloasb6kvkm9" class="animable"></path><path d="M127.78,437c-4.42-.85-9.84-.19-13.23,2.94-.13.12,0,.31.18.26a62.25,62.25,0,0,1,13-2.64A.28.28,0,0,0,127.78,437Z" style="fill: rgb(255, 255, 255); transform-origin: 121.266px 438.434px;" id="elt9e1jeesjif" class="animable"></path><path d="M131,438.93c-4.42-.85-9.83-.19-13.23,2.94-.13.12,0,.31.19.26a62,62,0,0,1,13-2.64A.28.28,0,0,0,131,438.93Z" style="fill: rgb(255, 255, 255); transform-origin: 124.488px 440.364px;" id="elonk7jegm6tc" class="animable"></path><path d="M134.15,440.87c-4.42-.85-9.84-.2-13.23,2.94-.14.12,0,.31.18.26a62,62,0,0,1,13-2.64A.28.28,0,0,0,134.15,440.87Z" style="fill: rgb(255, 255, 255); transform-origin: 127.634px 442.303px;" id="eleup4efjncvj" class="animable"></path><path d="M92.13,443.91c-4.83-2.44-8.63,5.06-3.8,7.5S97,446.36,92.13,443.91Z" style="fill: rgb(255, 255, 255); transform-origin: 90.2389px 447.66px;" id="el8wfpzid60ww" class="animable"></path><path d="M125.4,422.86l-43.6.36s7.26-178.07,2.4-183.89c-11.56-13.83-9.72-32.27-1.93-50.79H122s-1.91,28.12-1.72,28.94C132.5,270.78,125.4,422.86,125.4,422.86Z" style="fill: rgb(55, 71, 79); transform-origin: 101.715px 305.88px;" id="elutfv0f6tolg" class="animable"></path><path d="M123,413.93c-9.51-.74-34.56.07-37.72.55a.09.09,0,0,0,0,.16c3.13.63,31.85-.27,37.71-.5A.11.11,0,0,0,123,413.93Z" style="fill: rgb(38, 50, 56); transform-origin: 104.152px 414.246px;" id="eljxpwe5vtd9n" class="animable"></path><path d="M122.94,199.47c-.4,5-.2,13.62-3.11,13.75s-2.4-10.37-2.48-12.79c-.08-2.19-.83-1.89-.91.69-.22,7,0,13.19,3.68,12.9s3.69-11.14,3.6-13.62C123.67,199.12,123.06,197.88,122.94,199.47Z" style="fill: rgb(38, 50, 56); transform-origin: 120.061px 206.375px;" id="ellikfdazxmcm" class="animable"></path><path d="M120,213.55a21.68,21.68,0,0,0,.11,5.31c.05.14.61,0,.67-.09.34-.73.07-4.17.16-5.1A.47.47,0,0,0,120,213.55Z" style="fill: rgb(38, 50, 56); transform-origin: 120.422px 216.028px;" id="elyp1eqdvkee" class="animable"></path><path d="M121.25,219.75c1.24,4.4,2.51,12.82,2.21,15,0,.2-.32.27-.36.06-.4-2.36-2.16-13.71-2.34-14.9S120.9,218.52,121.25,219.75Z" style="fill: rgb(38, 50, 56); transform-origin: 122.106px 226.928px;" id="eljr2tdq1ftrh" class="animable"></path><path d="M113.6,223.22a16.43,16.43,0,0,1,1.86-1.57c.65-.51,1.3-1,2-1.49,1.38-1,2.8-1.86,4.25-2.72s2.87-1.61,4.35-2.36,3.18-1.37,4.72-2.14c.09-.05.17.08.08.13-1.46.81-2.82,1.82-4.24,2.71s-2.84,1.81-4.27,2.7-2.78,1.76-4.18,2.62q-1.09.68-2.22,1.32a18.73,18.73,0,0,1-2.1,1.17C113.61,223.68,113.47,223.37,113.6,223.22Z" style="fill: rgb(38, 50, 56); transform-origin: 122.225px 218.267px;" id="elzrfql4rejlo" class="animable"></path><path d="M88.37,330.21C89,315.94,90,300,90.24,285.75q.17-10.71.16-21.43c0-7.09,0-16.56-.32-23.64-.19-3.6-6.53-6.38-7.82-16.86A39.8,39.8,0,0,1,83.65,206a37.92,37.92,0,0,1,1.59-4.11c0-.09.17,0,.13.08a39.15,39.15,0,0,0-3.07,18.69,31.72,31.72,0,0,0,2,9.41c1.7,4.23,5.89,7.66,6.11,9.91.33,3.35.38,6.25.42,9.62s.08,7,.1,10.5q.06,10.72-.06,21.43-.24,21.33-1.12,42.64c-.6,14.21-4.28,85.36-4.52,87,0,.18-.32.14-.31,0C85.36,404,87.73,344.48,88.37,330.21Z" style="fill: rgb(38, 50, 56); transform-origin: 86.3856px 306.571px;" id="elze8ew2sn1lb" class="animable"></path><path d="M111.92,155.72c9.46,19.52,21.47,40.66,32.71,44,10.7,3.15,31.44-23.12,38-30,2.34-2.5-16.67-16.8-19.62-14.63-5.56,4.09-15.55,15.23-17.23,14.84S130.07,156.2,117.43,145C109.77,138.21,105.37,142.19,111.92,155.72Z" style="fill: rgb(235, 148, 129); transform-origin: 145.782px 170.866px;" id="el9mk8mptdl2o" class="animable"></path><path d="M199.08,157.33c2.6-1.09,22.62-1.73,22.62-6.07s-25.49-3.12-25.49-3.12Z" style="fill: rgb(235, 148, 129); transform-origin: 208.955px 152.656px;" id="ela5k45356uxc" class="animable"></path><path d="M160.68,157.84c3.5-4.35,6.58-9,9.62-9.9,2.11-.6,24.77.38,28.32.17s16.17.11,16.47,3.21c.41,4.39-14.55,4.35-16.14,6.6-5.51,7.74-26.46,19.2-26.46,19.2Z" style="fill: rgb(235, 148, 129); transform-origin: 187.889px 162.431px;" id="el4c14oua9ucx" class="animable"></path><path d="M215.42,151.39a3.44,3.44,0,0,0-1.45-2c-1.55-1.08-3.59-1.18-5.41-1.32a49,49,0,0,0-8.3-.07.05.05,0,0,0,0,.1c2.07,0,4.14.05,6.21.22a25.8,25.8,0,0,1,5.61.86,4.53,4.53,0,0,1,2.16,1.3,1.79,1.79,0,0,1,.43,1.67c-.61,1.91-4.38,2.48-6.12,2.87-2.27.51-4.63,1-6.92,1.42-.1,0,0,.18.05.16,2.37-.47,4.88-.66,7.26-1.09,1.93-.35,4-.74,5.56-2A2.19,2.19,0,0,0,215.42,151.39Z" style="fill: rgb(38, 50, 56); transform-origin: 207.827px 152.229px;" id="el9yfsyb7yqe" class="animable"></path><g id="elw99vm62hzme"><path d="M199.15,123.47h3.44a0,0,0,0,1,0,0v40.14a1.37,1.37,0,0,1-1.37,1.37h-.7a1.37,1.37,0,0,1-1.37-1.37V123.47A0,0,0,0,1,199.15,123.47Z" style="fill: rgb(255, 199, 39); transform-origin: 200.87px 144.225px; transform: rotate(-78.95deg);" class="animable"></path></g><g id="elr5dpcbig7h"><rect x="181.15" y="138.29" width="3.44" height="4.84" style="opacity: 0.1; transform-origin: 182.87px 140.71px; transform: rotate(-78.95deg);" class="animable"></rect></g><path d="M165.77,134.27l-1.16,6a7.79,7.79,0,0,0,15.3,3l1.17-6a7.8,7.8,0,0,0-15.31-3Zm12.86,1.49a4.41,4.41,0,0,1-3.82,3.37,4.47,4.47,0,0,1,2.28,4.56c-.47,2.38-3.09,3.88-5.86,3.34s-4.64-2.92-4.18-5.29a4.44,4.44,0,0,1,3.83-3.37,4.43,4.43,0,0,1-2.28-4.56c.47-2.39,3.09-3.87,5.86-3.33S179.1,133.38,178.63,135.76Z" style="fill: rgb(255, 199, 39); transform-origin: 172.845px 138.768px;" id="elt92khtwckva" class="animable"></path><g id="elhehtg5s7tcb"><rect x="177.37" y="139.61" width="7.81" height="1.58" rx="0.63" style="fill: rgb(255, 199, 39); transform-origin: 181.275px 140.4px; transform: rotate(-78.95deg);" class="animable"></rect></g><g id="elj80wdotd3th"><rect x="178.92" y="139.91" width="7.81" height="1.58" rx="0.63" style="fill: rgb(255, 199, 39); transform-origin: 182.825px 140.7px; transform: rotate(-78.95deg);" class="animable"></rect></g><polygon points="210.8 142.97 211.97 143.2 212.63 139.79 213.64 139.99 213.29 141.77 214.46 142 214.81 140.22 215.69 140.39 215.15 143.2 216.32 143.43 216.87 140.62 218.13 140.87 217.4 144.62 218.57 144.85 219.3 141.1 220.49 141.33 219.56 146.12 209.08 144.08 210.01 139.28 211.46 139.57 210.8 142.97" style="fill: rgb(255, 199, 39); transform-origin: 214.785px 142.7px;" id="ell0x034vzylo" class="animable"></polygon><path d="M76.56,194.56l55.82.92L128,178.76a17.5,17.5,0,0,0,2.51-14.57c-1.34-4.92-7.69-12.29-11.59-17-9.48-11.4-17.72-6.25-20.35-3.32C88.54,155.1,76.56,194.56,76.56,194.56Z" style="fill: rgb(255, 199, 39); transform-origin: 104.47px 167.807px;" id="elh4m77do5wg" class="animable"></path><path d="M104.05,150.37l0-3.18,2.11,2.36,2.28-.71-1.11,2,1.07,1.12-1.66.17,0,2.16-1.82-1.52L103.44,154l.17-1.82-2.16-1Zm23.78,35.73-1.76,1.61-1.62-.86.57,1.85-2.1,1.09,2,.86-.49,1.6,1.46-.56,1.44,1.82.22-2.38,3-1-2.92-1.27Zm-20.41-11.87,1.71,3.4,1.69-3.25,3.22.56-1.71-3.42,2.39-2.28-3.39.12-.68-3.32-1.78,3.44-4.52-.35,2.66,2.75-2.46,1.89Zm13.31-19.65.82-1.38-1.54.14-.53-1.27-.83,1.38-1.35-.33.81,1.18-1,1,1.63-.15.9,1.68.37-1.56,1.22.44ZM94.55,191l.82-1.37-1.53.13-.54-1.27-.82,1.39-1.35-.34.81,1.18-1,1,1.63-.14.9,1.68.37-1.57,1.23.45Zm9.18-24.79.82-1.37-1.54.13-.53-1.27-.82,1.39-1.36-.34.81,1.18-1,1,1.63-.14.9,1.67.37-1.56,1.23.44Zm-9.94,3.72-.28-.9-.54.73-.77-.27.28.91-.67.46.83.11,0,.84.57-.78,1.09.27-.54-.78.68-.37Zm25.91,21.45-.28-.9-.55.73-.76-.26.28.9-.68.47.84.1,0,.84.57-.77,1.09.26-.54-.78.68-.36Zm7.75-26.14.71-.63-.89-.19-.08-.81-.71.63-.7-.42.25.8-.75.38.94.2.21,1.11.49-.82.61.47Zm-14,16.89.7-.63-.89-.19-.08-.81-.7.63-.71-.42.25.8-.75.38.94.2.21,1.11.49-.82.61.47Zm-28.82,5.3.7-.63-.89-.2-.07-.81-.71.64L83,186l.24.81-.75.37.94.21.22,1.1.48-.81.61.47Z" style="fill: rgb(255, 255, 255); transform-origin: 106.52px 170.35px;" id="elvtwzmnuhwne" class="animable"></path><path d="M113.07,177.78a47.82,47.82,0,0,1,7.18-.12c1.19.08,2.37.22,3.55.39.58.08,1.17.14,1.76.2a7.72,7.72,0,0,0,1.86,0s.07.07,0,.09a14.49,14.49,0,0,1-1.73.28,13.94,13.94,0,0,1-1.71,0c-1.2-.08-2.41-.21-3.61-.29-2.43-.18-4.86-.35-7.3-.35C113,178,113,177.79,113.07,177.78Z" style="fill: rgb(38, 50, 56); transform-origin: 120.234px 178.112px;" id="eltprgyk5aj3a" class="animable"></path><path d="M107.65,180.91a53.66,53.66,0,0,1,5.77-1.34c1-.16,2-.27,2.94-.35l1.41-.1c.52,0,1,0,1.56,0,.06,0,.07.08,0,.09-.49.05-1,.18-1.46.25l-1.46.23-2.92.46q-2.92.42-5.84.94C107.57,181.09,107.55,180.94,107.65,180.91Z" style="fill: rgb(38, 50, 56); transform-origin: 113.481px 180.105px;" id="elbhe0qlc75tb" class="animable"></path><path d="M104,143.24c.24,1,5,7.45,9.55,7.23,1.48-.08,1.44-8.18,1.44-8.18l.13-.6L117,133.3,107.16,127l-1.42-.83s-.36,2.33-.78,5.23c0,.14,0,.27,0,.41s-.06.32-.08.48c-.07.43-.14.87-.19,1.31s-.09.67-.13,1l-.12,1.06A56.51,56.51,0,0,0,104,143.24Z" style="fill: rgb(235, 148, 129); transform-origin: 110.499px 138.323px;" id="elmaftrr7e50i" class="animable"></path><path d="M105,131.39a17.29,17.29,0,0,0,10.2,10.3L117,133.3,107.16,127l-1.42-.83S105.38,128.49,105,131.39Z" style="fill: rgb(38, 50, 56); transform-origin: 111px 133.93px;" id="elskbuc9okgkl" class="animable"></path><path d="M128.83,119.61c2.93,14.8-5.61,18.22-8.8,18.85-2.89.57-12.83,2.13-17.27-12.28s1.52-20.45,8.08-22.1S125.91,104.82,128.83,119.61Z" style="fill: rgb(235, 148, 129); transform-origin: 115.329px 121.219px;" id="el9y3a1ooxszt" class="animable"></path><path d="M124.51,117.35a9.21,9.21,0,0,1-1,.17,1.73,1.73,0,0,1-1.08,0,.54.54,0,0,1-.24-.61,1.33,1.33,0,0,1,1.11-.77,1.93,1.93,0,0,1,1.39.2A.57.57,0,0,1,124.51,117.35Z" style="fill: rgb(38, 50, 56); transform-origin: 123.547px 116.848px;" id="elr5zdekn0gfq" class="animable"></path><path d="M114,120.38a9.23,9.23,0,0,0,1-.21,1.66,1.66,0,0,0,1-.41.51.51,0,0,0,0-.65,1.3,1.3,0,0,0-1.31-.32,1.91,1.91,0,0,0-1.23.68A.57.57,0,0,0,114,120.38Z" style="fill: rgb(38, 50, 56); transform-origin: 114.73px 119.558px;" id="elp8lkkebdud" class="animable"></path><path d="M116.22,122.28s-.07,0-.06.1c.18,1,.22,2.2-.64,2.67,0,0,0,.07,0,.06C116.63,124.78,116.56,123.2,116.22,122.28Z" style="fill: rgb(38, 50, 56); transform-origin: 115.98px 123.695px;" id="ell19cot7cckg" class="animable"></path><path d="M115.16,121.35c-1.65.12-1.29,3.42.24,3.3S116.54,121.25,115.16,121.35Z" style="fill: rgb(38, 50, 56); transform-origin: 115.23px 123px;" id="elvyyrjxlymkk" class="animable"></path><path d="M114.53,121.6c-.27.21-.51.57-.86.65s-.73-.23-1-.53c0,0-.06,0,0,0,.06.63.37,1.25,1.06,1.27s1-.59,1.09-1.24C114.76,121.67,114.64,121.51,114.53,121.6Z" style="fill: rgb(38, 50, 56); transform-origin: 113.732px 122.282px;" id="elo1afsh0c7db" class="animable"></path><path d="M122.49,121.32s.08,0,.08.08c.08,1,.33,2.19,1.29,2.43,0,0,0,.06,0,.06C122.71,123.85,122.39,122.3,122.49,121.32Z" style="fill: rgb(38, 50, 56); transform-origin: 123.166px 122.605px;" id="elju5z2j2mc5" class="animable"></path><path d="M123.29,120.16c1.63-.29,2.09,3,.58,3.26S121.92,120.41,123.29,120.16Z" style="fill: rgb(38, 50, 56); transform-origin: 123.628px 121.788px;" id="el7llry7afolp" class="animable"></path><path d="M124,120.28c.29.14.59.42.9.39s.58-.42.76-.79c0,0,0,0,.06,0,.1.62,0,1.31-.6,1.51s-1-.29-1.25-.9C123.83,120.41,123.89,120.22,124,120.28Z" style="fill: rgb(38, 50, 56); transform-origin: 124.806px 120.658px;" id="elnoha3xw2p1" class="animable"></path><path d="M118.08,130.9c.26.23.53.54.9.55a2.82,2.82,0,0,0,1.09-.33s.06,0,0,0a1.38,1.38,0,0,1-1.26.64A1.08,1.08,0,0,1,118,131S118,130.87,118.08,130.9Z" style="fill: rgb(38, 50, 56); transform-origin: 119.048px 131.329px;" id="elx95vezqt1n" class="animable"></path><path d="M121.89,126.7s.4,1.49.49,2.21c0,.07-.16.12-.41.17h0a3.46,3.46,0,0,1-3.48-.87c0-.06,0-.15.1-.11a5.17,5.17,0,0,0,3.23.51c0-.2-.77-2.54-.66-2.56a6.35,6.35,0,0,1,1.68.17c-.73-3.14-2-6.14-2.65-9.28,0-.11.14-.17.18-.07a51.72,51.72,0,0,1,3.28,9.87C123.74,127.14,122.2,126.78,121.89,126.7Z" style="fill: rgb(38, 50, 56); transform-origin: 121.072px 123.027px;" id="elfsnxvhkiz0o" class="animable"></path><path d="M121.87,128.82a4.14,4.14,0,0,1-1.41,1.57,1.88,1.88,0,0,1-1.11.28c-.84-.07-1-.81-1-1.47a4.58,4.58,0,0,1,.19-1A5.38,5.38,0,0,0,121.87,128.82Z" style="fill: rgb(38, 50, 56); transform-origin: 120.11px 129.437px;" id="elq9qunjnyp9" class="animable"></path><path d="M120.46,130.39a1.88,1.88,0,0,1-1.11.28c-.84-.07-1-.81-1-1.47A1.93,1.93,0,0,1,120.46,130.39Z" style="fill: rgb(255, 154, 187); transform-origin: 119.405px 129.924px;" id="elcg08z95501" class="animable"></path><path d="M104.41,127.48c2.83,0,2.64-6.5,2.64-6.5s11.56-3.69,11.2-13.46a16.47,16.47,0,0,0,9.49,7.75s-1.91-10.5-10.58-11.37c0,0-10.93-2.31-15.61,6.77S102.51,127.51,104.41,127.48Z" style="fill: rgb(38, 50, 56); transform-origin: 113.739px 115.559px;" id="eluhkllj4rnj8" class="animable"></path><path d="M118.19,106.8a10.68,10.68,0,0,1,.09,4.47,10.93,10.93,0,0,1-1.68,4.21,8.7,8.7,0,0,1-.69.91l-.35.45c-.13.14-.27.27-.41.4s-.54.53-.82.78l-.92.68c-.15.11-.3.22-.46.32l-.49.28-1,.55c-.68.3-1.38.56-2.08.81.64-.39,1.3-.71,1.92-1.1l.92-.62.45-.31c.15-.11.28-.23.42-.35l.83-.7c.27-.25.51-.52.76-.78l.38-.39.33-.43a8.72,8.72,0,0,0,.63-.87,12.62,12.62,0,0,0,1.75-4,14,14,0,0,0,.37-2.15A13.58,13.58,0,0,0,118.19,106.8Z" style="fill: rgb(38, 50, 56); transform-origin: 113.927px 113.73px;" id="el383p10ahto6" class="animable"></path><path d="M100,118.59l-.7,1.42,4.68,3.42,1.5-3.19Zm3.65,3.38-3.23-2.1.15-.33,3.63,1.31Z" style="fill: rgb(255, 199, 39); transform-origin: 102.39px 121.01px;" id="el9dcltt87f1" class="animable"></path><path d="M100.2,116.08l-.11,1.58,5.63,1.41.19-3.53Zm4.66,1.75-3.79-.72,0-.37,3.86-.15Z" style="fill: rgb(255, 199, 39); transform-origin: 103px 117.305px;" id="elebbvki1xb08" class="animable"></path><path d="M106.58,126.21s-3.79-4.33-5.78-2.93,1.2,7.92,3.79,8.57a2.54,2.54,0,0,0,3.25-1.73Z" style="fill: rgb(235, 148, 129); transform-origin: 104.009px 127.491px;" id="el6tqq0z7exry" class="animable"></path><path d="M101.76,125.13s0,.05,0,.06a6.43,6.43,0,0,1,3.74,3.65,1.4,1.4,0,0,0-2.13-.15s0,.1.06.09a1.56,1.56,0,0,1,1.77.35,7.77,7.77,0,0,1,1,1.3c.09.15.37,0,.29-.14l0,0C106.25,128,104.18,125.09,101.76,125.13Z" style="fill: rgb(38, 50, 56); transform-origin: 104.132px 127.811px;" id="elo8a6fnsehj" class="animable"></path><path d="M95.25,147.2c-12.72,21.94-31.73,72.3-35.17,79.5-2.33,4.89,23.23,17.78,24.32,14.22,1.38-4.55,19.12-63.21,20.28-89.38C105.22,139.42,99.32,140.18,95.25,147.2Z" style="fill: rgb(235, 148, 129); transform-origin: 82.3223px 191.831px;" id="el22p5awr8u0a" class="animable"></path><path d="M74,252.12c1.35-1.18,2-.48,1.39,2.64s-5.55,15-1.27,16.35,11-15.44,11.62-20.71-.34-14-.34-14C83.43,239.42,78,246.26,74,252.12Z" style="fill: rgb(235, 148, 129); transform-origin: 79.17px 253.793px;" id="el3jzl8bq6cqb" class="animable"></path><path d="M81.5,270.46l-32-5.76c-1-.08-1.61-.74-1.44-1.48l2.93-13.08A1.88,1.88,0,0,1,53,249L85,254.73c1,.09,1.61.75,1.44,1.48l-2.93,13.08A1.85,1.85,0,0,1,81.5,270.46Z" style="fill: rgb(166, 166, 166); transform-origin: 67.25px 259.731px;" id="el1szwfgw9xpi" class="animable"></path><path d="M81.87,268.92l-32.06-5.76c-1-.09-1.6-.75-1.44-1.48l2.94-13.08a1.84,1.84,0,0,1,2-1.17l32.06,5.76c1,.08,1.6.74,1.44,1.47L83.9,267.75A1.86,1.86,0,0,1,81.87,268.92Z" style="fill: rgb(199, 199, 199); transform-origin: 67.59px 258.176px;" id="elqkp4rjmrp4" class="animable"></path><path d="M81.27,264.77c-.74-.28-1.44,0-1.56.62A1.61,1.61,0,0,0,80.84,267c.74.28,1.44,0,1.56-.61A1.61,1.61,0,0,0,81.27,264.77Z" style="fill: rgb(38, 50, 56); transform-origin: 81.0552px 265.885px;" id="elgc10agcdzxw" class="animable"></path><path d="M61.79,224.4c-6.53,8.8-12.31,19.16-12.45,30.61a5.71,5.71,0,0,0,1.09,3.55c-.15,5.12,2.22,6.74,2.22,6.74,1.32,4.81,4,6.13,4,6.13s.38,4.13,3.29,4.07,4.51-6.83,7-11.77c5.83-11.34,16.43-24.22,18.43-27.32Z" style="fill: rgb(235, 148, 129); transform-origin: 67.3534px 249.95px;" id="elsk38shr1mkd" class="animable"></path><path d="M63.87,249.16a82.48,82.48,0,0,0-4.53,10.22,82.76,82.76,0,0,0-2.6,12,.1.1,0,0,1-.2,0,43.47,43.47,0,0,1,7.18-22.24C63.82,248.93,64,249,63.87,249.16Z" style="fill: rgb(38, 50, 56); transform-origin: 60.2277px 260.245px;" id="elswo2v4shbw8" class="animable"></path><path d="M57.54,244.65c-1.42,3.37-3.88,9.3-4.77,20.66,0,0-.06,0-.07,0a39,39,0,0,1,4.68-20.73C57.49,244.38,57.64,244.42,57.54,244.65Z" style="fill: rgb(38, 50, 56); transform-origin: 55.1081px 254.881px;" id="elibsa4pxnjdo" class="animable"></path><path d="M54.1,242.29c-2.2,5.82-2.86,9.77-3.64,16.24,0,0-.07,0-.07,0,.12-7.45,1-10.15,3.52-16.35C54,242,54.18,242.06,54.1,242.29Z" style="fill: rgb(38, 50, 56); transform-origin: 52.255px 250.302px;" id="elbeosc7lp68c" class="animable"></path></g><defs>     <filter id="active" height="200%">         <feMorphology in="SourceAlpha" result="DILATED" operator="dilate" radius="2"></feMorphology>                <feFlood flood-color="#32DFEC" flood-opacity="1" result="PINK"></feFlood>        <feComposite in="PINK" in2="DILATED" operator="in" result="OUTLINE"></feComposite>        <feMerge>            <feMergeNode in="OUTLINE"></feMergeNode>            <feMergeNode in="SourceGraphic"></feMergeNode>        </feMerge>    </filter>    <filter id="hover" height="200%">        <feMorphology in="SourceAlpha" result="DILATED" operator="dilate" radius="2"></feMorphology>                <feFlood flood-color="#ff0000" flood-opacity="0.5" result="PINK"></feFlood>        <feComposite in="PINK" in2="DILATED" operator="in" result="OUTLINE"></feComposite>        <feMerge>            <feMergeNode in="OUTLINE"></feMergeNode>            <feMergeNode in="SourceGraphic"></feMergeNode>        </feMerge>            <feColorMatrix type="matrix" values="0   0   0   0   0                0   1   0   0   0                0   0   0   0   0                0   0   0   1   0 "></feColorMatrix>    </filter></defs></svg>