<?xml version="1.0" encoding="utf-8"?>
<!-- Generator: Adobe Illustrator 26.4.1, SVG Export Plug-In . SVG Version: 6.00 Build 0)  -->
<svg version="1.1" id="Capa_1" xmlns="http://www.w3.org/2000/svg" xmlns:xlink="http://www.w3.org/1999/xlink" x="0px" y="0px"
	 viewBox="0 0 821.7 254.4" style="enable-background:new 0 0 821.7 254.4;" xml:space="preserve">
<style type="text/css">
	.st0{fill:#FFFFFF;}
</style>
<path class="st0" d="M226.4,116.3c0-22.4,0-43.5,0-64.7c-0.3-0.1-0.5-0.1-0.8-0.2c-4.2,11.3-8.3,22.6-12.5,33.8
	c-3.2,8.7-6.6,17.4-9.5,26.3c-1.2,3.7-3.3,5-7,4.8c-6-0.3-13.2,1.5-17.5-1.2c-4-2.6-5-10-7-15.4c-5.9-15.7-11.6-31.5-18.1-47.3
	c0,1.5,0,3,0,4.6c0,18-0.1,36,0.1,54c0,3.9-1.3,5.4-5.1,5.3c-5.7-0.1-11.3-0.1-17,0c-3.3,0.1-4.7-1.1-4.7-4.7
	c0.1-29.5,0.1-59,0-88.5c0-3.9,1.6-4.9,5-4.9c10.7,0.1,21.3,0.1,32,0c3.4,0,5,1.4,6.1,4.5c6.4,18,13,36,19.9,54.8
	c2.6-7,4.8-13.1,7.1-19.2c4.3-11.9,8.7-23.7,12.8-35.7c1.1-3.2,2.8-4.5,6.1-4.4c10.5,0.1,21,0.1,31.5,0c3.8-0.1,5.3,1.3,5.2,5.3
	c-0.1,29.2-0.1,58.3,0,87.5c0,3.9-1.4,5.4-5.2,5.3C240.8,116.2,233.8,116.3,226.4,116.3z"/>
<path class="st0" d="M773.5,73.7c0-15.3,0-30.6,0-45.8c0-9.5,0-9.5,9.5-9.5c4,0,8,0.2,12-0.1c4.5-0.3,5.8,1.7,5.7,5.9
	c-0.1,17.2-0.1,34.3-0.1,51.5c0,11.7-0.2,23.3,0.1,35c0.1,4.4-1.6,5.9-5.9,5.7c-7.2-0.2-14.3-0.2-21.5,0c-3.6,0.1-5.8-1.2-7.7-4.2
	c-11.3-17.3-22.8-34.5-34.2-51.7c-0.5-0.8-1.1-1.6-2.4-3.5c0,9.4,0,17.6,0,25.9c0,9.7,0.1,19.3-0.1,29c0,1.5-1.7,4.1-2.7,4.1
	c-7.8,0.3-15.6,0.2-24,0.2c0-2.3,0-4,0-5.6c0-28.8,0.1-57.7-0.1-86.5c0-4.4,1.3-5.9,5.6-5.8c7.7,0.2,15.3,0.2,23,0
	c3.4-0.1,5.5,1.2,7.3,4.1c10.4,15.9,21,31.6,31.6,47.4c0.9,1.4,1.9,2.7,2.8,4.1C772.8,73.8,773.2,73.7,773.5,73.7z"/>
<path class="st0" d="M502.1,205.2c10.4,11.4,20.4,22.3,31,33.9c-2.2,0.3-3.4,0.6-4.6,0.7c-2.2,0.1-4.3,0.1-6.5,0
	c-7.3-0.1-15.6,1.8-21.6-1c-6.1-2.8-10-10.3-14.9-15.8c-4.1-4.6-7.9-9.4-12.2-13.9c-1.3-1.4-3.6-2.1-5.5-2.5c-3.5-0.7-5.1,0.9-5,4.7
	c0.2,7.8-0.1,15.7,0.1,23.5c0.1,3.8-1.1,5.4-5.2,5.2c-5.6-0.3-11.3-0.3-17,0c-3.8,0.2-5.3-0.9-5.3-5c0.1-29.3,0.1-58.6,0-87.9
	c0-3.8,1.5-4.8,5-4.8c17.5,0.1,35-0.2,52.4,0.1c20.5,0.3,34.2,13.4,34.1,32c-0.1,13-7.5,23.8-19.5,28.7
	C505.9,203.6,504.4,204.3,502.1,205.2z M478.7,183.3c3.3,0,6.7,0,10,0c0.5,0,1,0,1.5,0c6.2-0.4,9.4-3.4,9.3-8.7
	c-0.1-5.2-3.5-8.6-9.4-8.8c-4.8-0.2-9.7-0.1-14.5-0.1c-13.9,0-13.9,0-12.8,13.8c0.2,2.8,1.3,3.9,4,3.8
	C470.7,183.3,474.7,183.3,478.7,183.3z"/>
<path class="st0" d="M435.5,81.3c10.4,11.4,20.4,22.3,30.7,33.6c-1.2,0.6-1.9,1.1-2.5,1.2c-9.2,0.1-18.3,0.2-27.5,0
	c-1.7,0-3.6-1.5-4.9-2.9c-8.1-9.1-16-18.3-24-27.5c-1.1-1.2-2.4-2.5-3.8-3c-5.6-1.6-7.4-0.1-7.4,5.8c0,7.7-0.1,15.3,0,23
	c0.1,3.1-0.8,4.7-4.1,4.7c-6.3-0.1-12.7,0-19,0c-2.7,0-3.8-1.1-3.8-3.9c0.1-30,0.1-60,0-90c0-2.8,1.1-4,3.8-3.9
	c20,0.3,40-0.1,59.9,1c14.2,0.8,25.4,12.3,27,25.3c2.1,16-5.1,28.9-19.2,34.7C439.2,79.9,437.7,80.5,435.5,81.3z M411.6,41.8
	c-16.4,0-16.4,0-15.5,14.4c0,0.3-0.1,0.8,0,1c0.9,0.9,1.9,2.6,2.8,2.6c8.5,0.1,17,0.3,25.4-0.3c6.1-0.5,9.3-4.4,8.9-9.3
	c-0.4-4.8-4.3-8.1-10.2-8.3C419.2,41.7,415.4,41.8,411.6,41.8z"/>
<path class="st0" d="M270.8,67.1c0-14.3,0.1-28.7-0.1-43c0-4.2,1.2-5.9,5.7-5.9c23.8,0.2,47.7,0.2,71.5,0c4.6,0,6.3,1.6,6,6.2
	c-0.3,4.1-0.2,8.3,0,12.5c0.2,3.7-1.2,5-5,4.9c-15.2-0.2-30.3,0.1-45.5-0.2c-4.6-0.1-6.1,1.4-5.4,5.7c0.1,1,0.1,2,0,3
	c-0.6,4,1.2,5.3,5.1,5.2c13.8-0.1,27.7-0.1,41.5,0c7.6,0,7.6,0,7.6,7.7c0,3.3-0.2,6.7,0.1,10c0.4,4.3-1,5.8-5.5,5.7
	c-14.3-0.3-28.7,0-43-0.2c-4.2-0.1-6,0.8-5.8,5.4c0.5,10.2-1.1,8.8,8.8,8.8c14,0.1,28,0.1,42-0.1c4-0.1,5.4,1.3,5.2,5.2
	c-0.2,4.2-0.3,8.3,0,12.5c0.3,4.5-1.7,5.8-5.8,5.7c-19.8-0.1-39.7,0-59.5,0c-3.8,0-7.7-0.2-11.5,0.1c-4.7,0.4-6.5-1.3-6.4-6.2
	C271,95.8,270.8,81.5,270.8,67.1z"/>
<path class="st0" d="M566,216.5c2.1,0,3.7,0,5.3,0c15,0,30,0.1,45,0c4,0,5.7,1.4,5.5,5.5c-0.3,4.7-0.1,9.3-0.1,14
	c0,2.7-1.2,3.8-3.9,3.8c-25-0.1-50-0.1-75,0c-4.1,0-4.1-2.4-4.1-5.2c0-15,0-30,0-45c0-13.8,0.1-27.7-0.1-41.5c0-4.3,1.1-6.2,5.9-6.1
	c23.8,0.2,47.6,0.2,71.5,0c4.4,0,6,1.4,5.7,5.8c-0.3,4.3-0.2,8.7,0,13c0.1,3.7-1.4,4.9-5,4.9c-15.2-0.1-30.3-0.1-45.5,0
	c-1.7,0-4.9,0.9-4.9,1.6c-0.3,3.7,0.1,7.5,0.6,11.2c0.1,0.4,2.7,0.6,4.2,0.6c14.3,0,28.7,0.2,43,0c4.4-0.1,6.5,1.1,6,5.9
	c-0.4,4-0.3,8,0,12c0.4,4.3-1,5.8-5.5,5.7c-13.5-0.3-27-0.1-40.5-0.1c-9.3,0-8-1.1-8.1,8.4C566,212.7,566,214.3,566,216.5z"/>
<path class="st0" d="M127.3,191c0-14.3,0.2-28.7-0.1-43c-0.1-4.8,1.6-5.9,6-5.9c23.7,0.2,47.3,0.2,71,0c4.2,0,6.2,1.1,5.8,5.6
	c-0.3,3.8-0.4,7.7,0,11.5c0.5,5-1.2,6.7-6.4,6.6c-14.7-0.3-29.3,0-44-0.2c-4.3-0.1-6.3,1.1-5.6,5.6c0.2,1,0.1,2,0,3
	c-0.6,3.9,1,5.2,5,5.2c14.3-0.2,28.7,0.1,43-0.2c5-0.1,7.1,1.4,6.7,6.5c-0.3,4.1-0.2,8.3-0.1,12.5c0.1,3.4-1.3,4.7-4.8,4.6
	c-14.7-0.1-29.3,0.1-44-0.2c-4.5-0.1-6.2,1-5.9,5.8c0.4,8.1,0.1,8.1,8.3,8.1c14,0,28,0.1,42,0c4.1,0,6.2,1,5.8,5.6
	c-0.4,4.5-0.2,9-0.1,13.5c0.1,2.9-0.8,4.3-4,4.2c-25-0.1-50-0.1-75,0c-3.8,0-3.7-2.2-3.7-4.9C127.3,220.3,127.3,205.6,127.3,191z"/>
<path class="st0" d="M123.5,116.1c-9.7,0-18.7,0.1-27.6-0.2c-1.3,0-2.9-2-3.6-3.4c-2.1-4.2-3.5-8.6-5.7-12.7
	c-0.7-1.4-2.8-2.9-4.3-2.9c-12.3-0.2-24.7-0.2-37,0c-1.6,0-3.9,1.7-4.7,3.2c-2.1,3.9-3.5,8.3-5.4,12.3c-0.6,1.4-2,3.4-3,3.5
	c-9.1,0.3-18.1,0.2-27.8,0.2c0.8-2.2,1.2-3.6,1.8-5c12.7-28.9,25.6-57.8,38.2-86.8c2-4.6,4.5-6.2,9.4-6c7.6,0.4,15.3-0.1,23,0.3
	c2,0.1,4.9,1.7,5.7,3.5c13.5,30,26.7,60.2,40,90.4C122.8,113.2,122.9,114.2,123.5,116.1z M51.3,73.7c8.6,0,16.3,0,24.5,0
	C71.8,64,68,54.8,63.6,44.4C59.3,54.8,55.4,64,51.3,73.7z"/>
<path class="st0" d="M579,116.3c1.5-3.7,2.5-6.1,3.5-8.5c12.3-28,24.8-56,37-84.1c1.7-3.9,3.8-5.7,8.2-5.5c8,0.3,16-0.1,24,0.3
	c2,0.1,4.9,1.7,5.7,3.5c13.6,30.2,26.9,60.5,40.2,90.8c0.3,0.7,0.4,1.6,0.8,3.5c-5.8,0-11.2,0.1-16.6,0c-16.3-0.2-11.8,2-18.2-12
	c-4.1-9.1-2-7.4-11.5-7.5c-10.3-0.1-20.7,0.1-31-0.1c-3.4-0.1-5.4,1-6.2,4.3c-0.1,0.3-0.2,0.6-0.4,0.9c-6,14.5-6,14.5-22,14.5
	C588.4,116.3,584.1,116.3,579,116.3z M638.5,44.4c-4.4,10.5-8.2,19.8-12.2,29.3c8.6,0,16.3,0,24.5,0C646.8,64,642.9,54.9,638.5,44.4
	z"/>
<path class="st0" d="M814.1,142.9c-3.4,7.4-6.2,14.1-9.6,20.5c-0.7,1.3-3.5,2.2-5.4,2.2c-12.7,0.2-25.3-0.1-38,0.3
	c-2.7,0.1-6.4,1.8-7.7,4c-2.7,4.3,0.7,9.1,6.1,9.2c7.8,0.3,15.7,0,23.5,0.2c3.8,0.1,7.7,0.4,11.4,1.2c12.2,2.6,19.3,10.6,21.3,23.4
	c1.8,11.9-3.6,25-13.8,30.4c-5.3,2.8-11.5,4.9-17.4,5.2c-17.1,0.7-34.3,0.2-51.5,0.3c-3.5,0-4.8-1.1-4.6-4.6c0.2-4.3,0.3-8.7,0-13
	c-0.4-4.5,1.5-5.8,5.7-5.8c13.8,0.1,27.7,0.1,41.5,0c2,0,4,0,6-0.1c4.2-0.2,7-2,7-6.7c0-4.3-2.5-6.8-7.4-6.9
	c-6.2-0.2-12.3,0.1-18.5-0.1c-5.1-0.2-10.4-0.2-15.4-1.1c-12.4-2.4-20.4-11.9-21.8-24.8c-1.4-13.5,5.2-25.8,17.4-30.8
	c5-2.1,10.6-3.4,15.9-3.6c17-0.5,34-0.2,51-0.2C810.9,142.2,812,142.5,814.1,142.9z"/>
<path class="st0" d="M720,142.2c-3.7,8-6.6,14.9-10.1,21.5c-0.6,1.2-3.3,1.9-5.1,2c-12,0.2-24,0.1-36,0.1c-1.5,0-3-0.1-4.5,0.1
	c-3.7,0.6-6.3,2.7-6.2,6.6c0,4.1,2.5,6.6,6.6,6.7c7.7,0.2,15.3,0,23,0.2c4.1,0.1,8.3,0.4,12.4,1.3c11.1,2.4,18.6,9.1,20.6,20.5
	c2.2,12.5-0.4,23.9-11.2,32.1c-5.8,4.3-12.4,6.5-19.6,6.5c-17,0.2-34,0-51,0.2c-3.9,0-4.9-1.4-4.7-5c0.2-4.3,0.3-8.7,0-13
	c-0.3-4.2,1.3-5.5,5.4-5.5c13.8,0.1,27.6,0.1,41.5,0c1.8,0,3.7,0,5.5-0.1c5.1-0.4,7.7-2.6,7.8-6.6c0.1-4.2-2.9-6.9-7.9-7.1
	c-5.2-0.1-10.3,0-15.5,0c-3.2,0-6.3,0-9.5,0c-16.6-0.3-28.9-10.4-30.1-24.8c-1.5-18.7,8.3-32.5,26-34.6c11.7-1.4,23.6-0.9,35.4-1.1
	C701.3,142.1,710,142.2,720,142.2z"/>
<path class="st0" d="M272.2,171c7.6-8.8,14.6-17.3,22.1-25.3c1.7-1.8,4.7-3.2,7.1-3.3c7.8-0.4,15.6-0.2,23.5-0.1
	c1.6,0,3.1,0.3,6.1,0.6C316.6,159,303,174.3,289.1,190c14.2,16.2,28.3,32.2,43,48.9c-1.8,0.4-2.8,0.9-3.8,0.9c-9,0.1-18,0.3-27-0.1
	c-2.3-0.1-5-1.7-6.5-3.5c-7.7-8.5-15-17.3-22.9-26.4c-7.6,8.8-15,17.1-22,25.7c-2.7,3.3-5.6,4.6-9.8,4.4c-8.8-0.3-17.6-0.1-26.4-0.1
	c-0.3-0.4-0.6-0.8-0.9-1.2c14-15.8,28-31.7,42.4-48c-13.9-15.7-27.7-31.3-42.3-47.8c2.6-0.3,3.9-0.6,5.3-0.6c8.3,0,16.7-0.3,25,0.1
	c2.4,0.1,5.4,1.5,7.1,3.4C257.6,153.8,264.6,162.2,272.2,171z"/>
<path class="st0" d="M333.7,190.8c0-14.3,0.1-28.6-0.1-43c0-4.3,1.4-5.8,5.8-5.8c17.3,0.2,34.6-0.1,52,0.1
	c27.3,0.4,43.1,25.8,30.6,49.1c-6.5,12.2-17.6,16.7-30.6,17.2c-8.6,0.3-17.3,0.2-26,0c-3.6-0.1-4.6,1.2-4.5,4.6
	c0.2,7.5,0,15,0.1,22.5c0,3-1.1,4.2-4.1,4.1c-4.8-0.1-9.7,0-14.5,0c-8.7,0-8.7,0-8.7-9C333.7,217.5,333.7,204.2,333.7,190.8z
	 M377.2,185.2C377.2,185.2,377.2,185.2,377.2,185.2c4,0,8,0.1,12-0.1c5.9-0.2,9.3-3.7,9.3-9.4c0.1-6-3.3-9.7-9.3-10
	c-4.5-0.2-9-0.1-13.5-0.1c-15.6,0-15.5,0-14.8,15.7c0.1,2.8,1,3.9,3.8,3.8C368.9,185.1,373,185.2,377.2,185.2z"/>
<path class="st0" d="M579.2,93c-3.8,8-7,14.9-10.4,21.6c-0.4,0.9-2.2,1.5-3.4,1.5c-10.2,0.2-20.3-0.3-29.7-4.9
	c-10.6-5.2-17.7-13.5-21.2-24.7c-4-12.7-4.2-25.7,0.2-38.3c6-17.5,19-27.1,37.1-29c11.7-1.2,23.6-0.6,35.4-1c3.7-0.1,5,1.5,4.8,5.1
	c-0.2,4.7-0.2,9.3,0,14c0.2,3.9-1.2,5.4-5.2,5.3c-8.2-0.2-16.3-0.1-24.5,0c-15.2,0.2-23.3,8.4-23.4,23.7c0,2.7-0.1,5.4,0.4,8
	c2.3,12.1,10.2,18.4,23.4,18.7C567.7,93.1,572.7,93,579.2,93z"/>
<path class="st0" d="M472.4,67.4c0-14.3,0.2-28.7-0.1-43c-0.1-5,1.7-6.4,6.3-6.2c5.3,0.3,10.7,0.2,16,0c3.6-0.1,5.1,1.2,5.1,4.9
	c-0.1,29.5-0.1,59,0,88.5c0,3.1-1.2,4.6-4.4,4.6c-6.2-0.1-12.3-0.1-18.5,0c-3.5,0.1-4.5-1.5-4.5-4.9
	C472.5,96.7,472.4,82.1,472.4,67.4z"/>
</svg>
