<svg version="1.2" xmlns="http://www.w3.org/2000/svg" viewBox="0 0 711 136" width="711" height="136"><style>.a{fill:#777}.b{fill:#fff}</style><path fill-rule="evenodd" class="a" d="m55.9 95.3l9 31.6c0.2 0.8-0.3 1.4-1.1 1.2-1.8-0.3-3.7-0.7-5.5-1.2-18.5-5.3-33.2-19.6-39-37.9-0.6-1.9-1.1-3.8-1.5-5.9-0.2-0.8 0.3-1.2 1.1-1zm0.7 25.2l-5.5-20.1-25-9c5.6 13.5 16.7 24.1 30.5 29.1z"/><path fill-rule="evenodd" class="a" d="m74 14.3c11.6 0 22.4 3.5 31.4 9.4l36.2-12.5c0.8-0.3 1.1 0.1 0.7 0.9l-16.9 34.2c3.8 7.7 5.9 16.3 5.9 25.4 0 28-20.1 51.4-46.7 56.4q-3 0.5-6.1 0.8c-0.8 0-1.2-0.5-0.8-1.3l52.5-104.9c0.4-0.7 0.1-1.1-0.7-0.8l-110.4 38.2c-0.8 0.3-1.3-0.2-1.1-1 0.4-2 1-3.9 1.6-5.8 7.7-22.7 29.2-39 54.4-39zm24.6 11.8c-7.4-4-15.8-6.2-24.6-6.2-21.2 0-39.5 12.7-47.5 31zm23.7 26.7l-34.5 68.8c21.9-6 38-26.1 38-49.9 0-6.7-1.3-13.1-3.5-18.9z"/><path class="b" d="m86.5 61.4l-32.1 27.3-47.8-17.1c-0.8-0.3-0.8-0.7 0-1l111.3-38.6c0.8-0.2 1.1 0.1 0.7 0.9l-46.8 93.6c-0.4 0.8-0.9 0.7-1.1-0.1l-8.9-33.2z"/><path fill-rule="evenodd" class="b" d="m158 98.7h-11.1v-55.7h11.1zm22.2 0h-10.6v-41.6h2.6l3.5 4.1q2.5-2.4 5.8-3.6 3.2-1.3 6.8-1.3 3.8 0 7.1 1.5 3.4 1.4 5.9 4 2.6 2.5 4 5.9 1.5 3.4 1.5 7.2v23.8h-10.6v-23.8q0-1.6-0.6-3-0.7-1.5-1.8-2.6-1-1.1-2.5-1.7-1.4-0.6-3-0.6-1.7 0-3.2 0.6-1.5 0.6-2.5 1.7-1.1 1.1-1.8 2.6-0.6 1.4-0.6 3zm76.7-21.1q0 4.6-1.7 8.7-1.7 4-4.5 6.9-2.9 2.9-6.8 4.6-3.8 1.7-8.3 1.7-4.4 0-8.2-1.7-3.9-1.7-6.8-4.6-2.9-2.9-4.5-6.9-1.7-4.1-1.7-8.7 0-4.7 1.7-8.8 1.6-4 4.5-6.9 2.9-3 6.8-4.6 3.8-1.7 8.2-1.7 4.5 0 8.3 1.6 3.9 1.5 6.8 4.4 2.8 2.9 4.5 7 1.7 4 1.7 9zm-10.7 0q0-2.6-0.8-4.6-0.9-2.1-2.3-3.6-1.5-1.5-3.4-2.3-1.9-0.8-4.1-0.8-2.1 0-4.1 0.8-1.9 0.8-3.3 2.3-1.4 1.5-2.2 3.6-0.8 2-0.8 4.6 0 2.4 0.8 4.5 0.8 2 2.2 3.5 1.4 1.5 3.3 2.4 2 0.9 4.1 0.9 2.2 0 4.1-0.8 1.9-0.8 3.4-2.3 1.4-1.5 2.3-3.6 0.8-2.1 0.8-4.6zm29.5 21.1l-15.8-41.5h12l9.1 25.9 9.1-25.9h12.1l-15.9 41.5zm72 0h-2.6l-4.1-5.7q-1.5 1.4-3.2 2.6-1.7 1.2-3.5 2-1.9 0.9-3.9 1.4-1.9 0.5-3.9 0.5-4.4 0-8.3-1.5-3.9-1.4-6.7-4.2-2.9-2.9-4.6-6.9-1.7-4.1-1.7-9.3 0-4.9 1.7-8.9 1.7-4.1 4.6-7 2.8-2.9 6.7-4.5 3.9-1.6 8.3-1.6 2 0 4 0.5 1.9 0.5 3.8 1.4 1.9 0.9 3.6 2.1 1.6 1.2 3.1 2.6l4.1-4.9h2.6zm-10.7-21.2q0-2.2-0.8-4.2-0.9-2.1-2.3-3.6-1.4-1.6-3.3-2.6-2-0.9-4.1-0.9-2.2 0-4.1 0.7-2 0.8-3.4 2.2-1.4 1.4-2.2 3.6-0.8 2.1-0.8 4.8 0 2.7 0.8 4.8 0.8 2.1 2.2 3.6 1.4 1.4 3.4 2.2 1.9 0.7 4.1 0.7 2.1 0 4.1-1 1.9-0.9 3.3-2.5 1.4-1.6 2.3-3.6 0.8-2 0.8-4.2zm42 21.2q-3.8 0-7.2-1.5-3.4-1.5-5.9-4-2.6-2.5-4-5.9-1.5-3.4-1.5-7.2v-12.4h-5.2v-10.5h5.2v-16.7h10.6v16.7h16v10.5h-16v12.4q0 1.6 0.6 3.1 0.6 1.4 1.7 2.5 1.1 1.1 2.6 1.8 1.4 0.6 3.1 0.6h8v10.6zm32.9-10.2q0.6 0.2 1.3 0.2 0.6 0.1 1.2 0.1 1.6 0 3-0.4 1.4-0.5 2.7-1.3 1.3-0.8 2.2-1.9 1-1.1 1.7-2.5l7.7 7.8q-1.5 2.1-3.4 3.7-1.9 1.7-4.1 2.9-2.3 1.1-4.7 1.7-2.5 0.6-5.1 0.6-4.4 0-8.2-1.6-3.9-1.6-6.8-4.5-2.9-3-4.6-7-1.6-4-1.6-8.8 0-4.9 1.6-9 1.7-4.1 4.6-7 2.9-2.8 6.8-4.4 3.8-1.6 8.2-1.6 2.6 0 5.1 0.6 2.5 0.6 4.7 1.8 2.2 1.2 4.2 2.8 1.9 1.7 3.4 3.8zm5.4-21.8q-0.7-0.3-1.4-0.4-0.7-0.1-1.5-0.1-2.2 0-4.1 0.8-1.9 0.8-3.3 2.3-1.5 1.5-2.3 3.6-0.8 2-0.8 4.6 0 0.6 0.1 1.4 0 0.7 0.2 1.5 0.1 0.7 0.3 1.4 0.2 0.7 0.5 1.3zm58.2-1.3l-7.8 7.8q-0.6-1.7-1.6-3-1-1.3-2.3-2.1-1.2-0.9-2.7-1.4-1.5-0.5-3-0.5-2.2 0-4.1 0.9-2 0.9-3.4 2.5-1.4 1.6-2.2 3.8-0.8 2.3-0.8 4.9 0 2.2 0.8 4.1 0.8 1.9 2.2 3.4 1.4 1.4 3.4 2.2 1.9 0.8 4.1 0.8 1.5 0 3-0.4 1.4-0.4 2.7-1.2 1.2-0.8 2.2-2 1-1.1 1.6-2.5l7.8 7.8q-1.5 2.1-3.4 3.8-1.9 1.6-4.2 2.8-2.2 1.2-4.7 1.8-2.4 0.6-5 0.6-4.4 0-8.3-1.7-3.8-1.6-6.7-4.5-2.9-2.9-4.6-6.7-1.7-3.9-1.7-8.3 0-4.7 1.7-8.9 1.7-4.1 4.6-7.2 2.9-3.1 6.7-4.9 3.9-1.8 8.3-1.8 2.6 0 5.1 0.7 2.5 0.6 4.7 1.9 2.3 1.3 4.2 3.1 2 1.8 3.4 4.2zm70.5-5.7q0 3.5-1.3 6.5-1.4 3.1-3.6 5.3-2.3 2.3-5.3 3.6-3.1 1.3-6.5 1.3h-5.6q-1.2 0-2.2 0.5-1 0.4-1.7 1.1-0.8 0.8-1.2 1.8-0.4 1-0.4 2.2v5.5h26.3v11.2h-37.5v-16.7q0-3.5 1.3-6.5 1.4-3.1 3.6-5.3 2.3-2.3 5.3-3.6 3-1.3 6.5-1.3h5.6q1.2 0 2.2-0.4 1-0.5 1.7-1.2 0.8-0.8 1.2-1.8 0.4-1 0.4-2.2 0-1.2-0.4-2.2-0.4-1-1.2-1.7-0.7-0.8-1.7-1.2-1-0.4-2.2-0.4h-19.9v-11.2h19.9q3.4 0 6.5 1.3 3 1.4 5.3 3.6 2.2 2.3 3.6 5.3 1.3 3.1 1.3 6.5zm53.1 11.1q0 8-1.7 13.4-1.8 5.5-4.8 8.9-3 3.4-7.1 4.9-4 1.5-8.6 1.5-4.7 0-8.7-1.6-4.1-1.5-7.1-4.9-3-3.4-4.7-8.9-1.8-5.4-1.8-13.3 0-7.9 1.8-13.3 1.7-5.5 4.7-8.9 3-3.3 7.1-4.8 4-1.6 8.7-1.6 4.6 0 8.6 1.6 4.1 1.5 7.1 4.9 3 3.4 4.8 8.9 1.7 5.4 1.7 13.2zm-10.6 0q0-9.2-3-13.7-3.1-4.5-8.6-4.5-5.5 0-8.5 4.4-3.1 4.5-3.1 13.8 0 9.3 3.1 13.8 3 4.5 8.5 4.5 2.7 0 4.9-1.1 2.2-1.1 3.7-3.3 1.5-2.3 2.2-5.7 0.8-3.5 0.8-8.2zm64.1 0q0 8-1.8 13.4-1.7 5.5-4.7 8.9-3.1 3.4-7.1 4.9-4.1 1.5-8.7 1.5-4.6 0-8.7-1.6-4-1.5-7-4.9-3.1-3.4-4.8-8.9-1.8-5.4-1.8-13.3 0-7.9 1.8-13.3 1.7-5.5 4.8-8.9 3-3.3 7-4.8 4.1-1.6 8.7-1.6 4.6 0 8.7 1.6 4 1.5 7.1 4.9 3 3.4 4.7 8.9 1.8 5.4 1.8 13.2zm-10.6 0q0-9.2-3.1-13.7-3.1-4.5-8.6-4.5-5.5 0-8.5 4.4-3 4.5-3 13.8 0 9.3 3 13.8 3 4.5 8.5 4.5 2.7 0 4.9-1.1 2.2-1.1 3.7-3.3 1.5-2.3 2.3-5.7 0.8-3.5 0.8-8.2zm64 0q0 8-1.7 13.4-1.8 5.5-4.8 8.9-3 3.4-7.1 4.9-4.1 1.5-8.7 1.5-4.6 0-8.7-1.6-4-1.5-7-4.9-3-3.4-4.8-8.9-1.7-5.4-1.7-13.3 0-7.9 1.7-13.3 1.8-5.5 4.8-8.9 3-3.3 7-4.8 4.1-1.6 8.7-1.6 4.6 0 8.7 1.6 4.1 1.5 7.1 4.9 3 3.4 4.8 8.9 1.7 5.4 1.7 13.2zm-10.6 0q0-9.2-3.1-13.7-3.1-4.5-8.6-4.5-5.5 0-8.5 4.4-3 4.5-3 13.8 0 9.3 3 13.8 3 4.5 8.5 4.5 2.8 0 5-1.1 2.1-1.1 3.6-3.3 1.5-2.3 2.3-5.7 0.8-3.5 0.8-8.2z"/></svg>