<?xml version="1.0" encoding="utf-8"?>
<!-- Generator: Adobe Illustrator 26.4.1, SVG Export Plug-In . SVG Version: 6.00 Build 0)  -->
<svg version="1.1" id="Capa_1" xmlns="http://www.w3.org/2000/svg" xmlns:xlink="http://www.w3.org/1999/xlink" x="0px" y="0px"
	 viewBox="0 0 334.6 74.7" style="enable-background:new 0 0 334.6 74.7;" xml:space="preserve">
<style type="text/css">
	.st0{fill:#234EDB;}
	.st1{fill:#F3750D;}
	.st2{fill:#F6F4F1;}
</style>
<path id="text" class="st0" d="M6.2,8.7h12.1v53.8H6.2V8.7z M30,23.1c2-0.6,4.5-1.1,7.6-1.6s6.4-0.7,9.8-0.7c3.5,0,6.4,0.5,8.7,1.4
	s4.1,2.2,5.5,3.8c1.3,1.7,2.3,3.6,2.9,5.9s0.9,4.8,0.9,7.6v23.1H53.8V40.9c0-3.7-0.5-6.4-1.5-7.9c-1-1.6-2.8-2.3-5.5-2.3
	c-0.8,0-1.7,0-2.6,0.1s-1.8,0.2-2.5,0.3v31.5H30.1L30,23.1L30,23.1z M145.6,63.5c-2.6-5.2-5.3-11.2-8-18.2
	c-2.7-6.9-5.3-14.5-7.7-22.7h12.3c0.5,2,1.1,4.2,1.8,6.6s1.4,4.7,2.2,7.1s1.5,4.7,2.3,7s1.5,4.3,2.2,6.2c0.7-1.9,1.4-3.9,2.2-6.2
	c0.8-2.3,1.5-4.6,2.3-7s1.5-4.8,2.2-7.1c0.7-2.4,1.3-4.5,1.8-6.6h12c-2.4,8.2-5,15.7-7.7,22.7c-2.7,6.9-5.4,13-8,18.2H145.6z
	 M192,55.4c1.1,0,2.2,0,3.3-0.1c1-0.1,1.9-0.1,2.5-0.2v-8.7c-0.5-0.1-1.2-0.2-2.1-0.3c-0.9-0.1-1.8-0.2-2.6-0.2
	c-1.1,0-2.1,0.1-3.1,0.2s-1.8,0.4-2.5,0.7c-0.7,0.4-1.3,0.9-1.7,1.5s-0.6,1.4-0.6,2.3c0,1.8,0.6,3.1,1.8,3.8
	C188.2,55.1,189.9,55.4,192,55.4z M191.1,21.6c3.4,0,6.3,0.4,8.5,1.2s4.1,1.9,5.5,3.3s2.3,3.2,2.9,5.3c0.6,2.1,0.9,4.4,0.9,6.9v24.1
	c-1.7,0.4-4,0.8-6.9,1.3c-3,0.5-6.5,0.7-10.7,0.7c-2.6,0-5-0.2-7.2-0.7c-2.1-0.5-4-1.2-5.6-2.3c-1.6-1.1-2.7-2.4-3.6-4.2
	s-1.2-3.8-1.2-6.3c0-2.4,0.5-4.4,1.4-6.1c1-1.7,2.2-3,3.8-4s3.4-1.7,5.5-2.1s4.2-0.7,6.4-0.7c1.5,0,2.8,0.1,4,0.2s2.1,0.3,2.8,0.5
	v-1.1c0-2-0.6-3.5-1.8-4.7c-1.2-1.2-3.3-1.8-6.2-1.8c-2,0-3.9,0.1-5.8,0.4c-1.9,0.3-3.6,0.7-5,1.2l-1.5-9.3c0.7-0.2,1.5-0.4,2.5-0.7
	c1-0.2,2.1-0.4,3.3-0.6s2.4-0.3,3.8-0.5C188.4,21.6,189.8,21.6,191.1,21.6z M219,12.5l11.6-1.9v12h13.9v9.6h-13.9v14.4
	c0,2.4,0.4,4.4,1.3,5.8s2.6,2.2,5.2,2.2c1.2,0,2.5-0.1,3.8-0.3c1.3-0.2,2.5-0.6,3.6-1l1.6,9c-1.4,0.6-3,1.1-4.7,1.5
	s-3.8,0.6-6.3,0.6c-3.2,0-5.8-0.4-7.8-1.3c-2.1-0.9-3.7-2-5-3.6c-1.2-1.5-2.1-3.4-2.6-5.6s-0.7-4.6-0.7-7.2L219,12.5L219,12.5z
	 M250.4,43.4c0-3.6,0.6-6.8,1.7-9.5c1.1-2.7,2.6-5,4.4-6.8c1.8-1.8,3.9-3.2,6.3-4.1c2.4-0.9,4.8-1.4,7.3-1.4
	c5.8,0,10.4,1.8,13.7,5.3s5,8.8,5,15.6c0,0.7,0,1.4-0.1,2.2c-0.1,0.8-0.1,1.5-0.2,2.1h-26.3c0.3,2.4,1.4,4.3,3.3,5.7
	c2,1.4,4.6,2.1,7.9,2.1c2.1,0,4.2-0.2,6.3-0.6c2-0.4,3.7-0.9,5-1.4l1.6,9.4c-0.6,0.3-1.4,0.6-2.5,0.9c-1,0.3-2.2,0.6-3.5,0.8
	c-1.3,0.2-2.6,0.4-4.1,0.6c-1.4,0.2-2.9,0.2-4.3,0.2c-3.7,0-6.9-0.5-9.6-1.6c-2.7-1.1-5-2.6-6.8-4.5c-1.8-1.9-3.1-4.1-4-6.7
	C250.8,49.2,250.4,46.4,250.4,43.4z M277.5,39c-0.1-1-0.2-1.9-0.5-2.9s-0.7-1.8-1.3-2.5s-1.3-1.3-2.3-1.8c-0.9-0.5-2-0.7-3.4-0.7
	c-1.3,0-2.4,0.2-3.3,0.7c-0.9,0.5-1.7,1-2.3,1.7s-1.1,1.6-1.4,2.5c-0.3,1-0.6,1.9-0.7,2.9L277.5,39L277.5,39z M295.7,43.1
	c0-3,0.5-5.7,1.4-8.3c1-2.6,2.3-4.9,4.2-6.8c1.8-1.9,4-3.5,6.6-4.6s5.5-1.7,8.9-1.7c2.2,0,4.2,0.2,6,0.6s3.6,0.9,5.3,1.7l-2.4,9.2
	c-1.1-0.4-2.3-0.8-3.6-1.1c-1.3-0.3-2.7-0.5-4.3-0.5c-3.4,0-6,1.1-7.6,3.2s-2.5,4.9-2.5,8.4c0,3.7,0.8,6.5,2.4,8.5
	c1.6,2,4.3,3,8.3,3c1.4,0,2.9-0.1,4.5-0.4s3.1-0.7,4.4-1.2l1.6,9.5c-1.3,0.6-3,1.1-5,1.5s-4.2,0.6-6.7,0.6c-3.7,0-6.9-0.6-9.6-1.7
	c-2.7-1.1-4.9-2.6-6.6-4.5c-1.7-1.9-3-4.2-3.8-6.8C296.1,49,295.7,46.1,295.7,43.1z"/>
<path class="st1" d="M75.1,54.5c-1.3-1.6-2.1-3.2-3-4.7c-0.4-0.6-0.4-1.3,0.2-1.9c0.1-0.1,0.2-0.3,0.3-0.4c3.5-2.1,3.5-5.3,2.7-8.8
	c-0.2-1-0.6-1.7-1.5-2.1c-1.2-0.6-2.4-1.3-3.7-1.9c-0.9-0.4-1-1-0.9-1.8c0.1-0.5,0.2-1,0.3-1.5c0.8-3.5,0.8-3.6,4.3-3.7
	c2,0,3.4-0.5,3.9-2.6c0-0.1,0-0.1,0.1-0.2c2.8-2.8,1.6-5.6-0.1-8.3c-0.7-1.2-0.3-1.6,0.5-2.2c0.2-0.1,0.4-0.3,0.5-0.4
	c3.6-2.8,3.6-2.8,7.2,0c0.9,0.7,1.7,0.8,2.5,0.6c1.6-0.5,3.2-1.2,4.8-1.8c0.6-0.2,0.6-0.8,0.8-1.3c0.5-1.4,1-2.9,1.4-4.4
	c0.2-0.8,0.8-0.8,1.3-0.8c1.3,0,2.6,0,3.9,0c0.7,0,1.1,0.3,1.4,1c0.5,1.4,0.7,2.8,1,4.2c0.2,0.9,0.8,1.5,1.7,1.7
	c1.4,0.4,2.8,0.8,4.1,1.3c1.8,0.6,3.3-0.7,4.5-1.7c1.8-1.5,1.8-1.7,4,0.2c2.7,2.3,2.8,2.4,1.2,5.5c-1.1,2.2-0.5,3.8,0.5,5.8
	c1.3,2.7,3.1,3.5,5.7,3.4c1.6-0.1,2.8,0.4,2.8,2.5c0,0.7,0.1,1.4,0.4,2.2c0.4,0.9-0.2,1.7-0.9,2.2c-0.3,0.2-0.7,0.5-1,0.6
	c-3.7,1.1-4,4.2-4.4,7.3c-0.1,1,0,1.7,0.8,2.5c3.8,4,3.7,3.2,0,9.3c-1.5-1.2-3.6-0.8-5.2-2c-0.5-0.4-0.8,0.2-1.2,0.5
	c-1.3,1.2-2.5,2.4-3.9,3.4c-0.8,0.5-0.8,1.4-0.7,2.2c0.1,1.2,0.1,2.3,0.2,3.5c0.2,1.3-0.4,2-1.6,2.4c-4.3,1.5-4.3,1.6-6.9-2.4
	c-0.8-1.3-1.7-1.7-3.1-1.5c-0.6,0.1-1.2,0.2-1.7,0.1c-2.4-0.7-3.8,0.4-5,2.5c-0.5,1-1.1,2.4-2.3,2.4c-1.8-0.1-3.5-0.8-5.1-1.8
	c-0.4-0.3-0.4-0.8-0.3-1.3c1.3-4.1-0.6-6.8-3.8-8.9c-1-0.7-1.8-1.4-3.1-0.5C77.8,53.7,76.2,53.3,75.1,54.5z M80.9,35.8
	c-0.3,10.5,8.7,18.8,18,18.5c10.9-0.4,17.4-7.9,17.6-17.7c0.2-10.6-7.3-18.7-19.4-18.2c-4.4,0.2-8.1,2.4-11.1,5.5
	C82.9,27.3,81,31.2,80.9,35.8z"/>
<path class="st2" d="M80.9,35.8C81,31.2,83,27.3,86,24c2.9-3.2,6.6-5.3,11.1-5.5c12.1-0.5,19.6,7.5,19.4,18.2
	c-0.2,9.8-6.7,17.3-17.6,17.7C89.6,54.7,80.5,46.3,80.9,35.8z M113.2,37c0-4.6-1.2-7.7-3.6-10.3c-1.3-1.5-3-1.8-4.2-0.8
	s-1.3,2.7,0.1,4.1c1.7,1.7,2,4.1,2.3,6.1c0.6,4.1-3.7,9-7.9,9.4c-3.9,0.4-7.7-1.5-9.3-5.1c-1.6-3.5-1.3-7,1.2-10.1
	c0.4-0.5,0.9-1.1,1.1-1.7c0.5-1.2,0-2.2-0.9-2.9c-0.9-0.7-2-0.8-3,0.1c-2.9,2.5-4.6,5.8-4.7,9.6c-0.2,6,2.3,10.9,7.6,13.7
	c4.8,2.6,9.6,2.5,14.4-0.5C111,45.7,113.1,41.5,113.2,37z M101.4,29.5L101.4,29.5c0-1.6,0-3.2,0-4.9c0-1.8-1.1-2.9-2.5-2.9
	c-1.5-0.1-2.6,1-2.7,2.8c-0.1,1.9-0.1,3.8-0.1,5.7c0,1.6,0,3.2,0.2,4.9c0.1,1.3,1.8,2.8,2.8,2.5c1.3-0.3,2.1-1.4,2.3-2.7
	c0.1-0.3,0-0.7,0-1C101.4,32.4,101.4,31,101.4,29.5z"/>
<path class="st1" d="M113.2,37c-0.1,4.4-2.2,8.7-6.9,11.7c-4.8,3.1-9.6,3.1-14.4,0.5c-5.3-2.8-7.8-7.7-7.6-13.7
	c0.1-3.8,1.8-7.1,4.7-9.6c1-0.8,2.1-0.8,3-0.1c0.9,0.7,1.4,1.7,0.9,2.9c-0.3,0.6-0.7,1.2-1.1,1.7c-2.5,3.1-2.8,6.6-1.2,10.1
	c1.6,3.5,5.4,5.5,9.3,5.1c4.2-0.4,8.5-5.3,7.9-9.4c-0.3-2.1-0.6-4.4-2.3-6.1c-1.4-1.4-1.3-3.1-0.1-4.1c1.2-1,2.9-0.7,4.2,0.8
	C112,29.3,113.2,32.4,113.2,37z"/>
<path class="st1" d="M101.4,29.5c0,1.4,0,2.9,0,4.3c0,0.3,0,0.7,0,1c-0.3,1.3-1.1,2.3-2.3,2.7c-1,0.3-2.6-1.2-2.8-2.5
	c-0.2-1.6-0.1-3.2-0.2-4.9c0-1.9-0.1-3.8,0.1-5.7c0.1-1.8,1.2-2.8,2.7-2.8c1.5,0.1,2.5,1.2,2.5,2.9
	C101.5,26.3,101.4,27.9,101.4,29.5L101.4,29.5z"/>
</svg>
