<?xml version="1.0" encoding="utf-8"?>
<!-- Generator: Adobe Illustrator 26.4.1, SVG Export Plug-In . SVG Version: 6.00 Build 0)  -->
<svg version="1.1" id="Capa_1" xmlns="http://www.w3.org/2000/svg" xmlns:xlink="http://www.w3.org/1999/xlink" x="0px" y="0px"
	 viewBox="0 0 354 56" style="enable-background:new 0 0 354 56;" xml:space="preserve">
<style type="text/css">
	.st0{fill:#6F645A;}
</style>
<path id="text_00000118389175238855519620000008003094071175440556_" class="st0" d="M8.3,41.1c3,0,4.5-2,4.5-6
	c0-1.2-0.1-2.3-0.4-3.2s-0.6-1.6-1.1-2.3c-0.5-0.6-1-1.2-1.5-1.7S8.6,27,8,26.5c-0.7-0.5-1.4-1.1-2.1-1.7s-1.2-1.4-1.7-2.3
	c-0.5-0.9-0.9-1.9-1.2-3.1c-0.3-1.2-0.4-2.7-0.4-4.4c0-3.5,0.6-6.3,1.8-8.3c1.2-2,2.9-3,5-3c1.2,0,2.4,0.3,3.4,0.8s1.7,1.1,2.2,1.7
	L14,11c-0.4-0.5-1-1-1.8-1.5s-1.8-0.7-2.8-0.7c-0.5,0-1.1,0.1-1.5,0.3c-0.5,0.2-0.9,0.6-1.2,1c-0.4,0.5-0.6,1.1-0.8,1.8
	s-0.3,1.6-0.3,2.5c0,1.1,0.1,2,0.3,2.7c0.2,0.7,0.5,1.4,0.9,1.9s0.8,1.1,1.4,1.5c0.5,0.5,1.1,0.9,1.7,1.4c0.9,0.7,1.7,1.4,2.4,2.1
	s1.4,1.5,1.9,2.5s1,2.1,1.2,3.5c0.3,1.3,0.4,3,0.4,4.9c0,3.5-0.7,6.2-2,8.1c-1.3,1.9-3.1,2.8-5.5,2.8c-0.8,0-1.5-0.1-2.2-0.3
	S4.8,45,4.3,44.7s-1-0.6-1.4-0.9C2.5,43.5,2.2,43.2,2,43l0.9-4.7C3.4,38.8,4,39.4,5,40S6.9,41.1,8.3,41.1z M33.9,30
	c0,2.4-0.2,4.6-0.5,6.5c-0.4,1.9-0.8,3.6-1.5,5c-0.6,1.4-1.4,2.5-2.3,3.2c-0.9,0.8-1.8,1.1-2.9,1.1s-2-0.4-2.9-1.1
	c-0.9-0.8-1.6-1.8-2.3-3.2c-0.6-1.4-1.1-3.1-1.5-5s-0.5-4.1-0.5-6.5s0.2-4.5,0.5-6.5c0.4-2,0.8-3.6,1.5-5c0.6-1.4,1.4-2.5,2.3-3.2
	c0.9-0.8,1.8-1.1,2.9-1.1s2,0.4,2.9,1.1c0.9,0.8,1.6,1.8,2.3,3.2c0.6,1.4,1.1,3.1,1.5,5C33.7,25.5,33.9,27.6,33.9,30z M31.1,30
	c0-3.4-0.4-6.1-1.2-8.1c-0.8-2-1.8-3-3.2-3s-2.4,1-3.2,3c-0.8,2-1.2,4.7-1.2,8.1c0,3.4,0.4,6.1,1.2,8.1c0.8,2,1.8,3,3.2,3
	s2.4-1,3.2-3S31.1,33.4,31.1,30z M43.8,45.7c-1.7-0.1-2.9-0.8-3.6-2.2s-1.1-3.5-1.1-6.3V0.9L41.8,0v36.3c0,0.9,0,1.6,0.1,2.2
	c0.1,0.6,0.2,1,0.4,1.4c0.2,0.3,0.4,0.6,0.7,0.8c0.3,0.2,0.7,0.3,1.1,0.4L43.8,45.7z M60.9,44.2c-0.6,0.3-1.5,0.6-2.5,1
	c-1,0.3-2.2,0.5-3.6,0.5c-1.2,0-2.2-0.3-3-1s-1.4-1.6-1.9-2.9c-0.5-1.2-0.8-2.7-1.1-4.4c-0.2-1.7-0.3-3.6-0.3-5.6v-17h2.7v15.8
	c0,3.7,0.3,6.3,0.9,7.9c0.6,1.6,1.6,2.4,3,2.4c0.3,0,0.6,0,0.9-0.1c0.3,0,0.6-0.1,0.9-0.1c0.3-0.1,0.5-0.1,0.7-0.2
	c0.2-0.1,0.4-0.1,0.5-0.2V14.8h2.7L60.9,44.2L60.9,44.2z M73.7,45.8c-1.2,0-2.3-0.4-3.2-1.2c-0.9-0.8-1.7-1.9-2.3-3.3
	c-0.6-1.4-1.1-3.1-1.4-5s-0.5-4-0.5-6.4s0.2-4.5,0.5-6.4s0.8-3.6,1.5-5s1.4-2.5,2.3-3.3s1.9-1.2,3-1.2c0.7,0,1.4,0.1,2.1,0.3
	s1.3,0.6,2,1.1L77.1,20c-0.4-0.4-0.9-0.7-1.4-0.9s-1.1-0.3-1.7-0.3c-1.5,0-2.7,0.9-3.5,2.8c-0.8,1.9-1.2,4.7-1.2,8.3
	c0,1.6,0.1,3.1,0.3,4.5c0.2,1.4,0.5,2.5,0.9,3.5s0.9,1.7,1.5,2.2s1.4,0.8,2.3,0.8c0.7,0,1.4-0.1,2-0.4c0.6-0.3,1-0.6,1.4-0.9
	l0.4,4.5c-0.2,0.2-0.4,0.4-0.7,0.6c-0.3,0.2-0.6,0.3-1,0.5c-0.4,0.1-0.8,0.3-1.2,0.3C74.5,45.8,74.1,45.8,73.7,45.8z M84.9,45.1
	h-2.7V14.9h2.7V45.1z M83.5,9.4c-0.5,0-0.9-0.3-1.2-1c-0.3-0.6-0.5-1.5-0.5-2.6s0.2-1.9,0.5-2.6c0.3-0.6,0.8-1,1.2-1
	c0.5,0,0.9,0.3,1.2,1c0.3,0.6,0.5,1.5,0.5,2.6S85,7.7,84.7,8.4C84.4,9.1,84,9.4,83.5,9.4z M104.5,30c0,2.4-0.2,4.6-0.5,6.5
	c-0.4,1.9-0.8,3.6-1.5,5s-1.4,2.5-2.3,3.2c-0.9,0.8-1.8,1.1-2.9,1.1c-1,0-2-0.4-2.9-1.1c-0.9-0.8-1.6-1.8-2.3-3.2s-1.1-3.1-1.5-5
	s-0.5-4.1-0.5-6.5s0.2-4.5,0.5-6.5c0.4-2,0.8-3.6,1.5-5c0.6-1.4,1.4-2.5,2.3-3.2c0.9-0.8,1.8-1.1,2.9-1.1c1,0,2,0.4,2.9,1.1
	c0.9,0.8,1.6,1.8,2.3,3.2c0.6,1.4,1.1,3.1,1.5,5C104.3,25.5,104.5,27.6,104.5,30z M101.7,30c0-3.4-0.4-6.1-1.2-8.1
	c-0.8-2-1.8-3-3.2-3c-1.3,0-2.4,1-3.2,3c-0.8,2-1.2,4.7-1.2,8.1c0,3.4,0.4,6.1,1.2,8.1c0.8,2,1.8,3,3.2,3c1.3,0,2.4-1,3.2-3
	C101.3,36.1,101.7,33.4,101.7,30z M109.8,15.8c0.6-0.3,1.5-0.6,2.5-1c1-0.3,2.2-0.5,3.6-0.5c1.2,0,2.2,0.3,3,1s1.4,1.6,1.9,2.8
	s0.8,2.7,1,4.4s0.3,3.6,0.3,5.6v17h-2.7V29.3c0-1.9-0.1-3.4-0.2-4.8c-0.1-1.3-0.3-2.4-0.6-3.2c-0.3-0.8-0.7-1.4-1.2-1.8
	c-0.5-0.4-1.1-0.6-1.8-0.6c-0.3,0-0.6,0-0.9,0.1c-0.3,0-0.6,0.1-0.9,0.1c-0.3,0.1-0.5,0.1-0.8,0.2c-0.2,0.1-0.4,0.1-0.5,0.2V45h-2.7
	L109.8,15.8L109.8,15.8z M127.3,30.1c0-2.7,0.2-5,0.6-7c0.4-2,0.9-3.7,1.6-5c0.6-1.3,1.4-2.3,2.2-3s1.7-1,2.6-1
	c2.1,0,3.6,1.3,4.7,3.8c1.1,2.5,1.6,6.4,1.6,11.6c0,0.2,0,0.5,0,0.9s0,0.7,0,1h-10.4c0.1,3.1,0.6,5.5,1.4,7.2s2.1,2.4,3.8,2.4
	c1,0,1.8-0.2,2.4-0.5c0.7-0.3,1.1-0.6,1.5-1l0.4,4.5c-0.3,0.3-0.9,0.7-1.7,1.1c-0.8,0.4-1.8,0.6-2.8,0.6c-1.3,0-2.5-0.4-3.4-1.2
	c-1-0.8-1.8-1.9-2.4-3.3c-0.6-1.4-1.1-3.1-1.4-5C127.4,34.4,127.3,32.3,127.3,30.1z M137.8,27.1c0-2.4-0.3-4.4-0.9-6
	s-1.5-2.4-2.6-2.4c-0.6,0-1.2,0.2-1.7,0.7s-0.9,1.1-1.2,1.9c-0.3,0.8-0.6,1.7-0.8,2.7s-0.3,2-0.4,3.1H137.8z M149.6,41.2
	c1.1,0,1.9-0.3,2.5-0.9c0.5-0.6,0.8-1.5,0.8-2.8s-0.3-2.4-0.8-3.1c-0.5-0.8-1.4-1.6-2.6-2.6c-0.6-0.5-1.1-0.9-1.7-1.4
	c-0.5-0.5-1-1.1-1.4-1.7c-0.4-0.7-0.7-1.5-0.9-2.4s-0.4-2.1-0.4-3.4c0-2.7,0.5-4.8,1.5-6.4c1-1.6,2.4-2.4,4.1-2.4
	c0.4,0,0.9,0,1.3,0.1c0.4,0.1,0.8,0.2,1.2,0.3s0.7,0.3,1,0.4c0.3,0.2,0.5,0.3,0.7,0.4l-0.5,4.7c-0.3-0.3-0.8-0.6-1.4-1
	c-0.6-0.3-1.4-0.5-2.3-0.5c-0.8,0-1.4,0.3-2,0.9c-0.6,0.6-0.9,1.5-0.9,2.8c0,0.7,0.1,1.2,0.2,1.7c0.1,0.5,0.3,1,0.6,1.4
	s0.6,0.8,1,1.1s0.9,0.7,1.4,1.1c0.7,0.5,1.4,1.1,1.9,1.6c0.6,0.5,1.1,1.1,1.5,1.8s0.7,1.5,0.9,2.5s0.3,2.2,0.3,3.6
	c0,2.8-0.5,4.9-1.6,6.3c-1,1.4-2.5,2.2-4.5,2.2c-1.4,0-2.4-0.2-3.2-0.7c-0.8-0.4-1.3-0.8-1.6-1l0.5-4.7c0.3,0.2,0.8,0.6,1.5,1
	C147.5,41,148.4,41.2,149.6,41.2z M171.4,14.9h5.8v4.5h-5.8v14c0,1.5,0.1,2.8,0.2,3.8c0.1,1,0.3,1.8,0.5,2.3c0.2,0.6,0.5,1,0.9,1.2
	s0.8,0.3,1.2,0.3c0.8,0,1.5-0.2,2-0.6c0.5-0.4,0.8-0.6,1-0.8l0.5,4.5c-0.3,0.3-0.8,0.6-1.4,1s-1.5,0.6-2.3,0.6c-1,0-1.9-0.3-2.6-0.8
	c-0.7-0.5-1.2-1.3-1.6-2.4c-0.4-1-0.7-2.3-0.9-3.9c-0.2-1.5-0.2-3.3-0.2-5.3v-27l2.7-0.9L171.4,14.9L171.4,14.9z M180.9,30.1
	c0-2.7,0.2-5,0.6-7c0.4-2,0.9-3.7,1.6-5c0.6-1.3,1.4-2.3,2.2-3s1.7-1,2.6-1c2.1,0,3.6,1.3,4.7,3.8c1.1,2.5,1.6,6.4,1.6,11.6
	c0,0.2,0,0.5,0,0.9s0,0.7,0,1h-10.4c0.1,3.1,0.6,5.5,1.4,7.2s2.1,2.4,3.8,2.4c1,0,1.8-0.2,2.4-0.5c0.7-0.3,1.1-0.6,1.5-1l0.4,4.5
	c-0.3,0.3-0.9,0.7-1.7,1.1c-0.8,0.4-1.8,0.6-2.8,0.6c-1.3,0-2.5-0.4-3.4-1.2c-1-0.8-1.8-1.9-2.4-3.3c-0.6-1.4-1.1-3.1-1.4-5
	C181.1,34.4,180.9,32.3,180.9,30.1z M191.4,27.1c0-2.4-0.3-4.4-0.9-6s-1.5-2.4-2.6-2.4c-0.6,0-1.2,0.2-1.7,0.7s-0.9,1.1-1.2,1.9
	c-0.3,0.8-0.6,1.7-0.8,2.7s-0.3,2-0.4,3.1H191.4z M206.3,45.8c-1.2,0-2.3-0.4-3.2-1.2s-1.7-1.9-2.3-3.3c-0.6-1.4-1.1-3.1-1.4-5
	c-0.3-1.9-0.5-4-0.5-6.4s0.2-4.5,0.5-6.4s0.8-3.6,1.5-5s1.4-2.5,2.3-3.3c0.9-0.8,1.9-1.2,3-1.2c0.7,0,1.4,0.1,2.1,0.3
	c0.7,0.2,1.3,0.6,2,1.1l-0.6,4.6c-0.4-0.4-0.9-0.7-1.4-0.9s-1.1-0.3-1.7-0.3c-1.5,0-2.7,0.9-3.5,2.8c-0.8,1.9-1.2,4.7-1.2,8.3
	c0,1.6,0.1,3.1,0.3,4.5s0.5,2.5,0.9,3.5s0.9,1.7,1.5,2.2s1.4,0.8,2.3,0.8c0.7,0,1.4-0.1,2-0.4c0.6-0.3,1-0.6,1.4-0.9l0.4,4.5
	c-0.2,0.2-0.4,0.4-0.7,0.6c-0.3,0.2-0.6,0.3-1,0.5c-0.4,0.1-0.8,0.3-1.2,0.3S206.7,45.8,206.3,45.8z M214.8,15.8
	c0.6-0.3,1.5-0.6,2.5-1c1-0.3,2.2-0.5,3.6-0.5c1.2,0,2.2,0.3,3,1s1.4,1.6,1.9,2.8s0.8,2.7,1,4.4s0.3,3.6,0.3,5.6v17h-2.7V29.3
	c0-1.9-0.1-3.4-0.2-4.8c-0.1-1.3-0.3-2.4-0.6-3.2s-0.7-1.4-1.2-1.8c-0.5-0.4-1.1-0.6-1.8-0.6c-0.3,0-0.6,0-0.9,0.1
	c-0.3,0-0.6,0.1-0.9,0.1c-0.3,0.1-0.5,0.1-0.8,0.2c-0.2,0.1-0.4,0.1-0.5,0.2V45h-2.7L214.8,15.8L214.8,15.8z M246.6,30
	c0,2.4-0.2,4.6-0.5,6.5c-0.4,1.9-0.8,3.6-1.5,5s-1.4,2.5-2.3,3.2c-0.9,0.8-1.8,1.1-2.9,1.1c-1,0-2-0.4-2.9-1.1
	c-0.9-0.8-1.6-1.8-2.3-3.2c-0.6-1.4-1.1-3.1-1.5-5s-0.5-4.1-0.5-6.5s0.2-4.5,0.5-6.5c0.4-2,0.8-3.6,1.5-5c0.6-1.4,1.4-2.5,2.3-3.2
	c0.9-0.8,1.8-1.1,2.9-1.1c1,0,2,0.4,2.9,1.1c0.9,0.8,1.6,1.8,2.3,3.2c0.6,1.4,1.1,3.1,1.5,5C246.4,25.5,246.6,27.6,246.6,30z
	 M243.7,30c0-3.4-0.4-6.1-1.2-8.1s-1.8-3-3.2-3c-1.3,0-2.4,1-3.2,3s-1.2,4.7-1.2,8.1c0,3.4,0.4,6.1,1.2,8.1s1.8,3,3.2,3
	c1.3,0,2.4-1,3.2-3S243.7,33.4,243.7,30z M256.4,45.7c-1.7-0.1-2.9-0.8-3.6-2.2c-0.7-1.4-1.1-3.5-1.1-6.3V0.9l2.7-0.9v36.3
	c0,0.9,0,1.6,0.1,2.2s0.2,1,0.4,1.4c0.2,0.3,0.4,0.6,0.7,0.8s0.7,0.3,1.1,0.4L256.4,45.7z M274.8,30c0,2.4-0.2,4.6-0.5,6.5
	c-0.4,1.9-0.8,3.6-1.5,5c-0.6,1.4-1.4,2.5-2.3,3.2c-0.9,0.8-1.8,1.1-2.9,1.1c-1,0-2-0.4-2.9-1.1c-0.9-0.8-1.6-1.8-2.3-3.2
	s-1.1-3.1-1.5-5s-0.5-4.1-0.5-6.5s0.2-4.5,0.5-6.5c0.4-2,0.8-3.6,1.5-5c0.6-1.4,1.4-2.5,2.3-3.2c0.9-0.8,1.8-1.1,2.9-1.1
	c1,0,2,0.4,2.9,1.1c0.9,0.8,1.6,1.8,2.3,3.2c0.6,1.4,1.1,3.1,1.5,5C274.6,25.5,274.8,27.6,274.8,30z M272,30c0-3.4-0.4-6.1-1.2-8.1
	s-1.8-3-3.2-3c-1.3,0-2.4,1-3.2,3s-1.2,4.7-1.2,8.1c0,3.4,0.4,6.1,1.2,8.1s1.8,3,3.2,3c1.3,0,2.4-1,3.2-3S272,33.4,272,30z
	 M271.2,3.4l-4.1,8L265.7,9l3.8-9L271.2,3.4z M289.7,42.1c-0.2,0.3-0.7,0.7-1.4,1.2s-1.5,0.7-2.4,0.7s-1.8-0.3-2.6-0.9
	s-1.5-1.5-2.1-2.7s-1.1-2.7-1.4-4.6s-0.5-4-0.5-6.5c0-2.2,0.2-4.2,0.5-6.1c0.3-1.8,0.8-3.4,1.5-4.8c0.6-1.3,1.4-2.4,2.3-3.1
	s2-1.1,3.1-1.1c1.3,0,2.4,0.2,3.3,0.6c0.9,0.4,1.7,0.7,2.4,1v27c0,4.7-0.6,8-1.8,10.1s-3.1,3.1-5.5,3.1c-1,0-1.9-0.2-2.7-0.5
	c-0.9-0.3-1.6-0.7-2.2-1.1l0.5-4.7c0.5,0.4,1.2,0.8,2,1.1s1.6,0.5,2.5,0.5c1.6,0,2.8-0.6,3.5-1.9c0.7-1.3,1.1-3.3,1.1-6.1
	L289.7,42.1L289.7,42.1z M289.7,19.7c-0.3-0.2-0.6-0.3-1.1-0.4c-0.5-0.1-1.1-0.2-1.9-0.2c-1.5,0-2.6,0.9-3.4,2.8
	c-0.8,1.9-1.2,4.4-1.2,7.6c0,1.7,0.1,3.2,0.3,4.5c0.2,1.2,0.5,2.3,0.9,3.1s0.8,1.4,1.3,1.8c0.5,0.4,1,0.6,1.5,0.6
	c0.7,0,1.4-0.2,2-0.6c0.6-0.4,1.1-0.9,1.4-1.4V19.7H289.7z M301.3,45.1h-2.7V14.9h2.7V45.1z M299.9,9.4c-0.5,0-0.9-0.3-1.2-1
	c-0.3-0.6-0.5-1.5-0.5-2.6s0.2-1.9,0.5-2.6c0.3-0.6,0.8-1,1.2-1c0.5,0,0.9,0.3,1.2,1c0.3,0.6,0.5,1.5,0.5,2.6s-0.2,1.9-0.5,2.6
	C300.8,9.1,300.4,9.4,299.9,9.4z M314.1,45.8c-1.2,0-2.3-0.4-3.2-1.2s-1.7-1.9-2.3-3.3c-0.6-1.4-1.1-3.1-1.4-5
	c-0.3-1.9-0.5-4-0.5-6.4s0.2-4.5,0.5-6.4s0.8-3.6,1.5-5c0.6-1.4,1.4-2.5,2.3-3.3c0.9-0.8,1.9-1.2,3-1.2c0.7,0,1.4,0.1,2.1,0.3
	c0.7,0.2,1.3,0.6,2,1.1l-0.6,4.6c-0.4-0.4-0.9-0.7-1.4-0.9s-1.1-0.3-1.7-0.3c-1.5,0-2.7,0.9-3.5,2.8c-0.8,1.9-1.2,4.7-1.2,8.3
	c0,1.6,0.1,3.1,0.3,4.5s0.5,2.5,0.9,3.5s0.9,1.7,1.5,2.2s1.4,0.8,2.3,0.8c0.7,0,1.4-0.1,2-0.4c0.6-0.3,1-0.6,1.4-0.9l0.4,4.5
	c-0.2,0.2-0.4,0.4-0.7,0.6c-0.3,0.2-0.6,0.3-1,0.5c-0.4,0.1-0.8,0.3-1.2,0.3C314.9,45.8,314.5,45.8,314.1,45.8z M327.7,41.2
	c0.6,0,1.2,0,1.7-0.1s0.9-0.2,1.2-0.3v-9c-0.2-0.2-0.5-0.4-1-0.5c-0.4-0.1-1-0.2-1.6-0.2c-0.4,0-0.8,0.1-1.3,0.2
	c-0.5,0.1-0.9,0.4-1.3,0.7c-0.4,0.4-0.7,0.9-1,1.5S324,35,324,36c0,1.9,0.3,3.3,0.9,4S326.7,41.2,327.7,41.2z M327.5,14.1
	c1.1,0,2,0.3,2.8,0.8s1.4,1.4,1.8,2.4c0.5,1,0.8,2.2,1,3.7c0.2,1.4,0.3,3,0.3,4.7v18.9c-0.2,0.1-0.6,0.2-1,0.3s-0.9,0.3-1.4,0.4
	c-0.5,0.1-1.1,0.2-1.7,0.3c-0.6,0.1-1.2,0.1-1.8,0.1c-0.9,0-1.7-0.2-2.4-0.5s-1.4-0.9-1.9-1.7s-0.9-1.8-1.2-3s-0.4-2.7-0.4-4.5
	c0-1.7,0.2-3.1,0.5-4.3s0.8-2.2,1.4-2.9c0.6-0.7,1.3-1.3,2.1-1.6s1.6-0.5,2.5-0.5c0.3,0,0.6,0,0.9,0.1c0.3,0.1,0.6,0.1,0.8,0.2
	c0.3,0.1,0.5,0.2,0.7,0.3s0.3,0.1,0.4,0.2V26c0-0.9,0-1.8-0.1-2.6c-0.1-0.9-0.3-1.6-0.5-2.3c-0.3-0.7-0.6-1.2-1-1.6
	c-0.4-0.4-1-0.6-1.7-0.6c-0.9,0-1.7,0.1-2.4,0.4s-1.2,0.5-1.5,0.8l-0.3-4.5c0.4-0.3,0.9-0.6,1.8-0.9S326.5,14.1,327.5,14.1z
	 M342.9,41.2c1.1,0,1.9-0.3,2.5-0.9c0.5-0.6,0.8-1.5,0.8-2.8s-0.3-2.4-0.8-3.1c-0.5-0.8-1.4-1.6-2.6-2.6c-0.6-0.5-1.1-0.9-1.7-1.4
	c-0.5-0.5-1-1.1-1.4-1.7c-0.4-0.7-0.7-1.5-0.9-2.4s-0.4-2.1-0.4-3.4c0-2.7,0.5-4.8,1.5-6.4c1-1.6,2.4-2.4,4.1-2.4
	c0.4,0,0.9,0,1.3,0.1c0.4,0.1,0.8,0.2,1.2,0.3s0.7,0.3,1,0.4c0.3,0.2,0.5,0.3,0.7,0.4l-0.5,4.7c-0.3-0.3-0.8-0.6-1.4-1
	c-0.6-0.3-1.4-0.5-2.3-0.5c-0.8,0-1.4,0.3-2,0.9c-0.6,0.6-0.9,1.5-0.9,2.8c0,0.7,0.1,1.2,0.2,1.7c0.1,0.5,0.3,1,0.6,1.4
	s0.6,0.8,1,1.1s0.9,0.7,1.4,1.1c0.7,0.5,1.4,1.1,1.9,1.6s1.1,1.1,1.5,1.8s0.7,1.5,0.9,2.5s0.3,2.2,0.3,3.6c0,2.8-0.5,4.9-1.6,6.3
	c-1,1.4-2.5,2.2-4.5,2.2c-1.4,0-2.4-0.2-3.2-0.7c-0.8-0.4-1.3-0.8-1.6-1l0.5-4.7c0.3,0.2,0.8,0.6,1.5,1
	C340.9,41,341.8,41.2,342.9,41.2z"/>
</svg>
