<svg version="1.2" xmlns="http://www.w3.org/2000/svg" viewBox="0 0 712 189" width="712" height="189"><style>.a{fill:#fd972b}.b{fill:#1d215e}</style><path fill-rule="evenodd" class="a" d="m75.4 131.8l13.4 47.1c0.3 1.2-0.4 2-1.6 1.8-2.7-0.5-5.5-1.2-8.2-1.9-27.6-7.8-49.5-29.2-58.1-56.4-1-2.9-1.7-5.8-2.3-8.8-0.3-1.2 0.4-1.9 1.6-1.5zm1.1 37.5l-8.1-29.9-37.4-13.4c8.3 20.1 24.8 35.9 45.5 43.3z"/><path fill-rule="evenodd" class="a" d="m102.3 10.9c17.4 0 33.5 5.2 47 14l53.9-18.6c1.2-0.4 1.6 0.2 1.1 1.3l-25.2 51.1c5.6 11.4 8.8 24.2 8.8 37.8 0 41.8-30.1 76.7-69.8 84.1-2.9 0.5-5.9 0.9-8.9 1.2-1.3 0.1-1.9-0.7-1.3-1.9l78.3-156.4c0.5-1.1 0.1-1.6-1.1-1.2l-164.6 56.9c-1.2 0.4-1.9-0.2-1.7-1.4 0.7-3 1.6-5.9 2.5-8.7 11.5-33.8 43.5-58.2 81-58.2zm36.7 17.6c-10.9-5.9-23.4-9.3-36.7-9.3-31.6 0-58.8 19.1-70.7 46.3zm35.2 39.8l-51.3 102.7c32.6-9.1 56.6-39 56.6-74.5 0-9.9-1.8-19.5-5.3-28.2z"/><path class="b" d="m121.1 81.2l-47.9 40.7-71.3-25.5c-1.2-0.4-1.2-1.1 0-1.5l165.9-57.5c1.2-0.4 1.7 0.1 1.1 1.3l-69.8 139.6c-0.5 1.1-1.3 1-1.6-0.2l-13.3-49.5z"/><path fill-rule="evenodd" class="b" d="m227.7 136.7h-16.6v-83h16.6zm33.1 0h-15.8v-61.9h3.8l5.2 6q3.8-3.5 8.7-5.4 4.8-1.9 10.1-1.9 5.6 0 10.7 2.2 5 2.2 8.8 6 3.7 3.8 5.9 8.8 2.2 5.1 2.2 10.8v35.4h-15.8v-35.4q0-2.4-1-4.6-0.9-2.2-2.5-3.8-1.6-1.6-3.8-2.5-2.1-0.9-4.5-0.9-2.5 0-4.7 0.9-2.2 0.9-3.8 2.5-1.7 1.6-2.6 3.8-0.9 2.2-0.9 4.6zm114.3-31.5q0 6.9-2.5 12.9-2.5 6-6.8 10.4-4.3 4.3-10 6.9-5.8 2.5-12.4 2.5-6.5 0-12.3-2.5-5.8-2.6-10.1-6.9-4.3-4.4-6.8-10.4-2.5-6-2.5-12.9 0-7.1 2.5-13.1 2.5-6 6.8-10.4 4.3-4.4 10.1-6.9 5.8-2.4 12.3-2.4 6.6 0 12.4 2.3 5.7 2.3 10 6.7 4.3 4.3 6.8 10.3 2.5 6.1 2.5 13.5zm-16 0q0-3.8-1.2-6.9-1.2-3.1-3.4-5.4-2.1-2.2-5-3.4-2.9-1.2-6.1-1.2-3.2 0-6.1 1.2-2.9 1.2-5 3.4-2.1 2.3-3.3 5.4-1.2 3.1-1.2 6.9 0 3.6 1.2 6.6 1.2 3.1 3.3 5.4 2.1 2.2 5 3.5 2.9 1.3 6.1 1.3 3.2 0 6.1-1.2 2.9-1.2 5-3.4 2.2-2.2 3.4-5.3 1.2-3.2 1.2-6.9zm44.1 31.5l-23.7-62h18l13.6 38.7 13.5-38.7h18l-23.6 62zm107.3 0h-3.8l-6.2-8.5q-2.2 2-4.7 3.8-2.6 1.8-5.3 3.1-2.8 1.3-5.7 2-3 0.8-6 0.8-6.5 0-12.3-2.2-5.7-2.2-10-6.4-4.3-4.2-6.8-10.3-2.5-6.1-2.5-13.8 0-7.3 2.5-13.3 2.5-6.1 6.8-10.4 4.3-4.3 10-6.7 5.8-2.4 12.3-2.4 3 0 6 0.7 3 0.8 5.7 2.1 2.8 1.3 5.3 3.1 2.5 1.8 4.7 3.9l6.2-7.4h3.8zm-15.9-31.5q0-3.2-1.3-6.3-1.2-3-3.3-5.4-2.2-2.3-5.1-3.7-2.8-1.4-6.1-1.4-3.2 0-6.1 1.1-2.8 1.1-4.9 3.2-2.2 2.1-3.4 5.3-1.2 3.2-1.2 7.2 0 4.1 1.2 7.2 1.2 3.2 3.4 5.3 2.1 2.1 4.9 3.2 2.9 1.1 6.1 1.1 3.3 0 6.1-1.4 2.9-1.4 5.1-3.7 2.1-2.4 3.3-5.4 1.3-3.1 1.3-6.3zm62.6 31.5q-5.8 0-10.8-2.1-5-2.2-8.8-6-3.8-3.8-6-8.8-2.1-5-2.1-10.8v-18.4h-7.7v-15.7h7.7v-24.8h15.7v24.8h24v15.7h-24v18.4q0 2.5 0.9 4.7 0.9 2.2 2.6 3.8 1.6 1.6 3.8 2.5 2.2 1 4.7 1h12v15.7zm49-15.1q0.9 0.3 1.9 0.4 0.9 0 1.8 0 2.3 0 4.5-0.6 2.1-0.6 4-1.8 1.9-1.2 3.3-2.9 1.5-1.7 2.4-3.8l11.6 11.6q-2.2 3.2-5 5.6-2.9 2.5-6.2 4.3-3.4 1.7-7 2.6-3.7 0.9-7.6 0.9-6.5 0-12.3-2.4-5.7-2.5-10.1-6.8-4.3-4.3-6.8-10.3-2.4-6-2.4-13.2 0-7.3 2.4-13.4 2.5-6.1 6.8-10.4 4.4-4.3 10.1-6.6 5.8-2.4 12.3-2.4 3.9 0 7.6 0.9 3.7 0.9 7 2.7 3.4 1.7 6.2 4.2 2.9 2.5 5.1 5.7zm8.1-32.6q-1.1-0.4-2.1-0.5-1.1-0.2-2.3-0.2-3.2 0-6.1 1.2-2.8 1.2-4.9 3.4-2.2 2.2-3.4 5.3-1.2 3.1-1.2 7 0 0.9 0.1 2 0.1 1.1 0.3 2.2 0.2 1.1 0.5 2.2 0.3 1 0.7 1.8zm86.8-1.9l-11.6 11.6q-0.9-2.4-2.4-4.3-1.5-2-3.4-3.3-1.8-1.3-4-2-2.2-0.7-4.6-0.7-3.2 0-6.1 1.3-2.8 1.3-4.9 3.7-2.2 2.4-3.4 5.7-1.2 3.3-1.2 7.3 0 3.3 1.2 6.1 1.2 2.8 3.4 5 2.1 2.1 4.9 3.3 2.9 1.3 6.1 1.3 2.4 0 4.5-0.7 2.1-0.6 4-1.8 1.9-1.2 3.4-2.9 1.5-1.7 2.4-3.8l11.6 11.6q-2.2 3.2-5.1 5.7-2.9 2.5-6.2 4.2-3.3 1.7-7 2.6-3.7 0.9-7.6 0.9-6.5 0-12.3-2.4-5.7-2.5-10-6.8-4.3-4.3-6.8-10-2.5-5.7-2.5-12.3 0-7.1 2.5-13.3 2.5-6.2 6.8-10.8 4.3-4.6 10-7.2 5.8-2.7 12.3-2.7 3.9 0 7.7 1 3.7 1 7.1 2.8 3.4 1.9 6.2 4.6 2.9 2.8 5 6.3z"/></svg>