<?xml version="1.0" encoding="utf-8"?>
<!-- Generator: Adobe Illustrator 26.4.1, SVG Export Plug-In . SVG Version: 6.00 Build 0)  -->
<svg version="1.1" id="Capa_1" xmlns="http://www.w3.org/2000/svg" xmlns:xlink="http://www.w3.org/1999/xlink" x="0px" y="0px"
	 viewBox="0 0 1000 1000" style="enable-background:new 0 0 1000 1000;" xml:space="preserve">
<style type="text/css">
	.st0{fill:#FF7400;}
	.st1{fill:#234EDB;}
	.st2{fill:#6F645A;}
	.st3{fill:#F6F4F1;}
	.st4{fill:#F3750D;}
</style>
<path class="st0" d="M275.2,540.2l-90.7,11.2l-0.1-127.7l151.1,11.2c0.1-3.3-0.2-6.4-0.7-9.2L175,410.9c-2.2-0.2-4.1,1.8-4.1,4.5
	v161.4c0,2.7,1.9,4.6,4.1,4.2l57.3-9.6C246.5,563.9,261.2,553.3,275.2,540.2z"/>
<path class="st1" d="M364.2,431.8c0-1.9-1.9-3.7-4.1-3.9l-5.1-0.4c-1-10.4-4.7-19.1-11.3-25.4c-18.4-17.5-55-12.1-91.8,12.3
	c-2.1,1.4,4.9-2.1,14.2-6c27.9-11.8,52.1-14.3,65.5-1.6c23,21.8,4.5,78.6-41.2,126.7c-45.8,48.2-101.5,69.6-124.5,47.8
	c-11.9-11.3-13.2-34.9-4.9-58.9c3.5-9.9,5.1-15,4.3-13.6c-18.7,35.1-20.7,68.5-3.5,84.9c17.7,16.8,51.5,11.8,87.1-9.4l-6.7,16.5
	c-2.2,5.4-0.1,8.5,4.9,6.9l56-16.9c4.6-1.3,6-4.6,3.2-7.4l-11.2-12.6l-36.3,7.3c6.2-4.2,12.5-8.9,18.6-14L361,550
	c2.2-0.4,4.1-2.2,4.1-4.2L364.2,431.8z M324.4,548.3c-1.8,0.3-3.2-0.8-3.2-2.4c0-1.6,1.4-3.1,3.2-3.4s3.2,0.8,3.2,2.4
	S326.1,548,324.4,548.3z M334.6,546.7c-1.8,0.3-3.2-0.8-3.2-2.4c0-1.6,1.4-3.1,3.2-3.3c1.8-0.3,3.2,0.8,3.2,2.4
	C337.8,544.9,336.3,546.5,334.6,546.7z M344.8,545.2c-1.8,0.3-3.2-0.8-3.2-2.4s1.4-3,3.2-3.3c1.8-0.3,3.2,0.8,3.2,2.4
	C348,543.4,346.6,544.9,344.8,545.2z M354.7,530.4l-48.7,6c30.5-34.2,48.2-71.8,49.2-100.1l1.2,0.1l0.7,93.7L354.7,530.4z"/>
<path id="text" class="st1" d="M391,429.3h12.1v53.8H391V429.3z M414.8,443.7c2-0.6,4.5-1.1,7.6-1.6c3.1-0.5,6.4-0.7,9.8-0.7
	c3.5,0,6.4,0.5,8.7,1.4s4.1,2.2,5.5,3.8c1.3,1.7,2.3,3.6,2.9,5.9c0.6,2.3,0.9,4.8,0.9,7.6v23.1h-11.6v-21.7c0-3.7-0.5-6.4-1.5-7.9
	c-1-1.6-2.8-2.3-5.5-2.3c-0.8,0-1.7,0-2.6,0.1c-0.9,0.1-1.8,0.2-2.5,0.3v31.5h-11.6V443.7z M530.4,484.1c-2.6-5.2-5.3-11.2-8-18.2
	c-2.7-6.9-5.3-14.5-7.7-22.7h12.3c0.5,2,1.1,4.2,1.8,6.6c0.7,2.4,1.4,4.7,2.2,7.1c0.8,2.4,1.5,4.7,2.3,7c0.8,2.3,1.5,4.3,2.2,6.2
	c0.7-1.9,1.4-3.9,2.2-6.2c0.8-2.3,1.5-4.6,2.3-7c0.8-2.4,1.5-4.8,2.2-7.1c0.7-2.4,1.3-4.5,1.8-6.6h12c-2.4,8.2-5,15.7-7.7,22.7
	c-2.7,6.9-5.4,13-8,18.2H530.4z M576.8,476c1.1,0,2.2,0,3.3-0.1c1-0.1,1.9-0.1,2.5-0.2V467c-0.5-0.1-1.2-0.2-2.1-0.3
	c-0.9-0.1-1.8-0.2-2.6-0.2c-1.1,0-2.1,0.1-3.1,0.2c-1,0.1-1.8,0.4-2.5,0.7c-0.7,0.4-1.3,0.9-1.7,1.5c-0.4,0.6-0.6,1.4-0.6,2.3
	c0,1.8,0.6,3.1,1.8,3.8C573,475.7,574.7,476,576.8,476z M575.9,442.2c3.4,0,6.3,0.4,8.5,1.2s4.1,1.9,5.5,3.3
	c1.4,1.4,2.3,3.2,2.9,5.3c0.6,2.1,0.9,4.4,0.9,6.9V483c-1.7,0.4-4,0.8-6.9,1.3c-3,0.5-6.5,0.7-10.7,0.7c-2.6,0-5-0.2-7.2-0.7
	c-2.1-0.5-4-1.2-5.6-2.3c-1.6-1.1-2.7-2.4-3.6-4.2s-1.2-3.8-1.2-6.3c0-2.4,0.5-4.4,1.4-6.1c1-1.7,2.2-3,3.8-4c1.6-1,3.4-1.7,5.5-2.1
	c2.1-0.4,4.2-0.7,6.4-0.7c1.5,0,2.8,0.1,4,0.2s2.1,0.3,2.8,0.5v-1.1c0-2-0.6-3.5-1.8-4.7s-3.3-1.8-6.2-1.8c-2,0-3.9,0.1-5.8,0.4
	c-1.9,0.3-3.6,0.7-5,1.2l-1.5-9.3c0.7-0.2,1.5-0.4,2.5-0.7c1-0.2,2.1-0.4,3.3-0.6c1.2-0.2,2.4-0.3,3.8-0.5
	C573.2,442.2,574.6,442.2,575.9,442.2z M603.8,433.1l11.6-1.9v12h13.9v9.6h-13.9v14.4c0,2.4,0.4,4.4,1.3,5.8s2.6,2.2,5.2,2.2
	c1.2,0,2.5-0.1,3.8-0.3c1.3-0.2,2.5-0.6,3.6-1l1.6,9c-1.4,0.6-3,1.1-4.7,1.5c-1.7,0.4-3.8,0.6-6.3,0.6c-3.2,0-5.8-0.4-7.8-1.3
	c-2.1-0.9-3.7-2-5-3.6c-1.2-1.5-2.1-3.4-2.6-5.6c-0.5-2.2-0.7-4.6-0.7-7.2V433.1z M635.2,464c0-3.6,0.6-6.8,1.7-9.5
	c1.1-2.7,2.6-5,4.4-6.8c1.8-1.8,3.9-3.2,6.3-4.1c2.4-0.9,4.8-1.4,7.3-1.4c5.8,0,10.4,1.8,13.7,5.3s5,8.8,5,15.6c0,0.7,0,1.4-0.1,2.2
	c-0.1,0.8-0.1,1.5-0.2,2.1H647c0.3,2.4,1.4,4.3,3.3,5.7c2,1.4,4.6,2.1,7.9,2.1c2.1,0,4.2-0.2,6.3-0.6c2-0.4,3.7-0.9,5-1.4l1.6,9.4
	c-0.6,0.3-1.4,0.6-2.5,0.9c-1,0.3-2.2,0.6-3.5,0.8c-1.3,0.2-2.6,0.4-4.1,0.6c-1.4,0.2-2.9,0.2-4.3,0.2c-3.7,0-6.9-0.5-9.6-1.6
	c-2.7-1.1-5-2.6-6.8-4.5c-1.8-1.9-3.1-4.1-4-6.7C635.6,469.8,635.2,467,635.2,464z M662.3,459.6c-0.1-1-0.2-1.9-0.5-2.9
	s-0.7-1.8-1.3-2.5s-1.3-1.3-2.3-1.8c-0.9-0.5-2-0.7-3.4-0.7c-1.3,0-2.4,0.2-3.3,0.7s-1.7,1-2.3,1.7c-0.6,0.7-1.1,1.6-1.4,2.5
	c-0.3,1-0.6,1.9-0.7,2.9H662.3z M680.5,463.7c0-3,0.5-5.7,1.4-8.3c1-2.6,2.3-4.9,4.2-6.8c1.8-1.9,4-3.5,6.6-4.6s5.5-1.7,8.9-1.7
	c2.2,0,4.2,0.2,6,0.6c1.8,0.4,3.6,0.9,5.3,1.7l-2.4,9.2c-1.1-0.4-2.3-0.8-3.6-1.1c-1.3-0.3-2.7-0.5-4.3-0.5c-3.4,0-6,1.1-7.6,3.2
	s-2.5,4.9-2.5,8.4c0,3.7,0.8,6.5,2.4,8.5c1.6,2,4.3,3,8.3,3c1.4,0,2.9-0.1,4.5-0.4c1.6-0.3,3.1-0.7,4.4-1.2l1.6,9.5
	c-1.3,0.6-3,1.1-5,1.5c-2,0.4-4.2,0.6-6.7,0.6c-3.7,0-6.9-0.6-9.6-1.7c-2.7-1.1-4.9-2.6-6.6-4.5c-1.7-1.9-3-4.2-3.8-6.8
	C680.9,469.6,680.5,466.7,680.5,463.7z"/>
<path id="text_00000118389175238855519620000008003094071175440556_" class="st2" d="M397.3,557.1c3,0,4.5-2,4.5-6
	c0-1.2-0.1-2.3-0.4-3.2c-0.3-0.9-0.6-1.6-1.1-2.3c-0.5-0.6-1-1.2-1.5-1.7s-1.2-0.9-1.8-1.4c-0.7-0.5-1.4-1.1-2.1-1.7
	s-1.2-1.4-1.7-2.3c-0.5-0.9-0.9-1.9-1.2-3.1c-0.3-1.2-0.4-2.7-0.4-4.4c0-3.5,0.6-6.3,1.8-8.3c1.2-2,2.9-3,5-3c1.2,0,2.4,0.3,3.4,0.8
	s1.7,1.1,2.2,1.7L403,527c-0.4-0.5-1-1-1.8-1.5c-0.8-0.5-1.8-0.7-2.8-0.7c-0.5,0-1.1,0.1-1.5,0.3c-0.5,0.2-0.9,0.6-1.2,1
	c-0.4,0.5-0.6,1.1-0.8,1.8s-0.3,1.6-0.3,2.5c0,1.1,0.1,2,0.3,2.7c0.2,0.7,0.5,1.4,0.9,1.9s0.8,1.1,1.4,1.5c0.5,0.5,1.1,0.9,1.7,1.4
	c0.9,0.7,1.7,1.4,2.4,2.1s1.4,1.5,1.9,2.5c0.5,1,1,2.1,1.2,3.5c0.3,1.3,0.4,3,0.4,4.9c0,3.5-0.7,6.2-2,8.1c-1.3,1.9-3.1,2.8-5.5,2.8
	c-0.8,0-1.5-0.1-2.2-0.3c-0.7-0.2-1.3-0.5-1.8-0.8s-1-0.6-1.4-0.9c-0.4-0.3-0.7-0.6-0.9-0.8l0.9-4.7c0.5,0.5,1.1,1.1,2.1,1.7
	S395.9,557.1,397.3,557.1z M422.9,546c0,2.4-0.2,4.6-0.5,6.5c-0.4,1.9-0.8,3.6-1.5,5c-0.6,1.4-1.4,2.5-2.3,3.2
	c-0.9,0.8-1.8,1.1-2.9,1.1s-2-0.4-2.9-1.1c-0.9-0.8-1.6-1.8-2.3-3.2c-0.6-1.4-1.1-3.1-1.5-5c-0.4-1.9-0.5-4.1-0.5-6.5
	c0-2.4,0.2-4.5,0.5-6.5c0.4-2,0.8-3.6,1.5-5c0.6-1.4,1.4-2.5,2.3-3.2c0.9-0.8,1.8-1.1,2.9-1.1s2,0.4,2.9,1.1
	c0.9,0.8,1.6,1.8,2.3,3.2c0.6,1.4,1.1,3.1,1.5,5C422.7,541.5,422.9,543.6,422.9,546z M420.1,546c0-3.4-0.4-6.1-1.2-8.1
	c-0.8-2-1.8-3-3.2-3s-2.4,1-3.2,3c-0.8,2-1.2,4.7-1.2,8.1c0,3.4,0.4,6.1,1.2,8.1c0.8,2,1.8,3,3.2,3s2.4-1,3.2-3
	C419.7,552.1,420.1,549.4,420.1,546z M432.8,561.7c-1.7-0.1-2.9-0.8-3.6-2.2c-0.7-1.4-1.1-3.5-1.1-6.3v-36.3l2.7-0.9v36.3
	c0,0.9,0,1.6,0.1,2.2c0.1,0.6,0.2,1,0.4,1.4c0.2,0.3,0.4,0.6,0.7,0.8c0.3,0.2,0.7,0.3,1.1,0.4L432.8,561.7z M449.9,560.2
	c-0.6,0.3-1.5,0.6-2.5,1c-1,0.3-2.2,0.5-3.6,0.5c-1.2,0-2.2-0.3-3-1s-1.4-1.6-1.9-2.9c-0.5-1.2-0.8-2.7-1.1-4.4
	c-0.2-1.7-0.3-3.6-0.3-5.6v-17h2.7v15.8c0,3.7,0.3,6.3,0.9,7.9c0.6,1.6,1.6,2.4,3,2.4c0.3,0,0.6,0,0.9-0.1c0.3,0,0.6-0.1,0.9-0.1
	c0.3-0.1,0.5-0.1,0.7-0.2c0.2-0.1,0.4-0.1,0.5-0.2v-25.5h2.7V560.2z M462.7,561.8c-1.2,0-2.3-0.4-3.2-1.2c-0.9-0.8-1.7-1.9-2.3-3.3
	c-0.6-1.4-1.1-3.1-1.4-5c-0.3-1.9-0.5-4-0.5-6.4s0.2-4.5,0.5-6.4s0.8-3.6,1.5-5s1.4-2.5,2.3-3.3s1.9-1.2,3-1.2
	c0.7,0,1.4,0.1,2.1,0.3c0.7,0.2,1.3,0.6,2,1.1l-0.6,4.6c-0.4-0.4-0.9-0.7-1.4-0.9c-0.5-0.2-1.1-0.3-1.7-0.3c-1.5,0-2.7,0.9-3.5,2.8
	c-0.8,1.9-1.2,4.7-1.2,8.3c0,1.6,0.1,3.1,0.3,4.5c0.2,1.4,0.5,2.5,0.9,3.5c0.4,1,0.9,1.7,1.5,2.2c0.6,0.5,1.4,0.8,2.3,0.8
	c0.7,0,1.4-0.1,2-0.4c0.6-0.3,1-0.6,1.4-0.9l0.4,4.5c-0.2,0.2-0.4,0.4-0.7,0.6c-0.3,0.2-0.6,0.3-1,0.5c-0.4,0.1-0.8,0.3-1.2,0.3
	C463.5,561.8,463.1,561.8,462.7,561.8z M473.9,561.1h-2.7v-30.2h2.7V561.1z M472.5,525.4c-0.5,0-0.9-0.3-1.2-1
	c-0.3-0.6-0.5-1.5-0.5-2.6s0.2-1.9,0.5-2.6c0.3-0.6,0.8-1,1.2-1c0.5,0,0.9,0.3,1.2,1c0.3,0.6,0.5,1.5,0.5,2.6s-0.2,1.9-0.5,2.6
	C473.4,525.1,473,525.4,472.5,525.4z M493.5,546c0,2.4-0.2,4.6-0.5,6.5c-0.4,1.9-0.8,3.6-1.5,5s-1.4,2.5-2.3,3.2
	c-0.9,0.8-1.8,1.1-2.9,1.1c-1,0-2-0.4-2.9-1.1c-0.9-0.8-1.6-1.8-2.3-3.2s-1.1-3.1-1.5-5c-0.4-1.9-0.5-4.1-0.5-6.5
	c0-2.4,0.2-4.5,0.5-6.5c0.4-2,0.8-3.6,1.5-5c0.6-1.4,1.4-2.5,2.3-3.2c0.9-0.8,1.8-1.1,2.9-1.1c1,0,2,0.4,2.9,1.1
	c0.9,0.8,1.6,1.8,2.3,3.2c0.6,1.4,1.1,3.1,1.5,5C493.3,541.5,493.5,543.6,493.5,546z M490.7,546c0-3.4-0.4-6.1-1.2-8.1
	c-0.8-2-1.8-3-3.2-3c-1.3,0-2.4,1-3.2,3c-0.8,2-1.2,4.7-1.2,8.1c0,3.4,0.4,6.1,1.2,8.1c0.8,2,1.8,3,3.2,3c1.3,0,2.4-1,3.2-3
	C490.3,552.1,490.7,549.4,490.7,546z M498.8,531.8c0.6-0.3,1.5-0.6,2.5-1c1-0.3,2.2-0.5,3.6-0.5c1.2,0,2.2,0.3,3,1s1.4,1.6,1.9,2.8
	c0.5,1.2,0.8,2.7,1,4.4c0.2,1.7,0.3,3.6,0.3,5.6v17h-2.7v-15.8c0-1.9-0.1-3.4-0.2-4.8c-0.1-1.3-0.3-2.4-0.6-3.2
	c-0.3-0.8-0.7-1.4-1.2-1.8c-0.5-0.4-1.1-0.6-1.8-0.6c-0.3,0-0.6,0-0.9,0.1c-0.3,0-0.6,0.1-0.9,0.1c-0.3,0.1-0.5,0.1-0.8,0.2
	c-0.2,0.1-0.4,0.1-0.5,0.2v25.5h-2.7V531.8z M516.3,546.1c0-2.7,0.2-5,0.6-7c0.4-2,0.9-3.7,1.6-5c0.6-1.3,1.4-2.3,2.2-3
	c0.8-0.7,1.7-1,2.6-1c2.1,0,3.6,1.3,4.7,3.8c1.1,2.5,1.6,6.4,1.6,11.6c0,0.2,0,0.5,0,0.9s0,0.7,0,1h-10.4c0.1,3.1,0.6,5.5,1.4,7.2
	s2.1,2.4,3.8,2.4c1,0,1.8-0.2,2.4-0.5c0.7-0.3,1.1-0.6,1.5-1l0.4,4.5c-0.3,0.3-0.9,0.7-1.7,1.1c-0.8,0.4-1.8,0.6-2.8,0.6
	c-1.3,0-2.5-0.4-3.4-1.2c-1-0.8-1.8-1.9-2.4-3.3c-0.6-1.4-1.1-3.1-1.4-5C516.4,550.4,516.3,548.3,516.3,546.1z M526.8,543.1
	c0-2.4-0.3-4.4-0.9-6s-1.5-2.4-2.6-2.4c-0.6,0-1.2,0.2-1.7,0.7s-0.9,1.1-1.2,1.9c-0.3,0.8-0.6,1.7-0.8,2.7c-0.2,1-0.3,2-0.4,3.1
	H526.8z M538.6,557.2c1.1,0,1.9-0.3,2.5-0.9c0.5-0.6,0.8-1.5,0.8-2.8c0-1.3-0.3-2.4-0.8-3.1c-0.5-0.8-1.4-1.6-2.6-2.6
	c-0.6-0.5-1.1-0.9-1.7-1.4c-0.5-0.5-1-1.1-1.4-1.7c-0.4-0.7-0.7-1.5-0.9-2.4c-0.2-0.9-0.4-2.1-0.4-3.4c0-2.7,0.5-4.8,1.5-6.4
	c1-1.6,2.4-2.4,4.1-2.4c0.4,0,0.9,0,1.3,0.1c0.4,0.1,0.8,0.2,1.2,0.3s0.7,0.3,1,0.4c0.3,0.2,0.5,0.3,0.7,0.4l-0.5,4.7
	c-0.3-0.3-0.8-0.6-1.4-1c-0.6-0.3-1.4-0.5-2.3-0.5c-0.8,0-1.4,0.3-2,0.9c-0.6,0.6-0.9,1.5-0.9,2.8c0,0.7,0.1,1.2,0.2,1.7
	c0.1,0.5,0.3,1,0.6,1.4c0.3,0.4,0.6,0.8,1,1.1c0.4,0.3,0.9,0.7,1.4,1.1c0.7,0.5,1.4,1.1,1.9,1.6c0.6,0.5,1.1,1.1,1.5,1.8
	c0.4,0.7,0.7,1.5,0.9,2.5c0.2,1,0.3,2.2,0.3,3.6c0,2.8-0.5,4.9-1.6,6.3c-1,1.4-2.5,2.2-4.5,2.2c-1.4,0-2.4-0.2-3.2-0.7
	c-0.8-0.4-1.3-0.8-1.6-1l0.5-4.7c0.3,0.2,0.8,0.6,1.5,1C536.5,557,537.4,557.2,538.6,557.2z M560.4,530.9h5.8v4.5h-5.8v14
	c0,1.5,0.1,2.8,0.2,3.8c0.1,1,0.3,1.8,0.5,2.3c0.2,0.6,0.5,1,0.9,1.2c0.4,0.2,0.8,0.3,1.2,0.3c0.8,0,1.5-0.2,2-0.6
	c0.5-0.4,0.8-0.6,1-0.8l0.5,4.5c-0.3,0.3-0.8,0.6-1.4,1s-1.5,0.6-2.3,0.6c-1,0-1.9-0.3-2.6-0.8c-0.7-0.5-1.2-1.3-1.6-2.4
	c-0.4-1-0.7-2.3-0.9-3.9c-0.2-1.5-0.2-3.3-0.2-5.3v-27l2.7-0.9V530.9z M569.9,546.1c0-2.7,0.2-5,0.6-7c0.4-2,0.9-3.7,1.6-5
	c0.6-1.3,1.4-2.3,2.2-3c0.8-0.7,1.7-1,2.6-1c2.1,0,3.6,1.3,4.7,3.8c1.1,2.5,1.6,6.4,1.6,11.6c0,0.2,0,0.5,0,0.9s0,0.7,0,1h-10.4
	c0.1,3.1,0.6,5.5,1.4,7.2s2.1,2.4,3.8,2.4c1,0,1.8-0.2,2.4-0.5c0.7-0.3,1.1-0.6,1.5-1l0.4,4.5c-0.3,0.3-0.9,0.7-1.7,1.1
	c-0.8,0.4-1.8,0.6-2.8,0.6c-1.3,0-2.5-0.4-3.4-1.2c-1-0.8-1.8-1.9-2.4-3.3c-0.6-1.4-1.1-3.1-1.4-5
	C570.1,550.4,569.9,548.3,569.9,546.1z M580.4,543.1c0-2.4-0.3-4.4-0.9-6s-1.5-2.4-2.6-2.4c-0.6,0-1.2,0.2-1.7,0.7
	c-0.5,0.5-0.9,1.1-1.2,1.9c-0.3,0.8-0.6,1.7-0.8,2.7c-0.2,1-0.3,2-0.4,3.1H580.4z M595.3,561.8c-1.2,0-2.3-0.4-3.2-1.2
	c-0.9-0.8-1.7-1.9-2.3-3.3c-0.6-1.4-1.1-3.1-1.4-5c-0.3-1.9-0.5-4-0.5-6.4s0.2-4.5,0.5-6.4s0.8-3.6,1.5-5s1.4-2.5,2.3-3.3
	c0.9-0.8,1.9-1.2,3-1.2c0.7,0,1.4,0.1,2.1,0.3c0.7,0.2,1.3,0.6,2,1.1l-0.6,4.6c-0.4-0.4-0.9-0.7-1.4-0.9c-0.5-0.2-1.1-0.3-1.7-0.3
	c-1.5,0-2.7,0.9-3.5,2.8c-0.8,1.9-1.2,4.7-1.2,8.3c0,1.6,0.1,3.1,0.3,4.5c0.2,1.4,0.5,2.5,0.9,3.5c0.4,1,0.9,1.7,1.5,2.2
	c0.6,0.5,1.4,0.8,2.3,0.8c0.7,0,1.4-0.1,2-0.4c0.6-0.3,1-0.6,1.4-0.9l0.4,4.5c-0.2,0.2-0.4,0.4-0.7,0.6c-0.3,0.2-0.6,0.3-1,0.5
	c-0.4,0.1-0.8,0.3-1.2,0.3S595.7,561.8,595.3,561.8z M603.8,531.8c0.6-0.3,1.5-0.6,2.5-1c1-0.3,2.2-0.5,3.6-0.5c1.2,0,2.2,0.3,3,1
	s1.4,1.6,1.9,2.8c0.5,1.2,0.8,2.7,1,4.4c0.2,1.7,0.3,3.6,0.3,5.6v17h-2.7v-15.8c0-1.9-0.1-3.4-0.2-4.8c-0.1-1.3-0.3-2.4-0.6-3.2
	c-0.3-0.8-0.7-1.4-1.2-1.8c-0.5-0.4-1.1-0.6-1.8-0.6c-0.3,0-0.6,0-0.9,0.1c-0.3,0-0.6,0.1-0.9,0.1c-0.3,0.1-0.5,0.1-0.8,0.2
	c-0.2,0.1-0.4,0.1-0.5,0.2v25.5h-2.7V531.8z M635.6,546c0,2.4-0.2,4.6-0.5,6.5c-0.4,1.9-0.8,3.6-1.5,5s-1.4,2.5-2.3,3.2
	c-0.9,0.8-1.8,1.1-2.9,1.1c-1,0-2-0.4-2.9-1.1c-0.9-0.8-1.6-1.8-2.3-3.2c-0.6-1.4-1.1-3.1-1.5-5c-0.4-1.9-0.5-4.1-0.5-6.5
	c0-2.4,0.2-4.5,0.5-6.5c0.4-2,0.8-3.6,1.5-5c0.6-1.4,1.4-2.5,2.3-3.2c0.9-0.8,1.8-1.1,2.9-1.1c1,0,2,0.4,2.9,1.1
	c0.9,0.8,1.6,1.8,2.3,3.2c0.6,1.4,1.1,3.1,1.5,5C635.4,541.5,635.6,543.6,635.6,546z M632.7,546c0-3.4-0.4-6.1-1.2-8.1
	c-0.8-2-1.8-3-3.2-3c-1.3,0-2.4,1-3.2,3c-0.8,2-1.2,4.7-1.2,8.1c0,3.4,0.4,6.1,1.2,8.1c0.8,2,1.8,3,3.2,3c1.3,0,2.4-1,3.2-3
	C632.3,552.1,632.7,549.4,632.7,546z M645.4,561.7c-1.7-0.1-2.9-0.8-3.6-2.2c-0.7-1.4-1.1-3.5-1.1-6.3v-36.3l2.7-0.9v36.3
	c0,0.9,0,1.6,0.1,2.2s0.2,1,0.4,1.4c0.2,0.3,0.4,0.6,0.7,0.8c0.3,0.2,0.7,0.3,1.1,0.4L645.4,561.7z M663.8,546
	c0,2.4-0.2,4.6-0.5,6.5c-0.4,1.9-0.8,3.6-1.5,5c-0.6,1.4-1.4,2.5-2.3,3.2c-0.9,0.8-1.8,1.1-2.9,1.1c-1,0-2-0.4-2.9-1.1
	c-0.9-0.8-1.6-1.8-2.3-3.2s-1.1-3.1-1.5-5c-0.4-1.9-0.5-4.1-0.5-6.5c0-2.4,0.2-4.5,0.5-6.5c0.4-2,0.8-3.6,1.5-5
	c0.6-1.4,1.4-2.5,2.3-3.2c0.9-0.8,1.8-1.1,2.9-1.1c1,0,2,0.4,2.9,1.1c0.9,0.8,1.6,1.8,2.3,3.2c0.6,1.4,1.1,3.1,1.5,5
	C663.6,541.5,663.8,543.6,663.8,546z M661,546c0-3.4-0.4-6.1-1.2-8.1c-0.8-2-1.8-3-3.2-3c-1.3,0-2.4,1-3.2,3c-0.8,2-1.2,4.7-1.2,8.1
	c0,3.4,0.4,6.1,1.2,8.1c0.8,2,1.8,3,3.2,3c1.3,0,2.4-1,3.2-3C660.6,552.1,661,549.4,661,546z M660.2,519.4l-4.1,8l-1.4-2.4l3.8-9
	L660.2,519.4z M678.7,558.1c-0.2,0.3-0.7,0.7-1.4,1.2s-1.5,0.7-2.4,0.7c-0.9,0-1.8-0.3-2.6-0.9s-1.5-1.5-2.1-2.7
	c-0.6-1.2-1.1-2.7-1.4-4.6s-0.5-4-0.5-6.5c0-2.2,0.2-4.2,0.5-6.1c0.3-1.8,0.8-3.4,1.5-4.8c0.6-1.3,1.4-2.4,2.3-3.1s2-1.1,3.1-1.1
	c1.3,0,2.4,0.2,3.3,0.6c0.9,0.4,1.7,0.7,2.4,1v27c0,4.7-0.6,8-1.8,10.1c-1.2,2.1-3.1,3.1-5.5,3.1c-1,0-1.9-0.2-2.7-0.5
	c-0.9-0.3-1.6-0.7-2.2-1.1l0.5-4.7c0.5,0.4,1.2,0.8,2,1.1c0.8,0.3,1.6,0.5,2.5,0.5c1.6,0,2.8-0.6,3.5-1.9c0.7-1.3,1.1-3.3,1.1-6.1
	V558.1z M678.7,535.7c-0.3-0.2-0.6-0.3-1.1-0.4c-0.5-0.1-1.1-0.2-1.9-0.2c-1.5,0-2.6,0.9-3.4,2.8c-0.8,1.9-1.2,4.4-1.2,7.6
	c0,1.7,0.1,3.2,0.3,4.5c0.2,1.2,0.5,2.3,0.9,3.1c0.4,0.8,0.8,1.4,1.3,1.8c0.5,0.4,1,0.6,1.5,0.6c0.7,0,1.4-0.2,2-0.6
	c0.6-0.4,1.1-0.9,1.4-1.4V535.7z M690.3,561.1h-2.7v-30.2h2.7V561.1z M688.9,525.4c-0.5,0-0.9-0.3-1.2-1c-0.3-0.6-0.5-1.5-0.5-2.6
	s0.2-1.9,0.5-2.6c0.3-0.6,0.8-1,1.2-1c0.5,0,0.9,0.3,1.2,1c0.3,0.6,0.5,1.5,0.5,2.6s-0.2,1.9-0.5,2.6
	C689.8,525.1,689.4,525.4,688.9,525.4z M703.1,561.8c-1.2,0-2.3-0.4-3.2-1.2c-0.9-0.8-1.7-1.9-2.3-3.3c-0.6-1.4-1.1-3.1-1.4-5
	c-0.3-1.9-0.5-4-0.5-6.4s0.2-4.5,0.5-6.4s0.8-3.6,1.5-5c0.6-1.4,1.4-2.5,2.3-3.3c0.9-0.8,1.9-1.2,3-1.2c0.7,0,1.4,0.1,2.1,0.3
	c0.7,0.2,1.3,0.6,2,1.1l-0.6,4.6c-0.4-0.4-0.9-0.7-1.4-0.9c-0.5-0.2-1.1-0.3-1.7-0.3c-1.5,0-2.7,0.9-3.5,2.8
	c-0.8,1.9-1.2,4.7-1.2,8.3c0,1.6,0.1,3.1,0.3,4.5c0.2,1.4,0.5,2.5,0.9,3.5c0.4,1,0.9,1.7,1.5,2.2c0.6,0.5,1.4,0.8,2.3,0.8
	c0.7,0,1.4-0.1,2-0.4c0.6-0.3,1-0.6,1.4-0.9l0.4,4.5c-0.2,0.2-0.4,0.4-0.7,0.6c-0.3,0.2-0.6,0.3-1,0.5c-0.4,0.1-0.8,0.3-1.2,0.3
	C703.9,561.8,703.5,561.8,703.1,561.8z M716.7,557.2c0.6,0,1.2,0,1.7-0.1c0.5-0.1,0.9-0.2,1.2-0.3v-9c-0.2-0.2-0.5-0.4-1-0.5
	c-0.4-0.1-1-0.2-1.6-0.2c-0.4,0-0.8,0.1-1.3,0.2c-0.5,0.1-0.9,0.4-1.3,0.7c-0.4,0.4-0.7,0.9-1,1.5c-0.3,0.6-0.4,1.5-0.4,2.5
	c0,1.9,0.3,3.3,0.9,4S715.7,557.2,716.7,557.2z M716.5,530.1c1.1,0,2,0.3,2.8,0.8s1.4,1.4,1.8,2.4c0.5,1,0.8,2.2,1,3.7
	c0.2,1.4,0.3,3,0.3,4.7v18.9c-0.2,0.1-0.6,0.2-1,0.3c-0.4,0.1-0.9,0.3-1.4,0.4c-0.5,0.1-1.1,0.2-1.7,0.3c-0.6,0.1-1.2,0.1-1.8,0.1
	c-0.9,0-1.7-0.2-2.4-0.5c-0.7-0.3-1.4-0.9-1.9-1.7c-0.5-0.8-0.9-1.8-1.2-3c-0.3-1.2-0.4-2.7-0.4-4.5c0-1.7,0.2-3.1,0.5-4.3
	c0.3-1.2,0.8-2.2,1.4-2.9c0.6-0.7,1.3-1.3,2.1-1.6c0.8-0.3,1.6-0.5,2.5-0.5c0.3,0,0.6,0,0.9,0.1c0.3,0.1,0.6,0.1,0.8,0.2
	c0.3,0.1,0.5,0.2,0.7,0.3c0.2,0.1,0.3,0.1,0.4,0.2V542c0-0.9,0-1.8-0.1-2.6c-0.1-0.9-0.3-1.6-0.5-2.3c-0.3-0.7-0.6-1.2-1-1.6
	c-0.4-0.4-1-0.6-1.7-0.6c-0.9,0-1.7,0.1-2.4,0.4s-1.2,0.5-1.5,0.8l-0.3-4.5c0.4-0.3,0.9-0.6,1.8-0.9S715.5,530.1,716.5,530.1z
	 M731.9,557.2c1.1,0,1.9-0.3,2.5-0.9c0.5-0.6,0.8-1.5,0.8-2.8c0-1.3-0.3-2.4-0.8-3.1c-0.5-0.8-1.4-1.6-2.6-2.6
	c-0.6-0.5-1.1-0.9-1.7-1.4c-0.5-0.5-1-1.1-1.4-1.7c-0.4-0.7-0.7-1.5-0.9-2.4c-0.2-0.9-0.4-2.1-0.4-3.4c0-2.7,0.5-4.8,1.5-6.4
	c1-1.6,2.4-2.4,4.1-2.4c0.4,0,0.9,0,1.3,0.1c0.4,0.1,0.8,0.2,1.2,0.3c0.4,0.1,0.7,0.3,1,0.4c0.3,0.2,0.5,0.3,0.7,0.4l-0.5,4.7
	c-0.3-0.3-0.8-0.6-1.4-1c-0.6-0.3-1.4-0.5-2.3-0.5c-0.8,0-1.4,0.3-2,0.9c-0.6,0.6-0.9,1.5-0.9,2.8c0,0.7,0.1,1.2,0.2,1.7
	c0.1,0.5,0.3,1,0.6,1.4c0.3,0.4,0.6,0.8,1,1.1c0.4,0.3,0.9,0.7,1.4,1.1c0.7,0.5,1.4,1.1,1.9,1.6s1.1,1.1,1.5,1.8
	c0.4,0.7,0.7,1.5,0.9,2.5c0.2,1,0.3,2.2,0.3,3.6c0,2.8-0.5,4.9-1.6,6.3c-1,1.4-2.5,2.2-4.5,2.2c-1.4,0-2.4-0.2-3.2-0.7
	c-0.8-0.4-1.3-0.8-1.6-1l0.5-4.7c0.3,0.2,0.8,0.6,1.5,1C729.9,557,730.8,557.2,731.9,557.2z"/>
<g>
	<g>
		<path class="st3" d="M514.6,486.2c-20.7,0-41.4,0-62.2,0c0-20.3,0-40.6,0-60.8c20.7,0,41.4,0,62.2,0
			C514.6,445.6,514.6,465.9,514.6,486.2z M459.8,474.5c1.1-1.2,2.7-0.8,3.8-1.6c1.3-1,2.1-0.2,3.1,0.5c3.2,2.1,5.1,4.8,3.8,8.9
			c-0.1,0.4-0.2,1,0.3,1.3c1.6,0.9,3.3,1.7,5.1,1.8c1.2,0.1,1.7-1.4,2.3-2.4c1.1-2.1,2.5-3.2,5-2.5c0.5,0.1,1.1,0,1.7-0.1
			c1.4-0.2,2.3,0.2,3.1,1.5c2.6,4,2.6,3.9,6.9,2.4c1.2-0.4,1.8-1.1,1.6-2.4c-0.2-1.1-0.1-2.3-0.2-3.5c0-0.8-0.1-1.7,0.7-2.2
			c1.4-1,2.6-2.2,3.9-3.4c0.3-0.3,0.7-0.8,1.2-0.5c1.6,1.2,3.7,0.8,5.2,2c3.8-6.2,3.9-5.4,0-9.3c-0.7-0.7-0.9-1.5-0.8-2.5
			c0.4-3.1,0.7-6.2,4.4-7.3c0.4-0.1,0.7-0.4,1-0.6c0.8-0.5,1.3-1.3,0.9-2.2c-0.3-0.7-0.4-1.5-0.4-2.2c0-2.1-1.2-2.6-2.8-2.5
			c-2.7,0.1-4.5-0.8-5.7-3.4c-1-2.1-1.6-3.6-0.5-5.8c1.6-3.1,1.4-3.2-1.2-5.5c-2.1-1.8-2.2-1.6-4-0.2c-1.2,1-2.7,2.3-4.5,1.7
			c-1.4-0.5-2.8-0.8-4.1-1.3c-0.9-0.3-1.5-0.8-1.7-1.7c-0.3-1.4-0.5-2.8-1-4.2c-0.3-0.7-0.7-1-1.4-1c-1.3,0-2.6,0-3.9,0
			c-0.5,0-1.1,0-1.3,0.8c-0.4,1.5-0.9,2.9-1.4,4.4c-0.2,0.5-0.3,1-0.8,1.3c-1.6,0.6-3.1,1.3-4.8,1.8c-0.8,0.2-1.7,0.1-2.5-0.6
			c-3.6-2.9-3.6-2.8-7.2,0c-0.2,0.1-0.4,0.3-0.5,0.4c-0.8,0.6-1.2,1-0.5,2.2c1.7,2.7,2.8,5.5,0.1,8.3c0,0-0.1,0.1-0.1,0.2
			c-0.5,2.1-1.9,2.6-3.9,2.6c-3.6,0.1-3.6,0.2-4.3,3.7c-0.1,0.5-0.2,1-0.3,1.5c-0.2,0.8-0.1,1.4,0.9,1.8c1.3,0.5,2.4,1.3,3.7,1.9
			c0.9,0.4,1.3,1.2,1.5,2.1c0.8,3.5,0.9,6.7-2.7,8.8c-0.1,0.1-0.2,0.3-0.3,0.4c-0.6,0.6-0.6,1.2-0.2,1.9
			C457.7,471.3,458.5,472.9,459.8,474.5z"/>
		<path class="st4" d="M459.8,474.5c-1.3-1.6-2.1-3.2-3-4.7c-0.4-0.6-0.4-1.3,0.2-1.9c0.1-0.1,0.2-0.3,0.3-0.4
			c3.5-2.1,3.5-5.3,2.7-8.8c-0.2-1-0.6-1.7-1.5-2.1c-1.2-0.6-2.4-1.3-3.7-1.9c-0.9-0.4-1-1-0.9-1.8c0.1-0.5,0.2-1,0.3-1.5
			c0.8-3.5,0.8-3.6,4.3-3.7c2,0,3.4-0.5,3.9-2.6c0-0.1,0-0.1,0.1-0.2c2.8-2.8,1.6-5.6-0.1-8.3c-0.7-1.2-0.3-1.6,0.5-2.2
			c0.2-0.1,0.4-0.3,0.5-0.4c3.6-2.8,3.6-2.8,7.2,0c0.9,0.7,1.7,0.8,2.5,0.6c1.6-0.5,3.2-1.2,4.8-1.8c0.6-0.2,0.6-0.8,0.8-1.3
			c0.5-1.4,1-2.9,1.4-4.4c0.2-0.8,0.8-0.8,1.3-0.8c1.3,0,2.6,0,3.9,0c0.7,0,1.1,0.3,1.4,1c0.5,1.4,0.7,2.8,1,4.2
			c0.2,0.9,0.8,1.5,1.7,1.7c1.4,0.4,2.8,0.8,4.1,1.3c1.8,0.6,3.3-0.7,4.5-1.7c1.8-1.5,1.8-1.7,4,0.2c2.7,2.3,2.8,2.4,1.2,5.5
			c-1.1,2.2-0.5,3.8,0.5,5.8c1.3,2.7,3.1,3.5,5.7,3.4c1.6-0.1,2.8,0.4,2.8,2.5c0,0.7,0.1,1.4,0.4,2.2c0.4,0.9-0.2,1.7-0.9,2.2
			c-0.3,0.2-0.7,0.5-1,0.6c-3.7,1.1-4,4.2-4.4,7.3c-0.1,1,0,1.7,0.8,2.5c3.8,4,3.7,3.2,0,9.3c-1.5-1.2-3.6-0.8-5.2-2
			c-0.5-0.4-0.8,0.2-1.2,0.5c-1.3,1.2-2.5,2.4-3.9,3.4c-0.8,0.5-0.8,1.4-0.7,2.2c0.1,1.2,0.1,2.3,0.2,3.5c0.2,1.3-0.4,2-1.6,2.4
			c-4.3,1.5-4.3,1.6-6.9-2.4c-0.8-1.3-1.7-1.7-3.1-1.5c-0.6,0.1-1.2,0.2-1.7,0.1c-2.4-0.7-3.8,0.4-5,2.5c-0.5,1-1.1,2.4-2.3,2.4
			c-1.8-0.1-3.5-0.8-5.1-1.8c-0.4-0.3-0.4-0.8-0.3-1.3c1.3-4.1-0.6-6.8-3.8-8.9c-1-0.7-1.8-1.4-3.1-0.5
			C462.5,473.7,460.9,473.3,459.8,474.5z M465.6,455.8c-0.3,10.5,8.7,18.8,18,18.5c10.9-0.4,17.4-7.9,17.6-17.7
			c0.2-10.6-7.3-18.7-19.4-18.2c-4.4,0.2-8.1,2.4-11.1,5.5C467.6,447.3,465.7,451.2,465.6,455.8z"/>
		<path class="st3" d="M465.6,455.8c0.1-4.6,2.1-8.5,5.1-11.8c2.9-3.2,6.6-5.3,11.1-5.5c12.1-0.5,19.6,7.5,19.4,18.2
			c-0.2,9.8-6.7,17.3-17.6,17.7C474.3,474.7,465.2,466.3,465.6,455.8z M497.9,457c0-4.6-1.2-7.7-3.6-10.3c-1.3-1.5-3-1.8-4.2-0.8
			c-1.2,1-1.3,2.7,0.1,4.1c1.7,1.7,2,4.1,2.3,6.1c0.6,4.1-3.7,9-7.9,9.4c-3.9,0.4-7.7-1.5-9.3-5.1c-1.6-3.5-1.3-7,1.2-10.1
			c0.4-0.5,0.9-1.1,1.1-1.7c0.5-1.2,0-2.2-0.9-2.9c-0.9-0.7-2-0.8-3,0.1c-2.9,2.5-4.6,5.8-4.7,9.6c-0.2,6,2.3,10.9,7.6,13.7
			c4.8,2.6,9.6,2.5,14.4-0.5C495.7,465.7,497.8,461.5,497.9,457z M486.1,449.5C486.1,449.5,486.1,449.5,486.1,449.5
			c0-1.6,0-3.2,0-4.9c0-1.8-1.1-2.9-2.5-2.9c-1.5-0.1-2.6,1-2.7,2.8c-0.1,1.9-0.1,3.8-0.1,5.7c0,1.6,0,3.2,0.2,4.9
			c0.1,1.3,1.8,2.8,2.8,2.5c1.3-0.3,2.1-1.4,2.3-2.7c0.1-0.3,0-0.7,0-1C486.1,452.4,486.1,451,486.1,449.5z"/>
		<path class="st4" d="M497.9,457c-0.1,4.4-2.2,8.7-6.9,11.7c-4.8,3.1-9.6,3.1-14.4,0.5c-5.3-2.8-7.8-7.7-7.6-13.7
			c0.1-3.8,1.8-7.1,4.7-9.6c1-0.8,2.1-0.8,3-0.1c0.9,0.7,1.4,1.7,0.9,2.9c-0.3,0.6-0.7,1.2-1.1,1.7c-2.5,3.1-2.8,6.6-1.2,10.1
			c1.6,3.5,5.4,5.5,9.3,5.1c4.2-0.4,8.5-5.3,7.9-9.4c-0.3-2.1-0.6-4.4-2.3-6.1c-1.4-1.4-1.3-3.1-0.1-4.1c1.2-1,2.9-0.7,4.2,0.8
			C496.7,449.3,497.9,452.4,497.9,457z"/>
		<path class="st4" d="M486.1,449.5c0,1.4,0,2.9,0,4.3c0,0.3,0,0.7,0,1c-0.3,1.3-1.1,2.3-2.3,2.7c-1,0.3-2.6-1.2-2.8-2.5
			c-0.2-1.6-0.1-3.2-0.2-4.9c0-1.9-0.1-3.8,0.1-5.7c0.1-1.8,1.2-2.8,2.7-2.8c1.5,0.1,2.5,1.2,2.5,2.9
			C486.2,446.3,486.1,447.9,486.1,449.5C486.1,449.5,486.1,449.5,486.1,449.5z"/>
	</g>
</g>
</svg>
